<svg width="12" height="18" viewBox="0 0 12 18" fill="none" xmlns="http://www.w3.org/2000/svg">
<path d="M0.000274484 0.836916C0.00642161 1.0525 0.115064 1.25733 0.302534 1.4068L9.46273 9.00201L0.302534 16.5972C0.208108 16.6734 0.133051 16.7645 0.0817973 16.8651C0.0305435 16.9657 0.0041326 17.0738 0.00412492 17.1831C0.00417646 17.3457 0.0627067 17.5045 0.172233 17.6394C0.281759 17.7743 0.437304 17.879 0.618982 17.9402C0.800661 18.0013 1.00022 18.0162 1.19214 17.9829C1.38406 17.9495 1.55963 17.8695 1.69639 17.7529L11.5535 9.57987C11.7383 9.42659 11.8421 9.21874 11.8421 9.00201C11.8421 8.78528 11.7383 8.57743 11.5535 8.42415L1.69639 0.251072C1.55874 0.132376 1.38105 0.0509224 1.18661 0.0173817C0.992178 -0.016161 0.790056 -0.000226974 0.606726 0.0630951C0.423396 0.126417 0.267408 0.234177 0.159194 0.372255C0.050981 0.510334 -0.00441085 0.672291 0.000274484 0.836916Z" fill="#5268E7"/>
</svg>
