<svg width="303" height="116" viewBox="0 0 303 116" fill="none" xmlns="http://www.w3.org/2000/svg">
<path d="M133.078 34.5791C131 34.5791 129.412 35.3552 128.313 36.9075C127.215 38.4597 126.666 40.5851 126.666 43.2836C126.666 46.006 127.167 48.1194 128.17 49.6239C129.197 51.1045 130.833 51.8448 133.078 51.8448C134.128 51.8448 135.167 51.7254 136.194 51.4866C137.245 51.2478 138.379 50.9134 139.597 50.4836V55.0328C138.475 55.4866 137.364 55.8209 136.266 56.0358C135.167 56.2507 133.937 56.3582 132.576 56.3582C129.949 56.3582 127.776 55.8209 126.057 54.7463C124.361 53.6478 123.107 52.1194 122.296 50.1612C121.484 48.1791 121.078 45.8746 121.078 43.2478C121.078 40.6687 121.543 38.3881 122.475 36.406C123.406 34.4239 124.755 32.8716 126.522 31.7493C128.313 30.6269 130.499 30.0657 133.078 30.0657C134.343 30.0657 135.609 30.2328 136.875 30.5672C138.164 30.8776 139.394 31.3075 140.564 31.8567L138.809 36.2627C137.854 35.809 136.887 35.4149 135.907 35.0806C134.952 34.7463 134.009 34.5791 133.078 34.5791ZM162.369 46.1851C162.369 49.4328 161.509 51.9403 159.79 53.7075C158.094 55.4746 155.778 56.3582 152.841 56.3582C151.026 56.3582 149.402 55.9642 147.969 55.1761C146.56 54.3881 145.45 53.2418 144.638 51.7373C143.826 50.209 143.42 48.3582 143.42 46.1851C143.42 42.9373 144.268 40.4418 145.963 38.6985C147.659 36.9552 149.987 36.0836 152.948 36.0836C154.787 36.0836 156.411 36.4776 157.82 37.2657C159.229 38.0537 160.339 39.2 161.151 40.7045C161.963 42.1851 162.369 44.0119 162.369 46.1851ZM148.865 46.1851C148.865 48.1194 149.175 49.5881 149.796 50.591C150.441 51.5701 151.479 52.0597 152.912 52.0597C154.321 52.0597 155.336 51.5701 155.957 50.591C156.602 49.5881 156.924 48.1194 156.924 46.1851C156.924 44.2507 156.602 42.806 155.957 41.8507C155.336 40.8716 154.309 40.3821 152.876 40.3821C151.468 40.3821 150.441 40.8716 149.796 41.8507C149.175 42.806 148.865 44.2507 148.865 46.1851ZM170.737 56L163.286 36.4418H168.874L172.636 47.5821C172.851 48.2507 173.018 48.9433 173.137 49.6597C173.28 50.3761 173.364 51.0209 173.388 51.594H173.531C173.603 50.3045 173.865 48.9672 174.319 47.5821L178.08 36.4418H183.668L176.218 56H170.737ZM189.161 28.7761C189.949 28.7761 190.63 28.9672 191.203 29.3493C191.776 29.7075 192.063 30.3881 192.063 31.391C192.063 32.3702 191.776 33.0507 191.203 33.4328C190.63 33.8149 189.949 34.006 189.161 34.006C188.349 34.006 187.657 33.8149 187.083 33.4328C186.534 33.0507 186.26 32.3702 186.26 31.391C186.26 30.3881 186.534 29.7075 187.083 29.3493C187.657 28.9672 188.349 28.7761 189.161 28.7761ZM191.812 36.4418V56H186.475V36.4418H191.812ZM203.586 56.3582C201.413 56.3582 199.633 55.5104 198.248 53.8149C196.887 52.0955 196.207 49.5761 196.207 46.2567C196.207 42.9134 196.899 40.3821 198.284 38.6627C199.669 36.9433 201.484 36.0836 203.729 36.0836C205.138 36.0836 206.296 36.3582 207.204 36.9075C208.111 37.4567 208.828 38.1373 209.353 38.9493H209.532C209.46 38.5672 209.377 38.0179 209.281 37.3015C209.186 36.5612 209.138 35.809 209.138 35.0448V28.7761H214.475V56H210.392L209.353 53.4567H209.138C208.613 54.2687 207.908 54.9612 207.025 55.5343C206.141 56.0836 204.995 56.3582 203.586 56.3582ZM205.448 52.0955C206.929 52.0955 207.968 51.6657 208.565 50.806C209.162 49.9224 209.472 48.609 209.496 46.8657V46.2925C209.496 44.3821 209.198 42.9254 208.601 41.9224C208.028 40.9194 206.953 40.4179 205.377 40.4179C204.207 40.4179 203.287 40.9313 202.619 41.9582C201.95 42.9612 201.616 44.4179 201.616 46.3284C201.616 48.2388 201.95 49.6836 202.619 50.6627C203.287 51.6179 204.23 52.0955 205.448 52.0955Z" fill="#5268E7"/>
<path d="M235.129 56H229.791V30.4239H244.442V34.8657H235.129V41.4567H243.797V45.8985H235.129V56ZM257.403 40.9552L262.741 30.4239H268.579L260.09 46.0418V56H254.717V46.2209L246.227 30.4239H252.102L257.403 40.9552ZM281.368 56H269.726V52.9194L272.843 51.4866V34.9373L269.726 33.5045V30.4239H281.368V33.5045L278.252 34.9373V51.4866L281.368 52.9194V56Z" fill="#222222"/>
<path d="M129.746 70.6567C129.746 71.7612 129.557 72.7264 129.179 73.5522C128.811 74.3682 128.264 75.005 127.537 75.4627C126.811 75.9204 125.91 76.1493 124.836 76.1493C123.731 76.1493 122.811 75.9204 122.075 75.4627C121.348 75.005 120.806 74.3632 120.448 73.5373C120.09 72.7114 119.91 71.7463 119.91 70.6418C119.91 69.5473 120.09 68.592 120.448 67.7761C120.806 66.9602 121.348 66.3234 122.075 65.8657C122.811 65.408 123.736 65.1791 124.851 65.1791C125.915 65.1791 126.811 65.408 127.537 65.8657C128.264 66.3134 128.811 66.9502 129.179 67.7761C129.557 68.592 129.746 69.5522 129.746 70.6567ZM121.328 70.6567C121.328 72 121.612 73.0597 122.179 73.8358C122.746 74.602 123.632 74.9851 124.836 74.9851C126.05 74.9851 126.935 74.602 127.493 73.8358C128.05 73.0597 128.328 72 128.328 70.6567C128.328 69.3134 128.05 68.2637 127.493 67.5075C126.935 66.7413 126.055 66.3582 124.851 66.3582C123.647 66.3582 122.756 66.7413 122.179 67.5075C121.612 68.2637 121.328 69.3134 121.328 70.6567ZM135.78 67.8507C136.735 67.8507 137.456 68.0846 137.944 68.5522C138.432 69.01 138.675 69.7562 138.675 70.791V76H137.377V70.8806C137.377 69.597 136.78 68.9552 135.586 68.9552C134.7 68.9552 134.088 69.204 133.75 69.7015C133.412 70.199 133.243 70.9154 133.243 71.8507V76H131.929V68H132.989L133.183 69.0896H133.257C133.516 68.6716 133.874 68.3632 134.332 68.1642C134.79 67.9552 135.272 67.8507 135.78 67.8507ZM144.245 67.8507C144.932 67.8507 145.519 68 146.006 68.2985C146.504 68.597 146.882 69.0199 147.141 69.5672C147.409 70.1045 147.543 70.7363 147.543 71.4627V72.2537H142.066C142.086 73.1592 142.315 73.8507 142.752 74.3284C143.2 74.796 143.822 75.0299 144.618 75.0299C145.126 75.0299 145.573 74.9851 145.961 74.8955C146.359 74.796 146.767 74.6567 147.185 74.4776V75.6269C146.777 75.806 146.374 75.9353 145.976 76.0149C145.578 76.1045 145.106 76.1493 144.558 76.1493C143.802 76.1493 143.131 75.995 142.543 75.6866C141.966 75.3781 141.514 74.9204 141.185 74.3134C140.867 73.6965 140.708 72.9453 140.708 72.0597C140.708 71.1841 140.852 70.4328 141.141 69.806C141.439 69.1791 141.852 68.6965 142.379 68.3582C142.917 68.0199 143.539 67.8507 144.245 67.8507ZM144.23 68.9254C143.603 68.9254 143.106 69.1294 142.738 69.5373C142.379 69.9353 142.165 70.4925 142.096 71.209H146.17C146.16 70.5323 146.001 69.9851 145.693 69.5672C145.384 69.1393 144.897 68.9254 144.23 68.9254ZM158.666 73.791C158.666 74.5672 158.378 75.1542 157.8 75.5522C157.223 75.9502 156.447 76.1493 155.472 76.1493C154.915 76.1493 154.432 76.1045 154.024 76.0149C153.626 75.9254 153.273 75.801 152.965 75.6418V74.4478C153.283 74.607 153.666 74.7562 154.114 74.8955C154.572 75.0249 155.034 75.0896 155.502 75.0896C156.169 75.0896 156.651 74.9851 156.95 74.7761C157.248 74.5572 157.398 74.2687 157.398 73.9104C157.398 73.7114 157.343 73.5323 157.233 73.3731C157.124 73.2139 156.925 73.0547 156.636 72.8955C156.358 72.7363 155.955 72.5572 155.427 72.3582C154.91 72.1592 154.467 71.9602 154.099 71.7612C153.731 71.5622 153.447 71.3234 153.248 71.0448C153.049 70.7662 152.95 70.408 152.95 69.9701C152.95 69.2935 153.223 68.7711 153.771 68.403C154.328 68.0348 155.054 67.8507 155.95 67.8507C156.437 67.8507 156.89 67.9005 157.308 68C157.736 68.0896 158.134 68.2189 158.502 68.3881L158.054 69.4328C157.716 69.2935 157.363 69.1741 156.995 69.0746C156.626 68.9751 156.248 68.9254 155.86 68.9254C155.323 68.9254 154.91 69.0149 154.621 69.194C154.343 69.3632 154.203 69.597 154.203 69.8955C154.203 70.1144 154.268 70.3035 154.398 70.4627C154.527 70.6119 154.741 70.7612 155.039 70.9104C155.348 71.0498 155.756 71.2189 156.263 71.4179C156.771 71.607 157.203 71.801 157.562 72C157.92 72.199 158.194 72.4428 158.383 72.7313C158.572 73.01 158.666 73.3632 158.666 73.791ZM163.271 75.0746C163.47 75.0746 163.674 75.0597 163.883 75.0299C164.092 74.99 164.261 74.9502 164.39 74.9104V75.9104C164.251 75.9801 164.052 76.0348 163.793 76.0746C163.535 76.1244 163.286 76.1493 163.047 76.1493C162.629 76.1493 162.241 76.0796 161.883 75.9403C161.535 75.791 161.251 75.5373 161.032 75.1791C160.813 74.8209 160.704 74.3184 160.704 73.6716V69.0149H159.569V68.3881L160.719 67.8657L161.241 66.1642H162.017V68H164.331V69.0149H162.017V73.6418C162.017 74.1294 162.132 74.4925 162.36 74.7313C162.599 74.9602 162.903 75.0746 163.271 75.0746ZM172.947 71.9851C172.947 73.3085 172.609 74.3333 171.932 75.0597C171.266 75.7861 170.36 76.1493 169.216 76.1493C168.51 76.1493 167.878 75.99 167.321 75.6716C166.773 75.3433 166.34 74.8706 166.022 74.2537C165.704 73.6269 165.544 72.8706 165.544 71.9851C165.544 70.6617 165.878 69.6418 166.544 68.9254C167.211 68.209 168.117 67.8507 169.261 67.8507C169.987 67.8507 170.624 68.0149 171.171 68.3433C171.729 68.6617 172.161 69.1294 172.47 69.7463C172.788 70.3532 172.947 71.0995 172.947 71.9851ZM166.903 71.9851C166.903 72.9303 167.087 73.6816 167.455 74.2388C167.833 74.7861 168.43 75.0597 169.246 75.0597C170.052 75.0597 170.644 74.7861 171.022 74.2388C171.4 73.6816 171.589 72.9303 171.589 71.9851C171.589 71.0398 171.4 70.2985 171.022 69.7612C170.644 69.2239 170.047 68.9552 169.231 68.9552C168.415 68.9552 167.823 69.2239 167.455 69.7612C167.087 70.2985 166.903 71.0398 166.903 71.9851ZM178.835 67.8507C179.82 67.8507 180.611 68.194 181.208 68.8806C181.815 69.5672 182.119 70.602 182.119 71.9851C182.119 73.3483 181.815 74.3831 181.208 75.0896C180.611 75.796 179.815 76.1493 178.82 76.1493C178.203 76.1493 177.691 76.0348 177.283 75.806C176.885 75.5672 176.571 75.2935 176.342 74.9851H176.253C176.273 75.1542 176.293 75.3682 176.313 75.6269C176.333 75.8856 176.342 76.1095 176.342 76.2985V79.5821H175.029V68H176.104L176.283 69.0896H176.342C176.581 68.7413 176.895 68.4478 177.283 68.209C177.671 67.9701 178.188 67.8507 178.835 67.8507ZM178.596 68.9552C177.78 68.9552 177.203 69.1841 176.865 69.6418C176.536 70.0995 176.362 70.796 176.342 71.7313V71.9851C176.342 72.9701 176.502 73.7313 176.82 74.2687C177.148 74.796 177.75 75.0597 178.626 75.0597C179.114 75.0597 179.512 74.9254 179.82 74.6567C180.138 74.3881 180.372 74.0249 180.522 73.5672C180.681 73.0995 180.76 72.5672 180.76 71.9701C180.76 71.0547 180.581 70.3234 180.223 69.7761C179.875 69.2289 179.333 68.9552 178.596 68.9552ZM191.775 69.0149H189.76V76H188.447V69.0149H187.044V68.403L188.447 67.9552V67.4925C188.447 66.4577 188.676 65.7164 189.134 65.2687C189.591 64.8109 190.228 64.5821 191.044 64.5821C191.362 64.5821 191.651 64.6119 191.91 64.6716C192.178 64.7214 192.407 64.7811 192.596 64.8507L192.253 65.8806C192.094 65.8308 191.91 65.7811 191.701 65.7313C191.492 65.6816 191.278 65.6567 191.059 65.6567C190.621 65.6567 190.293 65.806 190.074 66.1045C189.865 66.393 189.76 66.8507 189.76 67.4776V68H191.775V69.0149ZM200.175 71.9851C200.175 73.3085 199.836 74.3333 199.16 75.0597C198.493 75.7861 197.587 76.1493 196.443 76.1493C195.737 76.1493 195.105 75.99 194.548 75.6716C194 75.3433 193.568 74.8706 193.249 74.2537C192.931 73.6269 192.772 72.8706 192.772 71.9851C192.772 70.6617 193.105 69.6418 193.772 68.9254C194.438 68.209 195.344 67.8507 196.488 67.8507C197.214 67.8507 197.851 68.0149 198.398 68.3433C198.956 68.6617 199.388 69.1294 199.697 69.7463C200.015 70.3532 200.175 71.0995 200.175 71.9851ZM194.13 71.9851C194.13 72.9303 194.314 73.6816 194.682 74.2388C195.06 74.7861 195.657 75.0597 196.473 75.0597C197.279 75.0597 197.871 74.7861 198.249 74.2388C198.627 73.6816 198.816 72.9303 198.816 71.9851C198.816 71.0398 198.627 70.2985 198.249 69.7612C197.871 69.2239 197.274 68.9552 196.458 68.9552C195.642 68.9552 195.05 69.2239 194.682 69.7612C194.314 70.2985 194.13 71.0398 194.13 71.9851ZM205.988 67.8507C206.137 67.8507 206.296 67.8607 206.465 67.8806C206.644 67.8905 206.798 67.9104 206.928 67.9403L206.764 69.1493C206.634 69.1194 206.49 69.0945 206.331 69.0746C206.182 69.0547 206.037 69.0448 205.898 69.0448C205.49 69.0448 205.107 69.1592 204.749 69.3881C204.391 69.607 204.102 69.9204 203.883 70.3284C203.674 70.7264 203.57 71.194 203.57 71.7313V76H202.256V68H203.331L203.48 69.4627H203.54C203.798 69.0249 204.132 68.6468 204.54 68.3284C204.948 68.01 205.43 67.8507 205.988 67.8507ZM215.329 67.8657C216.304 67.8657 217.025 68.0796 217.493 68.5075C217.96 68.9353 218.194 69.6169 218.194 70.5522V76H217.239L216.985 74.8657H216.926C216.577 75.3035 216.209 75.6269 215.821 75.8358C215.443 76.0448 214.916 76.1493 214.239 76.1493C213.513 76.1493 212.911 75.9602 212.433 75.5821C211.955 75.194 211.717 74.592 211.717 73.7761C211.717 72.9801 212.03 72.3682 212.657 71.9403C213.284 71.5025 214.249 71.2637 215.552 71.2239L216.911 71.1791V70.7015C216.911 70.0348 216.766 69.5721 216.478 69.3134C216.189 69.0547 215.781 68.9254 215.254 68.9254C214.836 68.9254 214.438 68.99 214.06 69.1194C213.682 69.2388 213.329 69.3781 213 69.5373L212.597 68.5522C212.946 68.3632 213.358 68.204 213.836 68.0746C214.314 67.9353 214.811 67.8657 215.329 67.8657ZM216.896 72.0896L215.717 72.1343C214.722 72.1741 214.03 72.3333 213.642 72.6119C213.264 72.8905 213.075 73.2836 213.075 73.791C213.075 74.2388 213.209 74.5672 213.478 74.7761C213.756 74.9851 214.11 75.0896 214.538 75.0896C215.214 75.0896 215.776 74.9055 216.224 74.5373C216.672 74.1592 216.896 73.5821 216.896 72.806V72.0896ZM221.979 76H220.665V64.6567H221.979V76ZM225.826 76H224.513V64.6567H225.826V76ZM125.015 86.3731C123.871 86.3731 122.97 86.7562 122.313 87.5224C121.657 88.2886 121.328 89.3383 121.328 90.6716C121.328 91.995 121.632 93.0448 122.239 93.8209C122.856 94.5871 123.776 94.9701 125 94.9701C125.468 94.9701 125.91 94.9303 126.328 94.8507C126.746 94.7711 127.154 94.6716 127.552 94.5522V95.7164C127.154 95.8657 126.741 95.9751 126.313 96.0448C125.896 96.1144 125.393 96.1493 124.806 96.1493C123.721 96.1493 122.816 95.9254 122.09 95.4776C121.363 95.0299 120.816 94.393 120.448 93.5672C120.09 92.7413 119.91 91.7711 119.91 90.6567C119.91 89.5821 120.104 88.6368 120.493 87.8209C120.891 86.995 121.473 86.3532 122.239 85.8955C123.005 85.4279 123.935 85.194 125.03 85.194C126.154 85.194 127.134 85.403 127.97 85.8209L127.433 86.9552C127.104 86.806 126.736 86.6716 126.328 86.5522C125.93 86.4328 125.493 86.3731 125.015 86.3731ZM138.885 90.6567C138.885 91.7612 138.696 92.7264 138.318 93.5522C137.95 94.3682 137.403 95.005 136.676 95.4627C135.95 95.9204 135.049 96.1493 133.975 96.1493C132.87 96.1493 131.95 95.9204 131.214 95.4627C130.487 95.005 129.945 94.3632 129.587 93.5373C129.228 92.7114 129.049 91.7463 129.049 90.6418C129.049 89.5473 129.228 88.592 129.587 87.7761C129.945 86.9602 130.487 86.3234 131.214 85.8657C131.95 85.408 132.875 85.1791 133.99 85.1791C135.054 85.1791 135.95 85.408 136.676 85.8657C137.403 86.3134 137.95 86.9502 138.318 87.7761C138.696 88.592 138.885 89.5522 138.885 90.6567ZM130.467 90.6567C130.467 92 130.751 93.0597 131.318 93.8358C131.885 94.602 132.771 94.9851 133.975 94.9851C135.189 94.9851 136.074 94.602 136.631 93.8358C137.189 93.0597 137.467 92 137.467 90.6567C137.467 89.3134 137.189 88.2637 136.631 87.5075C136.074 86.7413 135.194 86.3582 133.99 86.3582C132.786 86.3582 131.895 86.7413 131.318 87.5075C130.751 88.2637 130.467 89.3134 130.467 90.6567ZM148.609 85.3433L144.803 96H143.46L139.654 85.3433H141.057L143.46 92.1791C143.619 92.6169 143.753 93.0299 143.863 93.4179C143.972 93.796 144.062 94.1592 144.131 94.5075C144.201 94.1592 144.29 93.791 144.4 93.403C144.509 93.0149 144.644 92.597 144.803 92.1493L147.191 85.3433H148.609ZM153.051 96H149.2V95.2239L150.454 94.9403V86.4179L149.2 86.1194V85.3433H153.051V86.1194L151.797 86.4179V94.9403L153.051 95.2239V96ZM163.646 90.5672C163.646 92.3682 163.153 93.7264 162.168 94.6418C161.193 95.5473 159.83 96 158.079 96H155.108V85.3433H158.392C159.467 85.3433 160.397 85.5423 161.183 85.9403C161.969 86.3383 162.576 86.9254 163.004 87.7015C163.432 88.4677 163.646 89.4229 163.646 90.5672ZM162.228 90.6119C162.228 89.1891 161.875 88.1493 161.168 87.4925C160.472 86.8259 159.482 86.4925 158.198 86.4925H156.452V94.8507H157.899C160.785 94.8507 162.228 93.4378 162.228 90.6119ZM165.16 92.5821V91.4179H168.772V92.5821H165.16ZM174.672 96H173.388V88.5522C173.388 88.1244 173.393 87.7811 173.403 87.5224C173.413 87.2637 173.428 86.995 173.448 86.7164C173.289 86.8756 173.144 87.01 173.015 87.1194C172.886 87.2289 172.721 87.3682 172.522 87.5373L171.388 88.4627L170.701 87.5821L173.582 85.3433H174.672V96ZM185.676 89.8955C185.676 90.6617 185.606 91.4179 185.467 92.1642C185.337 92.9005 185.094 93.5721 184.735 94.1791C184.387 94.7761 183.89 95.2537 183.243 95.6119C182.606 95.9701 181.785 96.1493 180.78 96.1493C180.581 96.1493 180.347 96.1343 180.079 96.1045C179.82 96.0846 179.606 96.0498 179.437 96V94.8806C179.825 95.01 180.263 95.0746 180.75 95.0746C181.447 95.0746 182.019 94.9602 182.467 94.7313C182.924 94.5025 183.288 94.194 183.556 93.806C183.825 93.408 184.019 92.9502 184.138 92.4328C184.258 91.9055 184.327 91.3532 184.347 90.7761H184.258C184.039 91.1144 183.72 91.408 183.302 91.6567C182.895 91.8955 182.367 92.0149 181.72 92.0149C180.805 92.0149 180.064 91.7363 179.497 91.1791C178.939 90.6119 178.661 89.8159 178.661 88.791C178.661 88.0448 178.8 87.403 179.079 86.8657C179.367 86.3284 179.765 85.9154 180.273 85.6269C180.78 85.3383 181.377 85.194 182.064 85.194C182.74 85.194 183.352 85.3682 183.899 85.7164C184.447 86.0547 184.88 86.5721 185.198 87.2687C185.516 87.9552 185.676 88.8308 185.676 89.8955ZM182.064 86.2985C181.447 86.2985 180.939 86.5025 180.541 86.9104C180.153 87.3184 179.959 87.9403 179.959 88.7761C179.959 89.4627 180.123 90.005 180.452 90.403C180.79 90.791 181.307 90.9851 182.004 90.9851C182.482 90.9851 182.895 90.8905 183.243 90.7015C183.591 90.5025 183.86 90.2537 184.049 89.9552C184.248 89.6567 184.347 89.3483 184.347 89.0299C184.347 88.602 184.263 88.1791 184.094 87.7612C183.924 87.3433 183.671 86.995 183.332 86.7164C182.994 86.4378 182.571 86.2985 182.064 86.2985ZM192.273 85C192.472 85 192.646 85.0697 192.795 85.209C192.955 85.3383 193.034 85.5473 193.034 85.8358C193.034 86.1144 192.955 86.3234 192.795 86.4627C192.646 86.602 192.472 86.6716 192.273 86.6716C192.054 86.6716 191.87 86.602 191.721 86.4627C191.572 86.3234 191.497 86.1144 191.497 85.8358C191.497 85.5473 191.572 85.3383 191.721 85.209C191.87 85.0697 192.054 85 192.273 85ZM192.915 88V96H191.601V88H192.915ZM199.3 87.8507C200.255 87.8507 200.977 88.0846 201.464 88.5522C201.952 89.01 202.196 89.7562 202.196 90.791V96H200.897V90.8806C200.897 89.597 200.3 88.9552 199.106 88.9552C198.221 88.9552 197.609 89.204 197.27 89.7015C196.932 90.199 196.763 90.9154 196.763 91.8507V96H195.449V88H196.509L196.703 89.0896H196.778C197.036 88.6716 197.395 88.3632 197.852 88.1642C198.31 87.9552 198.793 87.8507 199.3 87.8507ZM208.362 89.0149H206.347V96H205.034V89.0149H203.631V88.403L205.034 87.9552V87.4925C205.034 86.4577 205.263 85.7164 205.72 85.2687C206.178 84.8109 206.815 84.5821 207.631 84.5821C207.949 84.5821 208.238 84.6119 208.497 84.6716C208.765 84.7214 208.994 84.7811 209.183 84.8507L208.84 85.8806C208.681 85.8308 208.497 85.7811 208.288 85.7313C208.079 85.6816 207.865 85.6567 207.646 85.6567C207.208 85.6567 206.88 85.806 206.661 86.1045C206.452 86.393 206.347 86.8507 206.347 87.4776V88H208.362V89.0149ZM216.762 91.9851C216.762 93.3085 216.423 94.3333 215.747 95.0597C215.08 95.7861 214.174 96.1493 213.03 96.1493C212.324 96.1493 211.692 95.99 211.135 95.6716C210.587 95.3433 210.155 94.8706 209.836 94.2537C209.518 93.6269 209.359 92.8706 209.359 91.9851C209.359 90.6617 209.692 89.6418 210.359 88.9254C211.025 88.209 211.931 87.8507 213.075 87.8507C213.801 87.8507 214.438 88.0149 214.985 88.3433C215.543 88.6617 215.975 89.1294 216.284 89.7463C216.602 90.3532 216.762 91.0995 216.762 91.9851ZM210.717 91.9851C210.717 92.9303 210.901 93.6816 211.269 94.2388C211.647 94.7861 212.244 95.0597 213.06 95.0597C213.866 95.0597 214.458 94.7861 214.836 94.2388C215.214 93.6816 215.403 92.9303 215.403 91.9851C215.403 91.0398 215.214 90.2985 214.836 89.7612C214.458 89.2239 213.861 88.9552 213.045 88.9552C212.229 88.9552 211.637 89.2239 211.269 89.7612C210.901 90.2985 210.717 91.0398 210.717 91.9851ZM222.575 87.8507C222.724 87.8507 222.883 87.8607 223.052 87.8806C223.231 87.8905 223.385 87.9104 223.515 87.9403L223.351 89.1493C223.221 89.1194 223.077 89.0945 222.918 89.0746C222.769 89.0547 222.624 89.0448 222.485 89.0448C222.077 89.0448 221.694 89.1592 221.336 89.3881C220.977 89.607 220.689 89.9204 220.47 90.3284C220.261 90.7264 220.157 91.194 220.157 91.7313V96H218.843V88H219.918L220.067 89.4627H220.127C220.385 89.0249 220.719 88.6468 221.127 88.3284C221.535 88.01 222.017 87.8507 222.575 87.8507ZM233.785 87.8507C234.69 87.8507 235.367 88.0846 235.815 88.5522C236.262 89.01 236.486 89.7562 236.486 90.791V96H235.188V90.8507C235.188 89.5871 234.645 88.9552 233.561 88.9552C232.785 88.9552 232.228 89.1791 231.889 89.6269C231.561 90.0746 231.397 90.7264 231.397 91.5821V96H230.098V90.8507C230.098 89.5871 229.551 88.9552 228.456 88.9552C227.65 88.9552 227.093 89.204 226.785 89.7015C226.476 90.199 226.322 90.9154 226.322 91.8507V96H225.009V88H226.068L226.262 89.0896H226.337C226.586 88.6716 226.919 88.3632 227.337 88.1642C227.765 87.9552 228.218 87.8507 228.695 87.8507C229.949 87.8507 230.765 88.2985 231.143 89.194H231.218C231.486 88.7363 231.849 88.398 232.307 88.1791C232.775 87.9602 233.267 87.8507 233.785 87.8507ZM241.987 87.8657C242.962 87.8657 243.684 88.0796 244.151 88.5075C244.619 88.9353 244.853 89.6169 244.853 90.5522V96H243.898L243.644 94.8657H243.584C243.236 95.3035 242.868 95.6269 242.48 95.8358C242.102 96.0448 241.574 96.1493 240.898 96.1493C240.171 96.1493 239.569 95.9602 239.092 95.5821C238.614 95.194 238.375 94.592 238.375 93.7761C238.375 92.9801 238.689 92.3682 239.316 91.9403C239.943 91.5025 240.908 91.2637 242.211 91.2239L243.569 91.1791V90.7015C243.569 90.0348 243.425 89.5721 243.137 89.3134C242.848 89.0547 242.44 88.9254 241.913 88.9254C241.495 88.9254 241.097 88.99 240.719 89.1194C240.341 89.2388 239.987 89.3781 239.659 89.5373L239.256 88.5522C239.604 88.3632 240.017 88.204 240.495 88.0746C240.972 87.9353 241.47 87.8657 241.987 87.8657ZM243.554 92.0896L242.375 92.1343C241.38 92.1741 240.689 92.3333 240.301 92.6119C239.923 92.8905 239.734 93.2836 239.734 93.791C239.734 94.2388 239.868 94.5672 240.137 94.7761C240.415 94.9851 240.768 95.0896 241.196 95.0896C241.873 95.0896 242.435 94.9055 242.883 94.5373C243.331 94.1592 243.554 93.5821 243.554 92.806V92.0896ZM249.995 95.0746C250.194 95.0746 250.398 95.0597 250.607 95.0299C250.816 94.99 250.986 94.9502 251.115 94.9104V95.9104C250.976 95.9801 250.777 96.0348 250.518 96.0746C250.259 96.1244 250.01 96.1493 249.772 96.1493C249.354 96.1493 248.966 96.0796 248.607 95.9403C248.259 95.791 247.976 95.5373 247.757 95.1791C247.538 94.8209 247.428 94.3184 247.428 93.6716V89.0149H246.294V88.3881L247.443 87.8657L247.966 86.1642H248.742V88H251.055V89.0149H248.742V93.6418C248.742 94.1294 248.856 94.4925 249.085 94.7313C249.324 94.9602 249.627 95.0746 249.995 95.0746ZM253.388 85C253.587 85 253.762 85.0697 253.911 85.209C254.07 85.3383 254.15 85.5473 254.15 85.8358C254.15 86.1144 254.07 86.3234 253.911 86.4627C253.762 86.602 253.587 86.6716 253.388 86.6716C253.169 86.6716 252.985 86.602 252.836 86.4627C252.687 86.3234 252.612 86.1144 252.612 85.8358C252.612 85.5473 252.687 85.3383 252.836 85.209C252.985 85.0697 253.169 85 253.388 85ZM254.03 88V96H252.717V88H254.03ZM263.52 91.9851C263.52 93.3085 263.182 94.3333 262.505 95.0597C261.838 95.7861 260.933 96.1493 259.789 96.1493C259.082 96.1493 258.45 95.99 257.893 95.6716C257.346 95.3433 256.913 94.8706 256.595 94.2537C256.276 93.6269 256.117 92.8706 256.117 91.9851C256.117 90.6617 256.45 89.6418 257.117 88.9254C257.784 88.209 258.689 87.8507 259.833 87.8507C260.56 87.8507 261.197 88.0149 261.744 88.3433C262.301 88.6617 262.734 89.1294 263.042 89.7463C263.361 90.3532 263.52 91.0995 263.52 91.9851ZM257.475 91.9851C257.475 92.9303 257.659 93.6816 258.027 94.2388C258.406 94.7861 259.003 95.0597 259.818 95.0597C260.624 95.0597 261.216 94.7861 261.595 94.2388C261.973 93.6816 262.162 92.9303 262.162 91.9851C262.162 91.0398 261.973 90.2985 261.595 89.7612C261.216 89.2239 260.619 88.9552 259.804 88.9552C258.988 88.9552 258.396 89.2239 258.027 89.7612C257.659 90.2985 257.475 91.0398 257.475 91.9851ZM269.452 87.8507C270.408 87.8507 271.129 88.0846 271.616 88.5522C272.104 89.01 272.348 89.7562 272.348 90.791V96H271.049V90.8806C271.049 89.597 270.452 88.9552 269.258 88.9552C268.373 88.9552 267.761 89.204 267.422 89.7015C267.084 90.199 266.915 90.9154 266.915 91.8507V96H265.602V88H266.661L266.855 89.0896H266.93C267.189 88.6716 267.547 88.3632 268.005 88.1642C268.462 87.9552 268.945 87.8507 269.452 87.8507ZM274.634 95.194C274.634 94.8259 274.723 94.5672 274.903 94.4179C275.082 94.2687 275.296 94.194 275.544 94.194C275.803 94.194 276.022 94.2687 276.201 94.4179C276.39 94.5672 276.485 94.8259 276.485 95.194C276.485 95.5522 276.39 95.8109 276.201 95.9701C276.022 96.1294 275.803 96.209 275.544 96.209C275.296 96.209 275.082 96.1294 274.903 95.9701C274.723 95.8109 274.634 95.5522 274.634 95.194Z" fill="black"/>
<g filter="url(#filter0_d)">
<path d="M58 108C85.6142 108 108 85.6142 108 58C108 30.3858 85.6142 8 58 8C30.3858 8 8 30.3858 8 58C8 85.6142 30.3858 108 58 108Z" fill="white"/>
<path d="M63.0001 47.2857L57.8215 52.8214C55.9856 54.621 53.5173 55.629 50.9465 55.629C48.3757 55.629 45.9074 54.621 44.0715 52.8214L43.7144 52.2857L55.6786 39.9643C57.2304 38.327 59.0995 37.023 61.1719 36.1319C63.2442 35.2408 65.4764 34.7812 67.7322 34.7812C69.988 34.7812 72.2202 35.2408 74.2926 36.1319C76.3649 37.023 78.234 38.327 79.7858 39.9643C82.4972 42.8031 84.2084 46.449 84.6596 50.3486C85.1108 54.2482 84.2773 58.1885 82.2858 61.5714" stroke="#222222" stroke-width="4.53225" stroke-linecap="square"/>
<path d="M65.1428 55.1429L73.7142 64.0714C75.0992 65.475 75.8757 67.3675 75.8757 69.3393C75.8757 71.3111 75.0992 73.2036 73.7142 74.6072L69.7856 78.7143C67.1481 81.4059 63.5538 82.9463 59.7856 83C55.9634 82.9547 52.3105 81.4166 49.6071 78.7143L36.2142 64.6072C33.0483 61.2861 31.2822 56.874 31.2822 52.2857C31.2822 47.6975 33.0483 43.2853 36.2142 39.9643C37.6745 38.3316 39.4636 37.0262 41.464 36.1337C43.4644 35.2412 45.6309 34.7819 47.8213 34.7857" stroke="#5268E7" stroke-width="4.53225" stroke-linecap="square"/>
<path d="M72.2855 75.8572L63.3569 66.9286" stroke="#5268E7" stroke-width="4.53225"/>
<path d="M66.9286 81.2143L58 72.2857" stroke="#5268E7" stroke-width="4.53225"/>
</g>
<defs>
<filter id="filter0_d" x="0.537313" y="0.537313" width="114.925" height="114.925" filterUnits="userSpaceOnUse" color-interpolation-filters="sRGB">
<feFlood flood-opacity="0" result="BackgroundImageFix"/>
<feColorMatrix in="SourceAlpha" type="matrix" values="0 0 0 0 0 0 0 0 0 0 0 0 0 0 0 0 0 0 127 0"/>
<feOffset/>
<feGaussianBlur stdDeviation="3.73134"/>
<feColorMatrix type="matrix" values="0 0 0 0 0 0 0 0 0 0 0 0 0 0 0 0 0 0 0.25 0"/>
<feBlend mode="normal" in2="BackgroundImageFix" result="effect1_dropShadow"/>
<feBlend mode="normal" in="SourceGraphic" in2="effect1_dropShadow" result="shape"/>
</filter>
</defs>
</svg>
