<svg width="20" height="19" viewBox="0 0 20 19" fill="none" xmlns="http://www.w3.org/2000/svg">
<path d="M19.0001 13.7748V5.2248C19.0001 4.4363 18.3301 3.7998 17.5001 3.7998H3.49011C2.66011 3.7998 1.99011 4.4363 1.99011 5.2248V13.7748C1.99011 14.5633 2.66011 15.1998 3.49011 15.1998H17.5001C18.3301 15.1998 19.0001 14.5633 19.0001 13.7748ZM17.6901 5.1203C18.0201 5.4338 17.8401 5.7568 17.6601 5.9183L13.6001 9.4523L17.5001 13.3093C17.6201 13.4423 17.7001 13.6513 17.5601 13.7938C17.4301 13.9458 17.1301 13.9363 17.0001 13.8413L12.6301 10.2978L10.4901 12.1503L8.36011 10.2978L3.99011 13.8413C3.86011 13.9363 3.56011 13.9458 3.43011 13.7938C3.29011 13.6513 3.37011 13.4423 3.49011 13.3093L7.39011 9.4523L3.33011 5.9183C3.15011 5.7568 2.97011 5.4338 3.30011 5.1203C3.63011 4.8068 3.97011 4.9588 4.25011 5.1868L10.4901 9.9748L16.7401 5.1868C17.0201 4.9588 17.3601 4.8068 17.6901 5.1203Z" fill="#5D636F"/>
</svg>
