<svg width="22" height="22" viewBox="0 0 22 22" fill="none" xmlns="http://www.w3.org/2000/svg">
<path d="M11 0C10.7604 1.56138e-05 10.5303 0.0938437 10.359 0.261393L0.359863 8.43978C0.348314 8.44846 0.336972 8.45742 0.325846 8.46663L0.291829 8.49528V8.49707C0.199891 8.58272 0.126543 8.68636 0.0763403 8.80155C0.0261379 8.91673 0.000153152 9.04101 0 9.16667C0 9.40978 0.0965771 9.64294 0.268485 9.81485C0.440394 9.98676 0.673552 10.0833 0.916667 10.0833H1.83333V20.1667C1.83333 21.1796 2.65375 22 3.66667 22H18.3333C19.3463 22 20.1667 21.1796 20.1667 20.1667V10.0833H21.0833C21.3264 10.0833 21.5596 9.98676 21.7315 9.81485C21.9034 9.64294 22 9.40978 22 9.16667C22.0001 9.04071 21.9742 8.91609 21.924 8.80058C21.8738 8.68506 21.8003 8.58114 21.7082 8.49528L21.6938 8.48454C21.6737 8.46631 21.6528 8.44899 21.6312 8.43262L20.1667 7.23486V3.66667C20.1667 3.16067 19.756 2.75 19.25 2.75H18.3333C17.8273 2.75 17.4167 3.16067 17.4167 3.66667V4.98617L11.6213 0.24528C11.4524 0.088299 11.2306 0.00071989 11 0V0ZM13.75 11.9167H17.4167V19.25H13.75V11.9167Z" fill="white"/>
</svg>
