<?xml version="1.0" encoding="UTF-8"?>
<svg xmlns="http://www.w3.org/2000/svg" xmlns:xlink="http://www.w3.org/1999/xlink" width="45pt" height="45pt" viewBox="0 0 45 45" version="1.1">
<g id="surface1">
<path style=" stroke:none;fill-rule:nonzero;fill:rgb(32.156863%,40.784314%,90.588235%);fill-opacity:1;" d="M 36.273438 0.773438 C 31.65625 0.773438 27.902344 4.421875 27.902344 8.898438 C 27.902344 13.375 31.65625 17.023438 36.273438 17.023438 C 40.886719 17.023438 44.644531 13.375 44.644531 8.898438 C 44.644531 4.421875 40.886719 0.773438 36.273438 0.773438 Z M 36.273438 11.609375 C 34.730469 11.609375 33.480469 10.394531 33.480469 8.898438 C 33.480469 7.402344 34.730469 6.191406 36.273438 6.191406 C 37.8125 6.191406 39.0625 7.402344 39.0625 8.898438 C 39.0625 10.394531 37.8125 11.609375 36.273438 11.609375 Z M 22.320312 10.25 C 22.320312 5.011719 17.953125 0.773438 12.554688 0.773438 C 7.160156 0.773438 2.789062 5.011719 2.789062 10.25 L 2.789062 24.339844 C 1.074219 26.433594 0 29.042969 0 31.917969 C 0 38.644531 5.621094 44.101562 12.554688 44.101562 C 19.488281 44.101562 25.113281 38.644531 25.113281 31.917969 C 25.113281 29.042969 24.039062 26.425781 22.320312 24.339844 Z M 12.554688 38.6875 C 8.710938 38.6875 5.582031 35.652344 5.582031 31.917969 C 5.582031 29.757812 6.644531 27.777344 8.371094 26.519531 L 8.371094 10.25 C 8.371094 8.007812 10.242188 6.191406 12.554688 6.191406 C 14.867188 6.191406 16.742188 8.007812 16.742188 10.25 L 16.742188 26.519531 C 18.46875 27.769531 19.53125 29.757812 19.53125 31.917969 C 19.53125 35.652344 16.398438 38.6875 12.554688 38.6875 Z M 13.949219 28.101562 L 13.949219 10.25 C 13.949219 9.507812 13.324219 8.898438 12.554688 8.898438 C 11.789062 8.898438 11.160156 9.507812 11.160156 10.25 L 11.160156 28.101562 C 9.539062 28.660156 8.371094 30.148438 8.371094 31.917969 C 8.371094 34.160156 10.242188 35.980469 12.554688 35.980469 C 14.867188 35.980469 16.742188 34.160156 16.742188 31.917969 C 16.742188 30.148438 15.574219 28.660156 13.949219 28.101562 Z M 13.949219 28.101562 "/>
</g>
</svg>
