<svg width="45" height="52" viewBox="0 0 45 52" fill="none" xmlns="http://www.w3.org/2000/svg">
<path d="M0.716132 49.9771C0.60905 50.9248 1.32942 51.7528 2.26395 51.7528L5.40827 51.7628C6.19678 51.7628 6.85874 51.1742 6.96582 50.3761C7.03396 49.8873 7.14104 49.2688 7.2968 48.5705H37.6983C37.8541 49.2589 37.9806 49.8873 38.039 50.3761C38.1461 51.1742 38.8081 51.7728 39.5966 51.7628L42.7409 51.7528C43.6754 51.7528 44.4055 50.9248 44.2887 49.9771C43.8409 46.1963 41.7966 37.1084 32.7141 29.2574C31.0008 30.4944 29.1026 31.6716 27.0193 32.7889C27.6229 33.2477 28.1291 33.7266 28.6742 34.2054H16.2527C18.3262 32.3998 20.8281 30.654 23.914 29.0779C40.6674 20.5486 43.7436 7.25089 44.3082 2.47249C44.4153 1.52479 43.6949 0.696805 42.7604 0.696805L39.6063 0.686829C38.8178 0.686829 38.1558 1.2754 38.0488 2.07346C37.9806 2.56227 37.8735 3.18077 37.7178 3.87908H7.30653C7.15078 3.18077 7.0437 2.57225 6.97555 2.07346C6.86847 1.2754 6.20651 0.676854 5.418 0.686829L2.27369 0.696805C1.33915 0.696805 0.60905 1.52479 0.716132 2.47249C1.22234 6.7521 3.7631 17.8252 16.2819 26.2248C3.77283 34.6244 1.22234 45.6975 0.716132 49.9771ZM22.5122 22.5936C20.0687 21.2269 17.9953 19.7605 16.2527 18.2442H28.7618C27.0291 19.7605 24.9556 21.2369 22.5122 22.5936ZM35.2744 10.2636C34.7098 11.3011 34.0283 12.3685 33.2301 13.4558H11.804C10.996 12.3685 10.3146 11.3011 9.75968 10.2636H35.2744ZM9.74995 42.186C10.3146 41.1486 10.996 40.0812 11.7942 38.9938H33.1522C33.9602 40.0812 34.6514 41.1486 35.216 42.186H9.74995Z" fill="#5268E7" fill-opacity="0.4"/>
</svg>
