<svg width="29" height="30" viewBox="0 0 29 30" fill="none" xmlns="http://www.w3.org/2000/svg">
<path d="M23.5625 0.518066C20.5662 0.518066 18.125 2.95928 18.125 5.95557C18.125 8.95186 20.5662 11.3931 23.5625 11.3931C26.5588 11.3931 29 8.95186 29 5.95557C29 2.95928 26.5588 0.518066 23.5625 0.518066ZM23.5625 7.76807C22.56 7.76807 21.75 6.95811 21.75 5.95557C21.75 4.95303 22.56 4.14307 23.5625 4.14307C24.565 4.14307 25.375 4.95303 25.375 5.95557C25.375 6.95811 24.565 7.76807 23.5625 7.76807ZM14.5 6.86182C14.5 3.35576 11.6623 0.518066 8.15625 0.518066C4.6502 0.518066 1.8125 3.35576 1.8125 6.86182V16.2925C0.69668 17.6915 0 19.436 0 21.3618C0 25.8647 3.65332 29.5181 8.15625 29.5181C12.6592 29.5181 16.3125 25.8647 16.3125 21.3618C16.3125 19.436 15.6158 17.6858 14.5 16.2925V6.86182ZM8.15625 25.8931C5.6584 25.8931 3.625 23.8597 3.625 21.3618C3.625 19.9175 4.31602 18.5921 5.4375 17.7481V6.86182C5.4375 5.36084 6.65527 4.14307 8.15625 4.14307C9.65723 4.14307 10.875 5.36084 10.875 6.86182V17.7481C11.9965 18.5864 12.6875 19.9175 12.6875 21.3618C12.6875 23.8597 10.6541 25.8931 8.15625 25.8931ZM9.0625 18.8073V6.86182C9.0625 6.36338 8.65469 5.95557 8.15625 5.95557C7.65781 5.95557 7.25 6.36338 7.25 6.86182V18.8073C6.19648 19.1812 5.4375 20.178 5.4375 21.3618C5.4375 22.8628 6.65527 24.0806 8.15625 24.0806C9.65723 24.0806 10.875 22.8628 10.875 21.3618C10.875 20.178 10.116 19.1812 9.0625 18.8073Z" fill="#5268E7"/>
</svg>
