<svg width="25" height="25" viewBox="0 0 25 25" fill="none" xmlns="http://www.w3.org/2000/svg">
<path d="M11.0937 18.5936C10.9375 18.9061 10.625 19.0624 10.4687 19.0624C10.3125 19.0624 10.3125 19.0624 10.3125 18.9061V14.6874H9.375V18.7499C9.375 19.0624 9.375 19.3749 9.53125 19.5311C9.6875 19.8436 9.84375 19.8436 10.1562 19.8436C10.4687 19.8436 10.7812 19.6874 11.25 19.2186V19.8436H12.1875V14.6874H11.0937V18.5936Z" fill="white"/>
<path d="M17.6563 14.5312C17.1875 14.5312 16.875 14.6875 16.5625 15C16.4063 15.3125 16.25 15.625 16.25 16.25V18.125C16.25 18.75 16.4063 19.0625 16.5625 19.375C16.875 19.6875 17.1875 19.8438 17.6563 19.8438C18.125 19.8438 18.5938 19.6875 18.75 19.2188C18.9063 19.0625 18.9063 18.9062 18.9063 18.5937V17.8125H17.9688V18.4375C17.9688 18.75 17.8125 18.75 17.5 18.75C17.1875 18.75 17.0313 18.4375 17.0313 17.9688V17.0312H18.9063V15.9375C18.9063 15.3125 18.75 15 18.5938 14.6875C18.5938 14.8437 18.125 14.5312 17.6563 14.5312ZM18.125 16.5625H17.1875V16.0938C17.1875 15.625 17.3438 15.3125 17.6563 15.3125C17.9688 15.3125 18.125 15.625 18.125 16.0938V16.5625Z" fill="white"/>
<path d="M14.6875 14.5312C14.375 14.5312 14.0625 14.8437 13.75 15.1562V12.8125H12.8125V19.6875H13.75V19.2187C14.0625 19.5312 14.375 19.8437 14.6875 19.8437C15 19.8437 15.3125 19.6875 15.4687 19.2187C15.4687 19.0625 15.625 18.5937 15.625 18.125V16.0937C15.625 15.625 15.625 15.3125 15.4687 15C15.3125 14.8437 15.1562 14.5312 14.6875 14.5312ZM14.6875 18.2812C14.6875 18.75 14.5313 18.9062 14.2188 18.9062C14.0625 18.9062 13.9063 18.9062 13.75 18.75V15.625C13.9063 15.4687 14.0625 15.4687 14.2188 15.4687C14.5313 15.4687 14.6875 15.7812 14.6875 16.25V18.2812Z" fill="white"/>
<path d="M5.9375 13.9062H7.03125V19.8437H8.125V13.9062H9.21875V12.8125H5.9375V13.9062Z" fill="white"/>
<path d="M12.3438 9.37513C12.6563 9.37513 12.8125 9.06263 12.8125 8.59388V6.40638C12.8125 5.93763 12.6563 5.62513 12.3438 5.62513C12.0313 5.62513 11.875 5.93763 11.875 6.40638V8.59388C11.875 9.06263 12.0313 9.37513 12.3438 9.37513Z" fill="white"/>
<path d="M0 0V25H25V0H0ZM14.5312 4.84375H15.4687V9.0625C15.4687 9.21875 15.4688 9.375 15.625 9.375C15.7812 9.375 15.9375 9.21875 16.25 8.90625V4.84375H17.1875V10H16.25V9.53125C15.9375 10 15.4688 10.1562 15.1562 10.1562C14.8438 10.1562 14.6875 10 14.5312 9.84375C14.5312 9.6875 14.375 9.375 14.375 9.0625V4.84375H14.5312ZM10.9375 6.5625C10.9375 6.09375 10.9375 5.625 11.25 5.3125C11.5625 5 11.875 4.84375 12.3438 4.84375C12.8125 4.84375 13.125 5 13.4375 5.3125C13.5938 5.625 13.75 5.9375 13.75 6.5625V8.4375C13.75 9.0625 13.5938 9.375 13.4375 9.6875C13.125 10 12.8125 10.1562 12.3438 10.1562C11.875 10.1562 11.5625 10 11.25 9.6875C10.9375 9.375 10.9375 9.0625 10.9375 8.4375V6.5625ZM8.28125 3.125L9.0625 5.9375L9.84375 3.125H10.9375L9.6875 7.34375V10.1562H8.59375V7.34375C8.4375 6.71875 8.28125 6.09375 7.96875 5C7.65625 4.375 7.5 3.75 7.1875 3.125H8.28125ZM20 20.1562C19.8438 20.9375 19.0625 21.5625 18.2812 21.7188C16.4062 21.875 14.375 21.875 12.5 21.875C10.625 21.875 8.59375 21.875 6.71875 21.7188C5.9375 21.5625 5.15625 21.0938 5 20.1562C4.6875 18.9062 4.6875 17.6562 4.6875 16.4062C4.6875 15.3125 4.6875 14.0625 5 12.8125C5.15625 12.0312 5.9375 11.4062 6.71875 11.25C8.59375 11.0938 10.625 11.0938 12.5 11.0938C14.375 11.0938 16.4062 11.0938 18.2812 11.25C19.0625 11.4062 19.8438 11.875 20 12.8125C20.3125 14.0625 20.3125 15.3125 20.3125 16.4062C20.3125 17.6562 20.3125 18.9062 20 20.1562Z" fill="white"/>
</svg>
