<svg width="21" height="21" viewBox="0 0 21 21" fill="none" xmlns="http://www.w3.org/2000/svg">
<path d="M10.4997 7.91677C9.98874 7.91677 9.48928 8.06828 9.06445 8.35214C8.63962 8.636 8.30851 9.03946 8.11299 9.5115C7.91746 9.98355 7.8663 10.503 7.96598 11.0041C8.06566 11.5052 8.3117 11.9655 8.67298 12.3268C9.03427 12.6881 9.49457 12.9341 9.99569 13.0338C10.4968 13.1335 11.0162 13.0823 11.4883 12.8868C11.9603 12.6913 12.3638 12.3602 12.6476 11.9353C12.9315 11.5105 13.083 11.011 13.083 10.5001C13.083 10.1609 13.0162 9.82493 12.8864 9.5115C12.7565 9.19808 12.5663 8.91329 12.3264 8.67341C12.0865 8.43353 11.8017 8.24324 11.4883 8.11341C11.1748 7.98359 10.8389 7.91677 10.4997 7.91677ZM20.8434 5.36469C20.8379 4.56027 20.6898 3.7632 20.4059 3.01052C20.1968 2.45975 19.8733 1.95957 19.4568 1.543C19.0402 1.12643 18.54 0.802933 17.9893 0.593852C17.2366 0.30996 16.4395 0.161832 15.6351 0.156352C14.2913 0.083435 13.8955 0.0834351 10.4997 0.0834351C7.10384 0.0834351 6.70801 0.083435 5.36426 0.156352C4.55984 0.161832 3.76277 0.30996 3.01009 0.593852C2.45932 0.802933 1.95915 1.12643 1.54258 1.543C1.126 1.95957 0.802505 2.45975 0.593424 3.01052C0.309533 3.7632 0.161405 4.56027 0.155924 5.36469C0.0830077 6.70844 0.0830078 7.10427 0.0830078 10.5001C0.0830078 13.8959 0.0830077 14.2918 0.155924 15.6355C0.167137 16.4428 0.315064 17.2423 0.593424 18.0001C0.801579 18.5484 1.12481 19.0456 1.54134 19.4584C1.95613 19.8775 2.45737 20.201 3.01009 20.4064C3.76277 20.6902 4.55984 20.8384 5.36426 20.8439C6.70801 20.9168 7.10384 20.9168 10.4997 20.9168C13.8955 20.9168 14.2913 20.9168 15.6351 20.8439C16.4395 20.8384 17.2366 20.6902 17.9893 20.4064C18.542 20.201 19.0432 19.8775 19.458 19.4584C19.8745 19.0456 20.1978 18.5484 20.4059 18.0001C20.6895 17.2437 20.8376 16.4433 20.8434 15.6355C20.9163 14.2918 20.9163 13.8959 20.9163 10.5001C20.9163 7.10427 20.9163 6.70844 20.8434 5.36469ZM18.1976 13.698C18.1642 14.3408 18.027 14.974 17.7913 15.573C17.5891 16.0727 17.2885 16.5266 16.9073 16.9078C16.5262 17.2889 16.0723 17.5895 15.5726 17.7918C14.9679 18.0143 14.3312 18.1374 13.6872 18.1564H7.31217C6.66814 18.1374 6.03143 18.0143 5.42676 17.7918C4.9102 17.5998 4.44371 17.2936 4.06218 16.8959C3.68474 16.5222 3.39326 16.0708 3.20801 15.573C2.98463 14.969 2.86489 14.3315 2.85384 13.6876V10.5001V7.3126C2.86489 6.66867 2.98463 6.03123 3.20801 5.42719C3.39997 4.91063 3.70621 4.44414 4.10384 4.0626C4.47919 3.68721 4.93016 3.39603 5.42676 3.20844C6.03143 2.98594 6.66814 2.86282 7.31217 2.84385H13.6872C14.3312 2.86282 14.9679 2.98594 15.5726 3.20844C16.0892 3.4004 16.5556 3.70664 16.9372 4.10427C17.3146 4.47797 17.6061 4.92941 17.7913 5.42719C18.0138 6.03186 18.137 6.66857 18.1559 7.3126V10.5001C18.1559 12.6459 18.2288 12.8647 18.1976 13.6876V13.698ZM16.5309 5.94802C16.4069 5.61154 16.2114 5.30598 15.9578 5.05241C15.7042 4.79884 15.3986 4.60329 15.0622 4.47927C14.6002 4.31912 14.1136 4.24155 13.6247 4.2501H7.37467C6.88329 4.2549 6.39662 4.3466 5.93717 4.52094C5.60585 4.63933 5.30352 4.82689 5.05028 5.07114C4.79704 5.3154 4.5987 5.61077 4.46842 5.9376C4.31715 6.40153 4.24325 6.88718 4.24967 7.3751V13.6251C4.26 14.1159 4.35152 14.6017 4.52051 15.0626C4.64453 15.3991 4.84008 15.7046 5.09365 15.9582C5.34722 16.2118 5.65278 16.4073 5.98926 16.5314C6.4337 16.6948 6.9014 16.7862 7.37467 16.8022H13.6247C14.1161 16.7974 14.6027 16.7057 15.0622 16.5314C15.3986 16.4073 15.7042 16.2118 15.9578 15.9582C16.2114 15.7046 16.4069 15.3991 16.5309 15.0626C16.7053 14.6032 16.797 14.1165 16.8018 13.6251V10.5001V7.3751C16.8021 6.88323 16.7102 6.39565 16.5309 5.9376V5.94802ZM10.4997 14.4793C9.97761 14.4793 9.46068 14.3763 8.97849 14.1762C8.4963 13.9761 8.05832 13.6828 7.68966 13.3132C7.32099 12.9435 7.02887 12.5048 6.83003 12.0221C6.6312 11.5394 6.52955 11.0222 6.53092 10.5001C6.53093 9.71266 6.76457 8.94291 7.20227 8.28832C7.63996 7.63372 8.26204 7.12371 8.98975 6.82285C9.71745 6.52198 10.5181 6.44379 11.2902 6.59817C12.0624 6.75256 12.7714 7.13257 13.3275 7.69011C13.8836 8.24765 14.2617 8.95764 14.4141 9.73021C14.5664 10.5028 14.4861 11.3032 14.1834 12.0301C13.8806 12.757 13.369 13.3777 12.7132 13.8137C12.0575 14.2497 11.2871 14.4813 10.4997 14.4793ZM14.6663 7.30219C14.4361 7.27781 14.223 7.16908 14.0681 6.99695C13.9132 6.82481 13.8275 6.60145 13.8275 6.36989C13.8275 6.13834 13.9132 5.91498 14.0681 5.74284C14.223 5.57071 14.4361 5.46198 14.6663 5.4376C14.8966 5.46198 15.1097 5.57071 15.2646 5.74284C15.4195 5.91498 15.5052 6.13834 15.5052 6.36989C15.5052 6.60145 15.4195 6.82481 15.2646 6.99695C15.1097 7.16908 14.8966 7.27781 14.6663 7.30219Z" fill="white"/>
</svg>
