<svg width="65" height="52" viewBox="0 0 65 52" fill="none" xmlns="http://www.w3.org/2000/svg">
<path d="M58.9904 0.536133H5.58845C2.64022 0.536133 0.24826 2.98194 0.24826 5.99655V46.0396C0.24826 49.0542 2.64022 51.5 5.58845 51.5H58.9904C61.9386 51.5 64.3306 49.0542 64.3306 46.0396V5.99655C64.3306 2.98194 61.9386 0.536133 58.9904 0.536133ZM58.9904 46.0396H33.9805C34.0806 45.5277 34.0695 46.4491 34.0695 43.4914C34.0695 39.8739 30.7207 36.9389 26.5932 36.9389C25.3917 36.9389 24.5128 37.849 21.609 37.849C18.6163 37.849 17.8931 36.9389 16.6248 36.9389C12.4973 36.9389 9.14858 39.8739 9.14858 43.4914C9.14858 46.4491 9.12633 45.5277 9.23758 46.0396H5.58845V13.2771H58.9904V46.0396ZM40.2997 36.9389H52.7602C53.2497 36.9389 53.6502 36.5294 53.6502 36.0288V34.2087C53.6502 33.7081 53.2497 33.2986 52.7602 33.2986H40.2997C39.8102 33.2986 39.4097 33.7081 39.4097 34.2087V36.0288C39.4097 36.5294 39.8102 36.9389 40.2997 36.9389ZM40.2997 29.6583H52.7602C53.2497 29.6583 53.6502 29.2488 53.6502 28.7483V26.9281C53.6502 26.4276 53.2497 26.0181 52.7602 26.0181H40.2997C39.8102 26.0181 39.4097 26.4276 39.4097 26.9281V28.7483C39.4097 29.2488 39.8102 29.6583 40.2997 29.6583ZM40.2997 22.3778H52.7602C53.2497 22.3778 53.6502 21.9683 53.6502 21.4677V19.6476C53.6502 19.147 53.2497 18.7375 52.7602 18.7375H40.2997C39.8102 18.7375 39.4097 19.147 39.4097 19.6476V21.4677C39.4097 21.9683 39.8102 22.3778 40.2997 22.3778ZM21.609 33.2986C25.5363 33.2986 28.7293 30.0337 28.7293 26.0181C28.7293 22.0024 25.5363 18.7375 21.609 18.7375C17.6818 18.7375 14.4888 22.0024 14.4888 26.0181C14.4888 30.0337 17.6818 33.2986 21.609 33.2986Z" fill="#5268E7"/>
</svg>
