<svg width="21" height="21" viewBox="0 0 21 21" fill="none" xmlns="http://www.w3.org/2000/svg">
<path d="M19.4844 0.734314H1.51563C1.0835 0.734314 0.734375 1.08344 0.734375 1.51556V19.4843C0.734375 19.9164 1.0835 20.2656 1.51563 20.2656H19.4844C19.9165 20.2656 20.2656 19.9164 20.2656 19.4843V1.51556C20.2656 1.08344 19.9165 0.734314 19.4844 0.734314ZM6.52783 17.3774H3.62988V8.05609H6.52783V17.3774ZM5.08008 6.78168C4.74787 6.78168 4.42312 6.68317 4.14689 6.4986C3.87067 6.31403 3.65538 6.0517 3.52825 5.74478C3.40112 5.43786 3.36785 5.10013 3.43267 4.7743C3.49748 4.44847 3.65745 4.14918 3.89236 3.91427C4.12727 3.67936 4.42656 3.51939 4.75239 3.45458C5.07822 3.38977 5.41595 3.42303 5.72287 3.55016C6.02979 3.67729 6.29212 3.89258 6.47669 4.16881C6.66125 4.44503 6.75977 4.76978 6.75977 5.10199C6.75733 6.02972 6.00537 6.78168 5.08008 6.78168ZM17.3774 17.3774H14.4819V12.8437C14.4819 11.7621 14.4624 10.373 12.9756 10.373C11.4692 10.373 11.2373 11.5497 11.2373 12.7656V17.3774H8.34424V8.05609H11.1226V9.33051H11.1616C11.5474 8.59808 12.4922 7.82416 13.9033 7.82416C16.8379 7.82416 17.3774 9.75531 17.3774 12.2651V17.3774Z" fill="white"/>
</svg>
