<svg width="32" height="29" viewBox="0 0 32 29" fill="none" xmlns="http://www.w3.org/2000/svg">
<path d="M15.8075 6.49529L3.81343 17.3788C3.72451 17.4612 3.6109 17.4996 3.5132 17.568V28.0126C3.5132 28.2523 3.60572 28.4821 3.77041 28.6516C3.9351 28.821 4.15846 28.9162 4.39137 28.9162H27.2236C27.4565 28.9162 27.6799 28.821 27.8446 28.6516C28.0093 28.4821 28.1018 28.2523 28.1018 28.0126V17.5702C28.0085 17.5047 27.8976 17.4674 27.8131 17.3895L15.8075 6.49529ZM31.323 13.3447L17.2757 0.581134C16.8736 0.207095 16.3509 0 15.8089 0C15.2669 0 14.7441 0.207095 14.3421 0.581134L0.291438 13.3447C0.205609 13.424 0.135805 13.5199 0.0860149 13.627C0.0362246 13.7341 0.00742321 13.8502 0.00125598 13.9687C-0.00491125 14.0872 0.0116766 14.2059 0.0500718 14.3178C0.0884671 14.4297 0.147917 14.5328 0.225027 14.621L1.40012 15.9663C1.47719 16.0546 1.57042 16.1264 1.67447 16.1777C1.77853 16.2289 1.89138 16.2585 2.00657 16.2649C2.12176 16.2712 2.23703 16.2542 2.34581 16.2147C2.45459 16.1752 2.55473 16.114 2.64053 16.0346L15.2268 4.61069C15.3873 4.46505 15.5938 4.38469 15.8078 4.38469C16.0217 4.38469 16.2283 4.46505 16.3887 4.61069L28.975 16.0341C29.0608 16.1134 29.161 16.1746 29.2698 16.2141C29.3785 16.2536 29.4938 16.2707 29.609 16.2643C29.7242 16.258 29.837 16.2283 29.9411 16.1771C30.0451 16.1259 30.1384 16.0541 30.2154 15.9657L31.39 14.6205C31.5455 14.4421 31.6258 14.2076 31.6132 13.9683C31.6007 13.7291 31.4963 13.5048 31.323 13.3447Z" fill="#5268E7"/>
<rect x="10" y="24" width="12" height="2" fill="white"/>
<line x1="10.5" y1="24" x2="10.5" y2="22" stroke="white"/>
<line x1="21.5" y1="24" x2="21.5" y2="20" stroke="white"/>
</svg>
