<svg width="45" height="52" viewBox="0 0 45 52" fill="none" xmlns="http://www.w3.org/2000/svg">
<path d="M0.716071 49.8148C0.608989 50.7604 1.32936 51.5866 2.26389 51.5866L5.4082 51.5965C6.19671 51.5965 6.85867 51.0092 6.96575 50.2129C7.0339 49.7252 7.14098 49.108 7.29673 48.4113H37.6982C37.854 49.0981 37.9805 49.7252 38.0389 50.2129C38.146 51.0092 38.808 51.6065 39.5965 51.5965L42.7408 51.5866C43.6753 51.5866 44.4054 50.7604 44.2886 49.8148C43.8408 46.0423 41.7965 36.9743 32.7141 29.1406C31.0008 30.3748 29.1025 31.5494 27.0193 32.6642C27.6228 33.1221 28.129 33.5999 28.6742 34.0777H16.2527C18.3262 32.276 20.828 30.5341 23.9139 28.9614C40.6673 20.4508 43.7435 7.18231 44.3081 2.4144C44.4152 1.46879 43.6948 0.642614 42.7603 0.642614L39.6062 0.63266C38.8177 0.63266 38.1558 1.21994 38.0487 2.01625C37.9805 2.50399 37.8735 3.12113 37.7177 3.8179H7.30647C7.15071 3.12113 7.04363 2.51394 6.97549 2.01625C6.86841 1.21994 6.20645 0.622707 5.41794 0.63266L2.27362 0.642614C1.33909 0.642614 0.608989 1.46879 0.716071 2.4144C1.22228 6.68462 3.76303 17.7334 16.2819 26.1146C3.77277 34.4958 1.22228 45.5446 0.716071 49.8148ZM22.5121 22.4914C20.0687 21.1277 17.9952 19.6645 16.2527 18.1515H28.7618C27.029 19.6645 24.9555 21.1377 22.5121 22.4914ZM35.2743 10.1884C34.7097 11.2236 34.0282 12.2887 33.23 13.3736H11.8039C10.9959 12.2887 10.3145 11.2236 9.75962 10.1884H35.2743ZM9.74988 42.0408C10.3145 41.0056 10.9959 39.9405 11.7942 38.8556H33.1521C33.9601 39.9405 34.6513 41.0056 35.2159 42.0408H9.74988Z" fill="#5268E7"/>
</svg>
