<svg width="30" height="21" viewBox="0 0 30 21" fill="none" xmlns="http://www.w3.org/2000/svg">
<path d="M29.7675 18.375V2.625C29.7675 1.1725 28.595 0 27.1425 0H2.625C1.1725 0 0 1.1725 0 2.625V18.375C0 19.8275 1.1725 21 2.625 21H27.1425C28.595 21 29.7675 19.8275 29.7675 18.375ZM27.475 2.4325C28.0525 3.01 27.7375 3.605 27.4225 3.9025L20.3175 10.4125L27.1425 17.5175C27.3525 17.7625 27.4925 18.1475 27.2475 18.41C27.02 18.69 26.495 18.6725 26.2675 18.4975L18.62 11.97L14.875 15.3825L11.1475 11.97L3.5 18.4975C3.2725 18.6725 2.7475 18.69 2.52 18.41C2.275 18.1475 2.415 17.7625 2.625 17.5175L9.45 10.4125L2.345 3.9025C2.03 3.605 1.715 3.01 2.2925 2.4325C2.87 1.855 3.465 2.135 3.955 2.555L14.875 11.375L25.8125 2.555C26.3025 2.135 26.8975 1.855 27.475 2.4325Z" fill="#5268E7"/>
</svg>
