<svg width="51" height="59" viewBox="0 0 51 59" fill="none" xmlns="http://www.w3.org/2000/svg">
<path d="M25.6074 29.4679C33.4731 29.4679 39.8479 22.9352 39.8479 14.8748C39.8479 6.81435 33.4731 0.281647 25.6074 0.281647C17.7418 0.281647 11.3669 6.81435 11.3669 14.8748C11.3669 22.9352 17.7418 29.4679 25.6074 29.4679ZM12.2569 48.6214C12.2569 50.1377 13.4473 51.3576 14.927 51.3576C16.4067 51.3576 17.5971 50.1377 17.5971 48.6214C17.5971 47.1051 16.4067 45.8852 14.927 45.8852C13.4473 45.8852 12.2569 47.1051 12.2569 48.6214ZM36.2878 33.1846V38.771C40.3485 39.6147 43.408 43.3086 43.408 47.7093V52.4635C43.408 53.3299 42.8073 54.0824 41.9729 54.2534L38.3905 54.9831C37.9121 55.0857 37.4448 54.7665 37.3447 54.2648L36.9998 52.4749C36.8997 51.9846 37.2112 51.4944 37.7007 51.4032L39.8479 50.9586V47.7093C39.8479 40.5496 29.1675 40.2873 29.1675 47.9259V50.97L31.3147 51.4146C31.7931 51.5172 32.1046 51.996 32.0156 52.4863L31.6707 54.2762C31.5706 54.7665 31.1033 55.0857 30.625 54.9945L27.1538 54.5156C26.2749 54.3902 25.6185 53.6264 25.6185 52.7029V47.7093C25.6185 43.3086 28.678 39.6261 32.7388 38.771V33.6178C32.494 33.6976 32.2493 33.7432 32.0045 33.8344C30.0019 34.5527 27.8547 34.9517 25.6185 34.9517C23.3823 34.9517 21.2351 34.5527 19.2326 33.8344C18.4093 33.538 17.5749 33.3556 16.7182 33.2416V42.5447C19.2882 43.3314 21.1684 45.7484 21.1684 48.6328C21.1684 52.1557 18.3759 55.0173 14.9382 55.0173C11.5004 55.0173 8.70793 52.1557 8.70793 48.6328C8.70793 45.7484 10.5881 43.3314 13.1581 42.5447V33.3784C6.08234 34.5983 0.686523 40.846 0.686523 48.439V53.5466C0.686523 56.3626 2.92273 58.6542 5.6707 58.6542H45.5441C48.2921 58.6542 50.5283 56.3626 50.5283 53.5466V48.439C50.5283 40.2303 44.2091 33.5836 36.2878 33.1846V33.1846Z" fill="#5268E7" fill-opacity="0.4"/>
</svg>
