<svg width="51" height="59" viewBox="0 0 51 59" fill="none" xmlns="http://www.w3.org/2000/svg">
<path d="M25.6076 29.3572C33.4733 29.3572 39.8481 22.8388 39.8481 14.7961C39.8481 6.75332 33.4733 0.234955 25.6076 0.234955C17.742 0.234955 11.3671 6.75332 11.3671 14.7961C11.3671 22.8388 17.742 29.3572 25.6076 29.3572ZM12.2572 48.4686C12.2572 49.9816 13.4476 51.1988 14.9273 51.1988C16.4069 51.1988 17.5974 49.9816 17.5974 48.4686C17.5974 46.9556 16.4069 45.7384 14.9273 45.7384C13.4476 45.7384 12.2572 46.9556 12.2572 48.4686ZM36.288 33.0657V38.6399C40.3488 39.4817 43.4083 43.1674 43.4083 47.5585V52.3023C43.4083 53.1668 42.8075 53.9176 41.9731 54.0883L38.3907 54.8163C37.9123 54.9187 37.445 54.6002 37.3449 54.0996L37 52.3136C36.8999 51.8245 37.2114 51.3353 37.7009 51.2443L39.8481 50.8007V47.5585C39.8481 40.4145 29.1678 40.1528 29.1678 47.7747V50.812L31.315 51.2557C31.7933 51.3581 32.1049 51.8359 32.0159 52.325L31.671 54.111C31.5708 54.6002 31.1036 54.9187 30.6252 54.8277L27.1541 54.3499C26.2752 54.2248 25.6188 53.4626 25.6188 52.5412V47.5585C25.6188 43.1674 28.6782 39.493 32.739 38.6399V33.498C32.4943 33.5776 32.2495 33.6231 32.0047 33.7141C30.0022 34.4308 27.855 34.8289 25.6188 34.8289C23.3826 34.8289 21.2354 34.4308 19.2328 33.7141C18.4095 33.4183 17.5751 33.2363 16.7185 33.1226V42.4053C19.2884 43.1902 21.1686 45.6019 21.1686 48.48C21.1686 51.9951 18.3761 54.8505 14.9384 54.8505C11.5006 54.8505 8.70817 51.9951 8.70817 48.48C8.70817 45.6019 10.5884 43.1902 13.1583 42.4053V33.2591C6.08258 34.4763 0.686768 40.7103 0.686768 48.2866V53.383C0.686768 56.1928 2.92297 58.4794 5.67094 58.4794H45.5443C48.2923 58.4794 50.5285 56.1928 50.5285 53.383V48.2866C50.5285 40.096 44.2093 33.4638 36.288 33.0657Z" fill="#5268E7"/>
</svg>
