<svg width="21" height="21" viewBox="0 0 21 21" fill="none" xmlns="http://www.w3.org/2000/svg">
<path d="M19.4844 0.734375H1.51562C1.0835 0.734375 0.734375 1.0835 0.734375 1.51562V19.4844C0.734375 19.9165 1.0835 20.2656 1.51562 20.2656H19.4844C19.9165 20.2656 20.2656 19.9165 20.2656 19.4844V1.51562C20.2656 1.0835 19.9165 0.734375 19.4844 0.734375ZM15.7563 7.80713C15.7637 7.92187 15.7637 8.0415 15.7637 8.15869C15.7637 11.7427 13.0342 15.8711 8.04639 15.8711C6.5083 15.8711 5.08252 15.4243 3.88135 14.6553C4.10107 14.6797 4.31104 14.6895 4.53564 14.6895C5.80518 14.6895 6.97217 14.2598 7.90234 13.5322C6.71094 13.5078 5.70996 12.7266 5.36816 11.6523C5.78564 11.7134 6.16162 11.7134 6.59131 11.6035C5.97785 11.4789 5.42645 11.1457 5.0308 10.6606C4.63515 10.1755 4.41965 9.56837 4.4209 8.94238V8.9082C4.77979 9.11084 5.20215 9.23535 5.64404 9.25244C5.27256 9.00487 4.96792 8.66946 4.75711 8.27595C4.5463 7.88244 4.43585 7.443 4.43555 6.99658C4.43555 6.49121 4.56738 6.02978 4.8042 5.62939C5.48511 6.46762 6.33479 7.15318 7.29801 7.64152C8.26123 8.12986 9.31643 8.41004 10.395 8.46387C10.0117 6.6206 11.3887 5.12891 13.0439 5.12891C13.8252 5.12891 14.5283 5.45605 15.0239 5.9834C15.6367 5.86865 16.2227 5.63916 16.7451 5.33154C16.5425 5.95898 16.1177 6.48877 15.5537 6.82324C16.1006 6.76465 16.6279 6.61328 17.1162 6.40088C16.7476 6.94287 16.2861 7.42383 15.7563 7.80713Z" fill="white"/>
</svg>
