<svg width="21" height="21" viewBox="0 0 21 21" fill="none" xmlns="http://www.w3.org/2000/svg">
<path d="M19.4844 0.734375H1.51562C1.0835 0.734375 0.734375 1.0835 0.734375 1.51562V19.4844C0.734375 19.9165 1.0835 20.2656 1.51562 20.2656H19.4844C19.9165 20.2656 20.2656 19.9165 20.2656 19.4844V1.51562C20.2656 1.0835 19.9165 0.734375 19.4844 0.734375ZM17.2285 6.43506H15.6685C14.4453 6.43506 14.2085 7.01611 14.2085 7.8706V9.75293H17.1284L16.7476 12.6997H14.2085V20.2656H11.1641V12.7021H8.61768V9.75293H11.1641V7.58008C11.1641 5.05811 12.7046 3.68359 14.9556 3.68359C16.0347 3.68359 16.96 3.76416 17.231 3.80078V6.43506H17.2285Z" fill="white"/>
</svg>
