<svg width="57" height="52" viewBox="0 0 57 52" fill="none" xmlns="http://www.w3.org/2000/svg">
<path d="M28.5832 11.6829L7.38153 30.865C7.22436 31.0104 7.02353 31.078 6.85084 31.1985V49.6072C6.85084 50.0296 7.01438 50.4347 7.3055 50.7333C7.59661 51.032 7.99145 51.1998 8.40315 51.1998H48.7632C49.1749 51.1998 49.5698 51.032 49.8609 50.7333C50.152 50.4347 50.3156 50.0296 50.3156 49.6072V31.2025C50.1506 31.087 49.9546 31.0213 49.8052 30.8839L28.5832 11.6829ZM37.8971 37.6625C37.8971 37.8737 37.8153 38.0763 37.6697 38.2256C37.5242 38.3749 37.3268 38.4588 37.1209 38.4588H31.6878V44.033C31.6878 44.2442 31.606 44.4468 31.4605 44.5961C31.3149 44.7454 31.1175 44.8293 30.9117 44.8293H26.2547C26.0489 44.8293 25.8515 44.7454 25.7059 44.5961C25.5603 44.4468 25.4786 44.2442 25.4786 44.033V38.4588H20.0455C19.8396 38.4588 19.6422 38.3749 19.4967 38.2256C19.3511 38.0763 19.2693 37.8737 19.2693 37.6625V32.8847C19.2693 32.6735 19.3511 32.4709 19.4967 32.3216C19.6422 32.1723 19.8396 32.0884 20.0455 32.0884H25.4786V26.5142C25.4786 26.303 25.5603 26.1004 25.7059 25.9511C25.8515 25.8018 26.0489 25.7179 26.2547 25.7179H30.9117C31.1175 25.7179 31.3149 25.8018 31.4605 25.9511C31.606 26.1004 31.6878 26.303 31.6878 26.5142V32.0884H37.1209C37.3268 32.0884 37.5242 32.1723 37.6697 32.3216C37.8153 32.4709 37.8971 32.6735 37.8971 32.8847V37.6625ZM56.0096 23.755L31.1785 1.2592C30.4677 0.59996 29.5437 0.234955 28.5856 0.234955C27.6275 0.234955 26.7035 0.59996 25.9928 1.2592L1.15579 23.755C1.00407 23.8947 0.880685 24.0638 0.792672 24.2525C0.704658 24.4412 0.653747 24.6459 0.642845 24.8548C0.631943 25.0637 0.661265 25.2728 0.729136 25.4701C0.797006 25.6673 0.902095 25.849 1.0384 26.0045L3.11559 28.3756C3.25182 28.5312 3.41662 28.6578 3.60056 28.7481C3.78449 28.8384 3.98397 28.8906 4.18759 28.9018C4.3912 28.913 4.59497 28.8829 4.78726 28.8133C4.97954 28.7437 5.15657 28.6358 5.30823 28.496L27.5567 8.3613C27.8403 8.10461 28.2055 7.96297 28.5837 7.96297C28.9619 7.96297 29.327 8.10461 29.6106 8.3613L51.8591 28.495C52.0108 28.6349 52.1878 28.7427 52.3801 28.8123C52.5724 28.8819 52.7762 28.912 52.9798 28.9008C53.1834 28.8896 53.3829 28.8374 53.5668 28.7471C53.7507 28.6568 53.9155 28.5302 54.0518 28.3746L56.128 26.0036C56.4028 25.6892 56.5448 25.2758 56.5226 24.8541C56.5004 24.4325 56.3159 24.0371 56.0096 23.755Z" fill="#5268E7"/>
</svg>
