<svg width="51" height="52" viewBox="0 0 51 52" fill="none" xmlns="http://www.w3.org/2000/svg">
<path d="M49.3492 36.2478L38.4461 31.4699C37.9803 31.2669 37.4627 31.2241 36.9711 31.348C36.4795 31.4719 36.0405 31.7557 35.7203 32.1567L30.8918 38.1889C23.3139 34.5355 17.2155 28.2998 13.6426 20.5513L19.5419 15.6141C19.9349 15.2872 20.213 14.8384 20.3342 14.3355C20.4554 13.8326 20.4131 13.303 20.2136 12.8269L15.5409 1.67839C15.3219 1.16516 14.9347 0.746134 14.446 0.493553C13.9573 0.240972 13.3977 0.170671 12.8638 0.294772L2.73949 2.68374C2.22468 2.8053 1.76537 3.10169 1.43651 3.52455C1.10766 3.9474 0.928684 4.47174 0.928803 5.012C0.928803 30.5441 21.1676 51.1988 46.0987 51.1988C46.6272 51.1992 47.1402 51.0163 47.554 50.68C47.9677 50.3437 48.2577 49.8739 48.3767 49.3474L50.713 38.9951C50.8336 38.4465 50.7634 37.872 50.5145 37.3706C50.2655 36.8692 49.8535 36.4721 49.3492 36.2478Z" fill="#5268E7"/>
</svg>
