<svg width="31" height="31" viewBox="0 0 31 31" fill="none" xmlns="http://www.w3.org/2000/svg">
<path d="M22.1589 30.0819H22.1997C22.9697 30.0819 23.6974 29.7785 24.2487 29.2273L28.2037 25.2723C28.3392 25.137 28.4468 24.9763 28.5201 24.7994C28.5935 24.6224 28.6313 24.4328 28.6313 24.2413C28.6313 24.0497 28.5935 23.8601 28.5201 23.6832C28.4468 23.5062 28.3392 23.3455 28.2037 23.2102L22.3704 17.3769C22.235 17.2413 22.0743 17.1338 21.8974 17.0604C21.7205 16.9871 21.5308 16.9493 21.3393 16.9493C21.1478 16.9493 20.9581 16.9871 20.7812 17.0604C20.6043 17.1338 20.4436 17.2413 20.3083 17.3769L17.9837 19.7015C16.906 19.3806 14.8949 18.6515 13.6204 17.3769C12.3458 16.1023 11.6166 14.0913 11.2958 13.0135L13.6204 10.689C13.7559 10.5536 13.8634 10.3929 13.9368 10.216C14.0102 10.0391 14.0479 9.84945 14.0479 9.65792C14.0479 9.46639 14.0102 9.27674 13.9368 9.09983C13.8634 8.92291 13.7559 8.76219 13.6204 8.62688L7.78703 2.79355C7.50823 2.53039 7.13936 2.3838 6.75599 2.3838C6.37261 2.3838 6.00374 2.53039 5.72495 2.79355L1.7714 6.74855C1.21724 7.30271 0.905153 8.06396 0.91682 8.84125C0.950361 10.9179 1.50015 18.1308 7.18474 23.8154C12.8693 29.5 20.0822 30.0483 22.1589 30.0819ZM6.75745 5.88667L10.5287 9.65792L8.64307 11.5435C8.47147 11.7147 8.34542 11.926 8.27639 12.1583C8.20737 12.3906 8.19756 12.6365 8.24786 12.8735C8.28286 13.0413 9.1389 17.0181 11.5597 19.439C13.9806 21.8598 17.9574 22.7158 18.1252 22.7508C18.3622 22.8014 18.6082 22.7917 18.8405 22.7227C19.0729 22.6537 19.2842 22.5275 19.4552 22.3556L21.3408 20.47L25.112 24.2413L22.1866 27.1652C20.3666 27.1346 14.1395 26.646 9.24682 21.7519C4.33807 16.8431 3.86265 10.5942 3.83349 8.81063L6.75745 5.88667ZM27.1654 14.0402H30.082C30.082 6.55896 24.4339 0.91667 16.9424 0.91667V3.83334C22.8662 3.83334 27.1654 8.12521 27.1654 14.0402Z" fill="#5268E7"/>
<path d="M16.957 9.66667C20.0239 9.66667 21.332 10.9748 21.332 14.0417H24.2487C24.2487 9.33854 21.6602 6.75 16.957 6.75V9.66667Z" fill="#5268E7"/>
</svg>
