<svg width="57" height="52" viewBox="0 0 57 52" fill="none" xmlns="http://www.w3.org/2000/svg">
<path d="M28.5832 11.7548L7.38153 30.9791C7.22436 31.1247 7.02353 31.1926 6.85084 31.3133V49.7625C6.85084 50.1858 7.01438 50.5918 7.3055 50.8911C7.59661 51.1904 7.99145 51.3586 8.40315 51.3586H48.7632C49.1749 51.3586 49.5698 51.1904 49.8609 50.8911C50.152 50.5918 50.3156 50.1858 50.3156 49.7625V31.3173C50.1506 31.2015 49.9546 31.1357 49.8052 30.998L28.5832 11.7548ZM37.8971 37.7915C37.8971 38.0032 37.8153 38.2062 37.6697 38.3559C37.5242 38.5055 37.3268 38.5896 37.1209 38.5896H31.6878V44.176C31.6878 44.3877 31.606 44.5907 31.4605 44.7404C31.3149 44.89 31.1175 44.9741 30.9117 44.9741H26.2547C26.0489 44.9741 25.8515 44.89 25.7059 44.7404C25.5603 44.5907 25.4786 44.3877 25.4786 44.176V38.5896H20.0455C19.8396 38.5896 19.6422 38.5055 19.4967 38.3559C19.3511 38.2062 19.2693 38.0032 19.2693 37.7915V33.0032C19.2693 32.7915 19.3511 32.5885 19.4967 32.4389C19.6422 32.2892 19.8396 32.2051 20.0455 32.2051H25.4786V26.6187C25.4786 26.407 25.5603 26.204 25.7059 26.0544C25.8515 25.9047 26.0489 25.8206 26.2547 25.8206H30.9117C31.1175 25.8206 31.3149 25.9047 31.4605 26.0544C31.606 26.204 31.6878 26.407 31.6878 26.6187V32.2051H37.1209C37.3268 32.2051 37.5242 32.2892 37.6697 32.4389C37.8153 32.5885 37.8971 32.7915 37.8971 33.0032V37.7915ZM56.0096 23.8534L31.1785 1.30815C30.4677 0.647455 29.5437 0.281647 28.5856 0.281647C27.6275 0.281647 26.7035 0.647455 25.9928 1.30815L1.15579 23.8534C1.00407 23.9935 0.880685 24.1629 0.792672 24.3521C0.704658 24.5412 0.653747 24.7463 0.642845 24.9557C0.631943 25.165 0.661265 25.3745 0.729136 25.5722C0.797006 25.77 0.902095 25.952 1.0384 26.1079L3.11559 28.4841C3.25182 28.6401 3.41662 28.767 3.60056 28.8575C3.78449 28.948 3.98397 29.0004 4.18759 29.0116C4.3912 29.0228 4.59497 28.9926 4.78726 28.9228C4.97954 28.8531 5.15657 28.745 5.30823 28.6049L27.5567 8.42586C27.8403 8.16861 28.2055 8.02666 28.5837 8.02666C28.9619 8.02666 29.327 8.16861 29.6106 8.42586L51.8591 28.6039C52.0108 28.744 52.1878 28.8521 52.3801 28.9218C52.5724 28.9916 52.7762 29.0218 52.9798 29.0106C53.1834 28.9994 53.3829 28.947 53.5668 28.8565C53.7507 28.766 53.9155 28.6392 54.0518 28.4832L56.128 26.1069C56.4028 25.7919 56.5448 25.3776 56.5226 24.955C56.5004 24.5324 56.3159 24.1361 56.0096 23.8534V23.8534Z" fill="#5268E7" fill-opacity="0.4"/>
</svg>
