<svg width="51" height="52" viewBox="0 0 51 52" fill="none" xmlns="http://www.w3.org/2000/svg">
<path d="M49.3491 36.3737L38.446 31.5853C37.9802 31.3818 37.4626 31.339 36.971 31.4631C36.4794 31.5873 36.0405 31.8717 35.7202 32.2736L30.8917 38.319C23.3138 34.6577 17.2154 28.4082 13.6425 20.6426L19.5418 15.6946C19.9348 15.367 20.2129 14.9172 20.3341 14.4132C20.4553 13.9092 20.413 13.3785 20.2135 12.9013L15.5408 1.72825C15.3219 1.2139 14.9347 0.79395 14.446 0.540814C13.9572 0.287677 13.3977 0.217222 12.8637 0.341595L2.7394 2.73582C2.22459 2.85765 1.76527 3.15469 1.43642 3.57848C1.10757 4.00226 0.928592 4.52775 0.928711 5.0692C0.928711 30.6575 21.1676 51.3576 46.0986 51.3576C46.6271 51.3579 47.1402 51.1746 47.5539 50.8376C47.9676 50.5006 48.2577 50.0298 48.3766 49.5021L50.7129 39.1271C50.8335 38.5772 50.7633 38.0015 50.5144 37.499C50.2655 36.9964 49.8534 36.5985 49.3491 36.3737V36.3737Z" fill="#5268E7" fill-opacity="0.4"/>
</svg>
