<svg width="65" height="52" viewBox="0 0 65 52" fill="none" xmlns="http://www.w3.org/2000/svg">
<path d="M58.9901 0.579102H5.58824C2.64001 0.579102 0.248047 3.03029 0.248047 6.05152V46.1826C0.248047 49.2039 2.64001 51.655 5.58824 51.655H58.9901C61.9384 51.655 64.3303 49.2039 64.3303 46.1826V6.05152C64.3303 3.03029 61.9384 0.579102 58.9901 0.579102ZM58.9901 46.1826H33.9802C34.0804 45.6696 34.0692 46.5931 34.0692 43.6288C34.0692 40.0033 30.7205 37.0619 26.593 37.0619C25.3914 37.0619 24.5125 37.974 21.6088 37.974C18.6161 37.974 17.8929 37.0619 16.6246 37.0619C12.4971 37.0619 9.14836 40.0033 9.14836 43.6288C9.14836 46.5931 9.12611 45.6696 9.23737 46.1826H5.58824V13.3481H58.9901V46.1826ZM40.2995 37.0619H52.7599C53.2494 37.0619 53.6499 36.6515 53.6499 36.1498V34.3257C53.6499 33.8241 53.2494 33.4136 52.7599 33.4136H40.2995C39.81 33.4136 39.4094 33.8241 39.4094 34.3257V36.1498C39.4094 36.6515 39.81 37.0619 40.2995 37.0619ZM40.2995 29.7654H52.7599C53.2494 29.7654 53.6499 29.3549 53.6499 28.8533V27.0291C53.6499 26.5275 53.2494 26.1171 52.7599 26.1171H40.2995C39.81 26.1171 39.4094 26.5275 39.4094 27.0291V28.8533C39.4094 29.3549 39.81 29.7654 40.2995 29.7654ZM40.2995 22.4688H52.7599C53.2494 22.4688 53.6499 22.0584 53.6499 21.5567V19.7326C53.6499 19.2309 53.2494 18.8205 52.7599 18.8205H40.2995C39.81 18.8205 39.4094 19.2309 39.4094 19.7326V21.5567C39.4094 22.0584 39.81 22.4688 40.2995 22.4688ZM21.6088 33.4136C25.5361 33.4136 28.7291 30.1416 28.7291 26.1171C28.7291 22.0926 25.5361 18.8205 21.6088 18.8205C17.6815 18.8205 14.4886 22.0926 14.4886 26.1171C14.4886 30.1416 17.6815 33.4136 21.6088 33.4136Z" fill="#5268E7" fill-opacity="0.4"/>
</svg>
