<svg width="18" height="18" viewBox="0 0 18 18" fill="none" xmlns="http://www.w3.org/2000/svg">
<path d="M16 0H2C0.895 0 0 0.895 0 2V16C0 17.105 0.895 18 2 18H16C17.105 18 18 17.105 18 16V2C18 0.895 17.105 0 16 0ZM6 14H3.477V7H6V14ZM4.694 5.717C3.923 5.717 3.408 5.203 3.408 4.517C3.408 3.831 3.922 3.317 4.779 3.317C5.55 3.317 6.065 3.831 6.065 4.517C6.065 5.203 5.551 5.717 4.694 5.717ZM15 14H12.558V10.174C12.558 9.116 11.907 8.872 11.663 8.872C11.419 8.872 10.605 9.035 10.605 10.174C10.605 10.337 10.605 14 10.605 14H8.082V7H10.605V7.977C10.93 7.407 11.581 7 12.802 7C14.023 7 15 7.977 15 10.174V14Z" fill="rgba(255, 255, 255, 0.5)"/>
</svg>
