<svg width="18" height="17" viewBox="0 0 18 17" fill="none" xmlns="http://www.w3.org/2000/svg">
<path d="M10.4999 4.78572L8.94638 6.44644C8.3956 6.9863 7.65511 7.2887 6.88388 7.2887C6.11264 7.2887 5.37215 6.9863 4.82138 6.44644L4.71423 6.28572L8.30352 2.58929C8.76905 2.09811 9.32978 1.70691 9.95148 1.43957C10.5732 1.17224 11.2428 1.03436 11.9196 1.03436C12.5963 1.03436 13.266 1.17224 13.8877 1.43957C14.5094 1.70691 15.0701 2.09811 15.5357 2.58929C16.3491 3.44093 16.8624 4.5347 16.9978 5.70458C17.1332 6.87446 16.8831 8.05656 16.2857 9.07144" stroke="#222222" stroke-width="1.01786" stroke-linecap="square"/>
<path d="M11.1429 7.14285L13.7143 9.82142C14.1298 10.2425 14.3628 10.8102 14.3628 11.4018C14.3628 11.9933 14.1298 12.5611 13.7143 12.9821L12.5358 14.2143C11.7445 15.0218 10.6662 15.4839 9.53576 15.5C8.38911 15.4864 7.29322 15.025 6.48219 14.2143L2.46433 9.98214C1.51457 8.98584 0.984741 7.66218 0.984741 6.28571C0.984741 4.90924 1.51457 3.58559 2.46433 2.58928C2.90243 2.09948 3.43914 1.70786 4.03926 1.44011C4.63938 1.17236 5.28934 1.03455 5.94648 1.03571" stroke="#FF1E56" stroke-width="1.01786" stroke-linecap="square"/>
<path d="M13.2857 13.3572L10.6072 10.6786" stroke="#FF1E56" stroke-width="1.01786"/>
<path d="M11.6786 14.9643L9 12.2857" stroke="#FF1E56" stroke-width="1.01786"/>
</svg>
