<svg width="50" height="50" viewBox="0 0 50 50" fill="none" xmlns="http://www.w3.org/2000/svg">
<path d="M39.7675 33.375V17.625C39.7675 16.1725 38.595 15 37.1425 15H12.625C11.1725 15 10 16.1725 10 17.625V33.375C10 34.8275 11.1725 36 12.625 36H37.1425C38.595 36 39.7675 34.8275 39.7675 33.375ZM37.475 17.4325C38.0525 18.01 37.7375 18.605 37.4225 18.9025L30.3175 25.4125L37.1425 32.5175C37.3525 32.7625 37.4925 33.1475 37.2475 33.41C37.02 33.69 36.495 33.6725 36.2675 33.4975L28.62 26.97L24.875 30.3825L21.1475 26.97L13.5 33.4975C13.2725 33.6725 12.7475 33.69 12.52 33.41C12.275 33.1475 12.415 32.7625 12.625 32.5175L19.45 25.4125L12.345 18.9025C12.03 18.605 11.715 18.01 12.2925 17.4325C12.87 16.855 13.465 17.135 13.955 17.555L24.875 26.375L35.8125 17.555C36.3025 17.135 36.8975 16.855 37.475 17.4325Z" fill="#5268E7"/>
<rect width="50" height="50" rx="25" fill="#5268E7" fill-opacity="0.1"/>
</svg>
