<svg width="20" height="21" viewBox="0 0 20 21" fill="none" xmlns="http://www.w3.org/2000/svg">
<path d="M0.8 0C0.3584 0 0 0.361846 0 0.807692V17.7692C0 19.5534 1.4328 21 3.2 21H15.2H16H16.8C18.5672 21 20 19.5534 20 17.7692V6.46154C20 6.01569 19.6416 5.65385 19.2 5.65385H17.6V17.7692C17.6 18.2159 17.2416 18.5769 16.8 18.5769C16.3584 18.5769 16 18.2159 16 17.7692V0.807692C16 0.361846 15.6416 0 15.2 0H0.8ZM2.4 3.23077H13.6V5.65385H2.4V3.23077ZM2.4 8.88462H7.2V10.5H2.4V8.88462ZM8.8 8.88462H13.6V10.5H8.8V8.88462ZM2.4 12.1154H7.2V13.7308H2.4V12.1154ZM8.8 12.1154H13.6V13.7308H8.8V12.1154ZM2.4 15.3462H7.2V16.9615H2.4V15.3462ZM8.8 15.3462H13.6V16.9615H8.8V15.3462Z" fill="white"/>
</svg>
