<svg width="22" height="18" viewBox="0 0 22 18" fill="none" xmlns="http://www.w3.org/2000/svg">
<path d="M18.3424 11.535C17.2149 11.535 16.124 11.385 15.1065 11.115C14.9471 11.0708 14.7757 11.0642 14.612 11.0961C14.4482 11.1279 14.2988 11.1968 14.1807 11.295L12.7415 12.7725C10.1474 11.76 7.71821 9.8475 6.42571 7.65L8.21321 6.405C8.46071 6.195 8.53404 5.9025 8.43321 5.64C8.09404 4.8075 7.91988 3.915 7.91988 2.9925C7.91988 2.5875 7.50738 2.25 7.01238 2.25H3.84071C3.34571 2.25 2.74988 2.43 2.74988 2.9925C2.74988 9.96 9.83571 15.75 18.3424 15.75C18.9932 15.75 19.2499 15.2775 19.2499 14.865V12.2775C19.2499 11.8725 18.8374 11.535 18.3424 11.535Z" fill="#5D636F"/>
</svg>
