<svg width="50" height="50" viewBox="0 0 50 50" fill="none" xmlns="http://www.w3.org/2000/svg">
<path d="M32.1589 37.0819H32.1997C32.9697 37.0819 33.6974 36.7785 34.2487 36.2273L38.2037 32.2723C38.3392 32.137 38.4468 31.9763 38.5201 31.7994C38.5935 31.6224 38.6313 31.4328 38.6313 31.2413C38.6313 31.0497 38.5935 30.8601 38.5201 30.6832C38.4468 30.5062 38.3392 30.3455 38.2037 30.2102L32.3704 24.3769C32.235 24.2413 32.0743 24.1338 31.8974 24.0604C31.7205 23.9871 31.5308 23.9493 31.3393 23.9493C31.1478 23.9493 30.9581 23.9871 30.7812 24.0604C30.6043 24.1338 30.4436 24.2413 30.3083 24.3769L27.9837 26.7015C26.906 26.3806 24.8949 25.6515 23.6204 24.3769C22.3458 23.1023 21.6166 21.0913 21.2958 20.0135L23.6204 17.689C23.7559 17.5536 23.8634 17.3929 23.9368 17.216C24.0102 17.0391 24.0479 16.8495 24.0479 16.6579C24.0479 16.4664 24.0102 16.2767 23.9368 16.0998C23.8634 15.9229 23.7559 15.7622 23.6204 15.6269L17.787 9.79355C17.5082 9.53039 17.1394 9.3838 16.756 9.3838C16.3726 9.3838 16.0037 9.53039 15.7249 9.79355L11.7714 13.7485C11.2172 14.3027 10.9052 15.064 10.9168 15.8413C10.9504 17.9179 11.5002 25.1308 17.1847 30.8154C22.8693 36.5 30.0822 37.0483 32.1589 37.0819ZM16.7574 12.8867L20.5287 16.6579L18.6431 18.5435C18.4715 18.7147 18.3454 18.926 18.2764 19.1583C18.2074 19.3906 18.1976 19.6365 18.2479 19.8735C18.2829 20.0413 19.1389 24.0181 21.5597 26.439C23.9806 28.8598 27.9574 29.7158 28.1252 29.7508C28.3622 29.8014 28.6082 29.7917 28.8405 29.7227C29.0729 29.6537 29.2842 29.5275 29.4552 29.3556L31.3408 27.47L35.112 31.2413L32.1866 34.1652C30.3666 34.1346 24.1395 33.646 19.2468 28.7519C14.3381 23.8431 13.8627 17.5942 13.8335 15.8106L16.7574 12.8867ZM37.1654 21.0402H40.082C40.082 13.559 34.4339 7.91667 26.9424 7.91667V10.8333C32.8662 10.8333 37.1654 15.1252 37.1654 21.0402Z" fill="#5268E7"/>
<path d="M26.957 16.6667C30.0239 16.6667 31.332 17.9748 31.332 21.0417H34.2487C34.2487 16.3385 31.6602 13.75 26.957 13.75V16.6667Z" fill="#5268E7"/>
<rect width="50" height="50" rx="25" fill="#5268E7" fill-opacity="0.1"/>
</svg>
