<svg width="36" height="36" viewBox="0 0 36 36" fill="none" xmlns="http://www.w3.org/2000/svg">
<path d="M13.7917 0.333313C16.3824 0.333257 18.9188 1.07637 21.0999 2.47449C23.281 3.87261 25.0152 5.86705 26.0969 8.22118C27.1786 10.5753 27.5622 13.1903 27.2024 15.7559C26.8425 18.3216 25.7542 20.7301 24.0667 22.6958L35.825 34.4542L34.3521 35.9271L22.5917 24.1666C20.9331 25.585 18.9562 26.5815 16.8295 27.0713C14.7028 27.561 12.4893 27.5295 10.3774 26.9794C8.26546 26.4293 6.31779 25.377 4.70024 23.912C3.08268 22.447 1.84316 20.6127 1.08724 18.5655C0.331327 16.5182 0.0814122 14.3186 0.358783 12.1539C0.636154 9.98922 1.43259 7.92365 2.68027 6.13311C3.92794 4.34257 5.58989 2.88011 7.52456 1.87027C9.45923 0.860434 11.6093 0.333145 13.7917 0.333313ZM13.7917 2.41665C10.7527 2.41665 7.83826 3.62386 5.68941 5.77272C3.54055 7.92157 2.33334 10.836 2.33334 13.875C2.33334 16.9139 3.54055 19.8284 5.68941 21.9772C7.83826 24.1261 10.7527 25.3333 13.7917 25.3333C16.8306 25.3333 19.7451 24.1261 21.8939 21.9772C24.0428 19.8284 25.25 16.9139 25.25 13.875C25.25 10.836 24.0428 7.92157 21.8939 5.77272C19.7451 3.62386 16.8306 2.41665 13.7917 2.41665Z" fill="#5D636F"/>
</svg>
