<svg width="24" height="23" viewBox="0 0 24 23" fill="none" xmlns="http://www.w3.org/2000/svg">
<path d="M11.9866 0.000103854C11.7598 0.00362907 11.5437 0.0964846 11.3857 0.258291C11.2276 0.420098 11.1406 0.637636 11.1437 0.863161V1.71458H0.868467C0.755001 1.71298 0.642347 1.73383 0.537053 1.7759C0.431759 1.81797 0.335924 1.88043 0.255118 1.95965C0.174312 2.03887 0.110146 2.13327 0.0663499 2.23736C0.0225535 2.34145 0 2.45316 0 2.566C0 2.67883 0.0225535 2.79054 0.0663499 2.89463C0.110146 2.99872 0.174312 3.09312 0.255118 3.17234C0.335924 3.25156 0.431759 3.31402 0.537053 3.35609C0.642347 3.39816 0.755001 3.41901 0.868467 3.41741V16.1887C0.868467 17.1295 1.63483 17.8915 2.58101 17.8915H9.24889L7.84574 20.4823C7.56565 20.5495 7.3164 20.7083 7.13804 20.9333C6.95969 21.1583 6.8626 21.4364 6.86237 21.7229C6.86237 22.0616 6.99769 22.3864 7.23856 22.6259C7.47944 22.8654 7.80613 23 8.14678 23C8.48742 23 8.81412 22.8654 9.05499 22.6259C9.29586 22.3864 9.43118 22.0616 9.43118 21.7229C9.43084 21.5754 9.40481 21.4291 9.35425 21.2905L11.1939 17.8915H12.8061L14.6457 21.2905C14.5952 21.4291 14.5692 21.5754 14.5688 21.7229C14.5688 22.0616 14.7041 22.3864 14.945 22.6259C15.1859 22.8654 15.5126 23 15.8532 23C16.1939 23 16.5206 22.8654 16.7614 22.6259C17.0023 22.3864 17.1376 22.0616 17.1376 21.7229C17.1374 21.4364 17.0403 21.1583 16.862 20.9333C16.6836 20.7083 16.4343 20.5495 16.1543 20.4823L14.7511 17.8915H21.419C22.3652 17.8915 23.1315 17.1295 23.1315 16.1887V3.41741C23.245 3.41901 23.3577 3.39816 23.4629 3.35609C23.5682 3.31402 23.6641 3.25156 23.7449 3.17234C23.8257 3.09312 23.8899 2.99872 23.9337 2.89463C23.9774 2.79054 24 2.67883 24 2.566C24 2.45316 23.9774 2.34145 23.9337 2.23736C23.8899 2.13327 23.8257 2.03887 23.7449 1.95965C23.6641 1.88043 23.5682 1.81797 23.4629 1.7759C23.3577 1.73383 23.245 1.71298 23.1315 1.71458H12.8563V0.863161C12.8578 0.749251 12.8364 0.636185 12.7932 0.53066C12.7501 0.425135 12.686 0.329297 12.6049 0.24882C12.5239 0.168343 12.4273 0.104864 12.3211 0.0621424C12.2149 0.0194206 12.1012 -0.00167528 11.9866 0.000103854V0.000103854ZM18.8502 5.97166C19.0692 5.97166 19.2882 6.05465 19.4556 6.2211C19.7904 6.55401 19.7904 7.09215 19.4556 7.42506L14.318 12.5336C13.9832 12.8665 13.4419 12.8665 13.1071 12.5336L11.1437 10.5813L8.32405 13.385C8.15708 13.551 7.93785 13.6344 7.71864 13.6344C7.49944 13.6344 7.2802 13.551 7.11323 13.385L5.40069 11.6821C5.06588 11.3492 5.06588 10.8111 5.40069 10.4782C5.73549 10.1453 6.27671 10.1453 6.61151 10.4782L7.71864 11.579L10.5383 8.77535C10.8731 8.44245 11.4143 8.44245 11.7491 8.77535L13.7125 10.7276L18.2448 6.2211C18.4122 6.05465 18.6312 5.97166 18.8502 5.97166Z" fill="white"/>
</svg>
