<svg width="18" height="18" viewBox="0 0 18 18" fill="none" xmlns="http://www.w3.org/2000/svg">
<path d="M16 0H2C0.895 0 0 0.895 0 2V16C0 17.105 0.895 18 2 18H16C17.105 18 18 17.105 18 16V2C18 0.895 17.105 0 16 0ZM14.05 6.514C14.05 6.6 14.05 6.685 14.05 6.857C14.05 10.114 11.564 13.886 7.021 13.886C5.65 13.886 4.364 13.457 3.25 12.772C3.421 12.772 3.679 12.772 3.85 12.772C4.964 12.772 6.079 12.343 6.936 11.743C5.822 11.743 4.965 10.972 4.622 10.029C4.793 10.029 4.965 10.115 5.051 10.115C5.308 10.115 5.48 10.115 5.737 10.029C4.623 9.772 3.766 8.829 3.766 7.629C4.109 7.8 4.452 7.886 4.88 7.972C4.194 7.372 3.766 6.686 3.766 5.829C3.766 5.4 3.852 4.972 4.109 4.629C5.309 6.086 7.109 7.115 9.166 7.2C9.166 7.029 9.08 6.857 9.08 6.6C9.08 5.229 10.194 4.114 11.566 4.114C12.252 4.114 12.937 4.371 13.366 4.885C13.966 4.799 14.48 4.542 14.909 4.285C14.738 4.885 14.309 5.314 13.795 5.656C14.309 5.57 14.738 5.485 15.252 5.227C14.907 5.743 14.479 6.171 14.05 6.514Z" fill="rgba(255, 255, 255, 0.5)"/>
</svg>
