<?xml version="1.0" standalone="no"?>
<!DOCTYPE svg PUBLIC "-//W3C//DTD SVG 20010904//EN"
 "http://www.w3.org/TR/2001/REC-SVG-20010904/DTD/svg10.dtd">
<svg version="1.0" xmlns="http://www.w3.org/2000/svg"
 width="2480.000000pt" height="3508.000000pt" viewBox="0 0 2480.000000 3508.000000"
 preserveAspectRatio="xMidYMid meet">

<g transform="translate(0.000000,3508.000000) scale(0.100000,-0.100000)"
fill="#000000" stroke="none">
<path fill="#5268E7" d="M14150 26815 l0 -555 100 0 100 0 0 39 0 40 51 -34 c64 -44 105 -55
200 -55 87 0 139 15 204 60 104 72 165 188 173 331 8 146 -28 252 -116 342
-73 75 -129 100 -239 105 -105 5 -155 -8 -228 -58 l-45 -31 0 186 0 185 -100
0 -100 0 0 -555z m496 69 c81 -39 132 -138 121 -238 -13 -124 -95 -206 -207
-206 -66 0 -107 18 -151 67 -47 52 -62 99 -57 183 7 128 87 210 206 210 29 0
69 -7 88 -16z"/>
<path fill="#5268E7" d="M12520 26805 l0 -545 255 0 255 0 0 105 0 105 -150 0 -150 0 0 440 0
440 -105 0 -105 0 0 -545z"/>
<path fill="#5268E7" d="M13379 27076 c-122 -43 -221 -161 -250 -296 -16 -76 -7 -213 20 -283
41 -104 126 -190 229 -230 48 -19 176 -23 232 -7 20 5 57 23 83 40 l47 30 0
-35 0 -35 110 0 110 0 0 405 0 405 -109 0 -110 0 -3 -30 -3 -30 -38 25 c-21
14 -56 33 -79 41 -50 17 -190 18 -239 0z m278 -208 c84 -55 120 -204 74 -303
-22 -47 -74 -99 -114 -114 -45 -17 -124 -13 -165 8 -80 41 -117 107 -117 211
0 105 37 170 120 215 47 25 152 17 202 -17z"/>
<path fill="#5268E7" d="M15232 27064 c-113 -57 -163 -196 -108 -302 27 -51 99 -111 198 -163
111 -58 137 -86 120 -124 -22 -48 -118 -46 -189 4 -24 17 -47 31 -51 31 -4 0
-37 -30 -72 -66 l-65 -65 48 -44 c65 -60 136 -85 241 -85 133 0 210 37 263
128 24 40 28 58 28 122 0 64 -4 82 -27 122 -33 54 -92 100 -204 156 -112 56
-130 75 -98 106 26 26 86 20 132 -13 22 -16 43 -35 47 -41 8 -13 135 106 135
126 0 19 -71 83 -119 106 -35 18 -67 24 -136 26 -81 3 -95 1 -143 -24z"/>
<path fill="#5268E7" d="M10810 25625 l0 -175 -60 0 -60 0 0 -105 0 -105 60 0 60 0 0 -375 0
-375 125 0 125 0 0 375 0 375 70 0 70 0 0 105 0 105 -70 0 -70 0 0 175 0 175
-125 0 -125 0 0 -175z"/>
<path fill="#5268E7" d="M7260 25141 l0 -651 123 0 c236 1 468 17 534 38 130 41 239 140 305
277 55 116 71 202 65 360 -5 148 -26 228 -85 335 -46 85 -154 193 -224 225
-114 52 -155 58 -445 62 l-273 5 0 -651z m505 384 c174 -45 266 -182 266 -395
0 -143 -38 -242 -121 -313 -53 -45 -124 -64 -272 -72 l-118 -6 0 400 0 401 93
0 c51 0 120 -7 152 -15z"/>
<path fill="#5268E7" d="M8795 25456 c-120 -38 -247 -142 -299 -244 -96 -190 -67 -425 72
-575 110 -118 223 -162 398 -155 131 6 196 28 287 96 195 149 251 445 124 656
-60 98 -177 185 -296 220 -66 19 -228 20 -286 2z m262 -241 c88 -44 133 -123
133 -231 0 -89 -16 -136 -64 -191 -52 -59 -104 -83 -184 -83 -102 0 -177 45
-225 135 -32 58 -31 202 0 261 25 46 82 100 127 120 54 23 155 18 213 -11z"/>
<path fill="#5268E7" d="M9942 25445 c-133 -43 -234 -127 -296 -244 -146 -282 4 -626 309
-706 77 -20 262 -20 338 0 102 27 221 100 261 160 15 23 14 24 -77 84 -51 34
-96 61 -99 61 -3 0 -29 -16 -58 -35 -65 -44 -106 -55 -200 -55 -195 1 -319
159 -267 341 34 114 126 181 260 187 98 5 150 -9 213 -57 l49 -38 75 41 c41
22 88 48 104 57 l29 18 -57 59 c-104 109 -218 152 -401 152 -88 -1 -125 -6
-183 -25z"/>
<path fill="#5268E7" d="M11635 25456 c-120 -38 -247 -142 -299 -244 -96 -190 -67 -425 72
-575 110 -118 223 -162 398 -155 131 6 196 28 287 96 195 149 251 445 124 656
-60 98 -177 185 -296 220 -66 19 -228 20 -286 2z m262 -241 c88 -44 133 -123
133 -231 0 -89 -16 -136 -64 -191 -52 -59 -104 -83 -184 -83 -102 0 -177 45
-225 135 -32 58 -31 202 0 261 25 46 82 100 127 120 54 23 155 18 213 -11z"/>
<path fill="#5268E7" d="M12724 25452 c-22 -11 -55 -37 -72 -58 l-32 -39 0 48 0 47 -105 0
-105 0 0 -480 0 -480 124 0 125 0 3 323 c3 315 4 323 27 370 13 26 34 55 47
64 23 15 69 15 104 0 12 -6 23 16 53 95 26 70 34 105 27 112 -6 6 -43 12 -83
14 -55 2 -82 -2 -113 -16z"/>
<path fill="#5268E7" d="M13165 25442 c-64 -31 -119 -84 -141 -138 -22 -51 -18 -160 7 -211
31 -64 112 -131 237 -196 149 -78 182 -122 126 -166 -51 -40 -155 -21 -230 42
-18 15 -36 27 -41 27 -8 0 -56 -48 -128 -128 l-29 -32 45 -46 c24 -25 73 -59
109 -77 57 -29 76 -32 167 -35 166 -6 262 36 328 143 26 41 30 60 33 130 7
155 -49 227 -253 328 -111 55 -155 86 -155 107 0 6 9 19 20 30 40 40 132 17
194 -49 l30 -31 29 27 c16 16 51 54 79 85 l49 57 -40 44 c-23 24 -69 59 -103
78 -58 31 -71 34 -168 37 -99 3 -109 1 -165 -26z"/>
<path fill="#5268E7" d="M16370 23765 l0 -455 250 0 250 0 0 90 0 90 -160 0 -160 0 0 115 0
115 160 0 160 0 0 90 0 90 -160 0 -160 0 0 70 0 70 160 0 160 0 0 90 0 90
-250 0 -250 0 0 -455z"/>
<path fill="#5268E7" d="M17540 23765 l0 -455 90 0 90 0 0 194 0 194 93 4 c108 5 156 25 209
88 84 97 77 268 -13 359 -60 60 -108 71 -306 71 l-163 0 0 -455z m334 254 c23
-18 27 -28 24 -62 -4 -52 -34 -73 -115 -81 l-63 -6 0 85 0 85 64 0 c49 0 69
-5 90 -21z"/>
<path fill="#5268E7" d="M18385 23966 c-65 -31 -121 -88 -154 -156 -23 -48 -26 -67 -26 -160
0 -95 3 -111 28 -162 34 -70 110 -140 174 -162 54 -19 165 -21 214 -5 19 7 49
23 67 36 l32 24 0 -35 0 -36 90 0 90 0 0 335 0 335 -90 0 -90 0 0 -32 c0 -29
-1 -30 -18 -15 -67 61 -224 77 -317 33z m244 -151 c124 -63 129 -243 11 -323
-29 -20 -45 -23 -95 -20 -110 7 -171 78 -163 193 4 69 30 114 82 146 38 23
125 25 165 4z"/>
<path fill="#5268E7" d="M19135 23976 c-38 -17 -90 -72 -104 -109 -16 -41 -13 -87 8 -132 25
-54 61 -86 156 -136 118 -62 133 -79 99 -113 -30 -31 -101 -16 -177 37 -16 10
-24 5 -67 -40 -28 -28 -50 -57 -50 -63 0 -17 53 -65 97 -86 26 -12 67 -20 126
-22 78 -4 93 -1 140 22 96 47 135 135 106 239 -15 53 -67 101 -168 151 -100
51 -120 68 -101 91 23 27 76 18 118 -20 l38 -34 58 58 57 58 -26 31 c-14 17
-49 42 -77 56 -42 21 -66 26 -127 26 -42 -1 -89 -7 -106 -14z"/>
<path fill="#5268E7" d="M19685 23976 c-38 -17 -90 -72 -104 -109 -16 -41 -13 -87 8 -132 25
-54 61 -86 156 -136 118 -62 133 -79 99 -113 -30 -31 -101 -16 -177 37 -16 10
-24 5 -67 -40 -28 -28 -50 -57 -50 -63 0 -17 53 -65 97 -86 26 -12 67 -20 126
-22 78 -4 93 -1 140 22 96 47 135 135 106 239 -15 53 -67 101 -168 151 -100
51 -120 68 -101 91 23 27 76 18 118 -20 l38 -34 58 58 57 58 -26 31 c-14 17
-49 42 -77 56 -42 21 -66 26 -127 26 -42 -1 -89 -7 -106 -14z"/>
<path fill="#5268E7" d="M8684 23926 c-29 -29 -34 -41 -34 -80 0 -88 46 -137 129 -138 80 0
131 49 131 127 0 81 -48 125 -136 125 -50 0 -59 -3 -90 -34z"/>
<path fill="#5268E7" d="M11864 23926 c-29 -29 -34 -41 -34 -80 0 -88 46 -137 129 -138 80 0
131 49 131 127 0 81 -48 125 -136 125 -50 0 -59 -3 -90 -34z"/>
<path fill="#5268E7" d="M12674 23926 c-29 -29 -34 -41 -34 -80 0 -88 46 -137 129 -138 80 0
131 49 131 127 0 81 -48 125 -136 125 -50 0 -59 -3 -90 -34z"/>
<path fill="#5268E7" d="M6213 23924 c-56 -20 -126 -84 -152 -139 -28 -59 -28 -163 -1 -223
25 -56 107 -141 253 -264 117 -99 147 -136 147 -180 -1 -73 -119 -115 -194
-68 -18 10 -47 40 -65 65 -18 25 -37 45 -42 45 -21 0 -168 -96 -169 -109 0
-24 60 -109 107 -151 71 -62 138 -83 258 -78 114 4 167 24 229 84 65 63 81
106 81 214 0 139 -27 182 -217 342 -174 146 -198 171 -198 201 0 40 32 67 81
67 48 0 96 -26 137 -75 l28 -34 74 66 c41 36 76 72 78 78 6 23 -124 132 -183
154 -67 25 -188 27 -252 5z"/>
<path fill="#5268E7" d="M12260 23790 l0 -150 -50 0 -50 0 0 -90 0 -90 50 0 50 0 0 -315 0
-315 105 0 105 0 0 315 0 315 60 0 60 0 0 90 0 90 -60 0 -60 0 0 150 0 150
-105 0 -105 0 0 -150z"/>
<path fill="#5268E7" d="M17020 23640 l0 -80 160 0 160 0 0 80 0 80 -160 0 -160 0 0 -80z"/>
<path fill="#5268E7" d="M7068 23641 c-137 -55 -229 -163 -259 -303 -16 -73 -6 -201 21 -271
31 -82 120 -175 202 -213 60 -27 70 -29 198 -29 131 0 137 1 202 32 60 28 158
111 158 132 0 5 -39 26 -87 49 -86 40 -88 40 -108 22 -62 -58 -199 -79 -273
-41 -59 30 -112 97 -112 142 0 5 126 9 314 9 365 0 334 -12 316 122 -20 155
-101 271 -230 332 -59 28 -75 31 -180 33 -94 3 -124 0 -162 -16z m281 -194
c37 -25 81 -78 81 -99 0 -5 -92 -8 -205 -8 -113 0 -205 2 -205 5 0 14 30 62
52 82 42 39 88 53 164 51 58 -3 78 -8 113 -31z"/>
<path fill="#5268E7" d="M8126 23645 c-21 -7 -55 -25 -75 -39 l-36 -26 -3 30 -3 30 -105 0
-104 0 0 -405 0 -405 105 0 105 0 0 238 c0 143 5 253 11 277 7 24 29 57 54 82
39 39 47 43 92 43 36 0 58 -6 78 -22 50 -39 55 -67 62 -353 l6 -265 99 0 98 0
0 308 c0 339 -4 366 -60 434 -48 58 -119 88 -209 88 -42 -1 -93 -7 -115 -15z"/>
<path fill="#5268E7" d="M9290 23640 c-114 -42 -223 -158 -254 -271 -20 -71 -20 -190 0 -260
32 -109 117 -207 224 -258 50 -24 66 -26 175 -26 110 0 125 2 178 27 169 79
257 230 245 421 -10 154 -95 280 -235 349 -61 30 -76 33 -173 36 -85 2 -115
-1 -160 -18z m233 -183 c44 -19 103 -87 116 -134 25 -89 8 -180 -45 -242 -43
-49 -89 -71 -153 -71 -68 0 -108 18 -153 68 -81 90 -79 242 5 331 18 18 46 39
62 47 39 17 127 18 168 1z"/>
<path fill="#5268E7" d="M10235 23646 c-17 -7 -43 -28 -58 -45 l-27 -33 0 36 0 36 -90 0 -90
0 0 -405 0 -405 105 0 105 0 0 245 c0 267 8 329 48 376 24 29 30 31 72 26 l46
-6 32 86 c18 48 30 89 27 92 -13 13 -141 11 -170 -3z"/>
<path fill="#5268E7" d="M11197 23650 c-97 -25 -212 -110 -261 -194 -67 -114 -75 -279 -19
-396 44 -95 100 -153 191 -197 74 -37 80 -38 201 -41 109 -3 135 -1 190 18 69
23 129 60 174 108 l29 30 -76 51 c-76 52 -99 60 -112 40 -3 -6 -30 -22 -58
-35 -69 -32 -180 -34 -243 -3 -132 64 -166 249 -65 361 51 57 101 78 188 78
55 0 81 -5 121 -25 28 -15 57 -32 63 -40 13 -15 38 -5 149 58 l43 25 -42 46
c-27 29 -71 60 -118 83 -72 36 -78 37 -196 40 -66 1 -138 -2 -159 -7z"/>
<path fill="#5268E7" d="M13968 23641 c-137 -55 -229 -163 -259 -303 -16 -73 -6 -201 21 -271
31 -82 120 -175 202 -213 60 -27 70 -29 198 -29 131 0 137 1 202 32 60 28 158
111 158 132 0 5 -39 26 -87 49 -86 40 -88 40 -108 22 -62 -58 -199 -79 -273
-41 -59 30 -112 97 -112 142 0 5 126 9 314 9 365 0 334 -12 316 122 -20 155
-101 271 -230 332 -59 28 -75 31 -180 33 -94 3 -124 0 -162 -16z m281 -194
c37 -25 81 -78 81 -99 0 -5 -92 -8 -205 -8 -113 0 -205 2 -205 5 0 14 30 62
52 82 42 39 88 53 164 51 58 -3 78 -8 113 -31z"/>
<path fill="#5268E7" d="M15026 23645 c-21 -7 -55 -25 -75 -39 l-36 -26 -3 30 -3 30 -105 0
-104 0 0 -405 0 -405 105 0 105 0 0 238 c0 143 5 253 11 277 7 24 29 57 54 82
39 39 47 43 92 43 36 0 58 -6 78 -22 50 -39 55 -67 62 -353 l6 -265 99 0 98 0
0 308 c0 339 -4 366 -60 434 -48 58 -119 88 -209 88 -42 -1 -93 -7 -115 -15z"/>
<path fill="#5268E7" d="M8670 23235 l0 -405 105 0 105 0 0 405 0 405 -105 0 -105 0 0 -405z"/>
<path fill="#5268E7" d="M11850 23235 l0 -405 105 0 105 0 0 405 0 405 -105 0 -105 0 0 -405z"/>
<path fill="#5268E7" d="M12660 23235 l0 -405 105 0 105 0 0 405 0 405 -105 0 -105 0 0 -405z"/>
<path fill="#5268E7" d="M13010 23550 l0 -90 145 0 c80 0 145 -3 145 -6 0 -3 -76 -140 -170
-304 -93 -164 -170 -303 -170 -309 0 -8 99 -11 325 -11 l325 0 0 90 0 90 -164
2 -165 3 171 300 c94 165 172 306 175 313 4 9 -61 12 -306 12 l-311 0 0 -90z"/>
<path fill="#5268E7" d="M17185 22291 c-45 -27 -83 -77 -91 -117 -24 -129 57 -235 180 -235
110 0 186 76 186 186 0 75 -37 137 -102 171 -39 21 -136 18 -173 -5z"/>
<path fill="#5268E7" d="M18975 22291 c-45 -27 -83 -77 -91 -117 -24 -129 57 -235 180 -235
110 0 186 76 186 186 0 75 -37 137 -102 171 -39 21 -136 18 -173 -5z"/>
<path fill="#5268E7" d="M15580 22266 c-175 -40 -319 -123 -435 -248 -111 -120 -175 -263
-195 -438 -20 -176 6 -332 82 -490 44 -92 61 -115 142 -195 77 -77 106 -99
186 -138 147 -72 195 -82 405 -82 161 0 188 3 255 23 129 41 248 112 365 220
54 51 61 35 -74 174 l-84 87 -53 -48 c-71 -65 -154 -119 -222 -144 -71 -26
-232 -35 -311 -17 -175 38 -318 168 -372 339 -30 94 -30 242 0 331 49 144 160
262 302 322 47 19 71 22 189 22 117 0 143 -3 191 -22 72 -29 167 -90 228 -147
l48 -45 107 102 107 101 -48 49 c-94 97 -236 183 -378 228 -58 19 -98 23 -225
26 -102 2 -174 -1 -210 -10z"/>
<path fill="#5268E7" d="M16620 21490 l0 -790 145 0 145 0 0 790 0 790 -145 0 -145 0 0 -790z"/>
<path fill="#5268E7" d="M8820 21470 l0 -770 150 0 150 0 0 345 0 345 235 0 235 0 0 145 0
145 -235 0 -235 0 0 135 0 135 235 0 235 0 0 145 0 145 -385 0 -385 0 0 -770z"/>
<path fill="#5268E7" d="M10152 21845 c-187 -60 -342 -232 -381 -423 -16 -77 -14 -248 4 -317
51 -201 208 -357 413 -410 83 -21 275 -21 357 0 126 33 250 114 316 206 l20
29 -117 55 c-64 30 -121 55 -127 55 -5 0 -23 -11 -39 -26 -65 -54 -127 -77
-221 -82 -66 -3 -98 0 -132 12 -95 37 -162 107 -190 200 l-14 46 454 0 455 0
0 88 c0 230 -112 427 -298 525 -94 50 -174 67 -312 66 -93 0 -129 -4 -188 -24z
m321 -241 c72 -24 177 -128 177 -174 0 -7 -96 -10 -295 -10 -162 0 -295 3
-295 8 0 13 41 76 69 105 26 29 85 64 131 78 45 13 165 10 213 -7z"/>
<path fill="#5268E7" d="M12702 21845 c-187 -60 -342 -232 -381 -423 -16 -77 -14 -248 4 -317
51 -201 208 -357 413 -410 83 -21 275 -21 357 0 126 33 250 114 316 206 l20
29 -117 55 c-64 30 -121 55 -127 55 -5 0 -23 -11 -39 -26 -65 -54 -127 -77
-221 -82 -66 -3 -98 0 -132 12 -95 37 -162 107 -190 200 l-14 46 454 0 455 0
0 88 c0 230 -112 427 -298 525 -94 50 -174 67 -312 66 -93 0 -129 -4 -188 -24z
m321 -241 c72 -24 177 -128 177 -174 0 -7 -96 -10 -295 -10 -162 0 -295 3
-295 8 0 13 41 76 69 105 26 29 85 64 131 78 45 13 165 10 213 -7z"/>
<path fill="#5268E7" d="M14033 21851 c-23 -11 -60 -38 -82 -61 l-41 -42 0 46 0 46 -130 0
-130 0 0 -570 0 -570 145 0 145 0 0 293 c0 424 13 518 82 590 38 41 49 43 142
25 16 -2 26 16 62 112 24 63 43 118 44 122 0 13 -66 28 -129 28 -43 0 -81 -7
-108 -19z"/>
<path fill="#5268E7" d="M18165 21856 c-54 -17 -100 -42 -157 -83 l-48 -35 0 51 0 51 -145 0
-145 0 0 -570 0 -570 145 0 145 0 0 293 c0 315 8 404 41 470 49 97 119 141
214 135 101 -6 145 -53 165 -176 6 -31 10 -207 10 -389 l0 -333 145 0 145 0 0
423 c0 469 -3 502 -63 589 -41 61 -110 114 -181 138 -65 23 -207 26 -271 6z"/>
<path fill="#5268E7" d="M19865 21854 c-198 -48 -376 -211 -434 -399 -96 -308 64 -635 363
-742 71 -25 137 -34 256 -34 135 0 239 23 332 73 61 33 178 134 178 154 0 12
-209 154 -227 154 -6 0 -17 -7 -24 -16 -22 -27 -80 -59 -137 -79 -81 -26 -229
-18 -297 17 -64 34 -118 90 -147 153 -34 74 -32 199 3 276 32 68 82 120 152
156 48 26 61 28 167 28 128 0 169 -13 246 -79 l40 -34 121 66 c139 75 137 68
46 156 -65 65 -183 129 -274 151 -82 19 -283 18 -364 -1z"/>
<path fill="#5268E7" d="M21001 21854 c-87 -31 -158 -91 -199 -169 -22 -42 -26 -63 -26 -135
-1 -74 3 -92 27 -138 50 -95 125 -156 303 -245 152 -76 190 -135 123 -191 -59
-50 -178 -26 -280 55 -22 17 -43 29 -47 27 -13 -5 -172 -180 -172 -189 0 -4
22 -30 50 -58 101 -101 244 -146 415 -130 107 10 180 42 246 108 77 78 102
145 97 261 -8 163 -73 238 -318 365 -128 66 -156 85 -165 109 -8 25 -6 31 18
52 54 46 133 29 222 -49 l48 -43 86 89 c47 49 86 95 86 103 0 7 -17 31 -39 54
-93 99 -194 140 -338 140 -57 -1 -110 -7 -137 -16z"/>
<path fill="#5268E7" d="M11056 21818 c3 -12 111 -267 240 -567 l233 -546 97 0 97 0 242 568
243 567 -152 0 -151 0 -139 -325 -139 -325 -140 325 -139 325 -150 0 c-149 0
-149 0 -142 -22z"/>
<path fill="#5268E7" d="M17130 21270 l0 -570 145 0 145 0 0 570 0 570 -145 0 -145 0 0 -570z"/>
<path fill="#5268E7" d="M18920 21270 l0 -570 145 0 145 0 0 570 0 570 -145 0 -145 0 0 -570z"/>
<path fill="#5268E7" d="M6559 20611 c-59 -59 -30 -162 51 -180 80 -18 140 28 140 106 0 36
-6 50 -29 74 -25 25 -37 29 -81 29 -44 0 -56 -4 -81 -29z"/>
<path fill="#5268E7" d="M4132 20609 c-87 -43 -144 -149 -127 -236 15 -84 57 -136 219 -274
114 -97 146 -142 126 -179 -41 -76 -156 -63 -209 24 -13 20 -27 36 -33 36 -11
0 -148 -80 -148 -87 0 -17 47 -90 78 -121 56 -56 104 -76 197 -80 97 -5 146 7
202 48 89 66 120 206 69 315 -24 52 -67 96 -224 229 -99 84 -116 114 -87 146
36 40 128 15 172 -46 l18 -24 68 61 68 62 -48 50 c-68 70 -129 97 -223 97 -56
0 -86 -5 -118 -21z"/>
<path fill="#5268E7" d="M4857 20365 c-48 -18 -118 -68 -144 -104 -58 -77 -68 -111 -68 -221
0 -87 4 -113 22 -152 27 -59 95 -127 154 -156 90 -44 261 -44 352 -2 45 21
127 91 127 108 0 5 -32 23 -72 40 l-72 32 -40 -27 c-36 -25 -50 -28 -122 -28
-72 0 -84 3 -116 27 -19 15 -42 42 -51 60 l-16 33 267 5 267 5 -3 60 c-8 162
-91 280 -228 321 -59 18 -207 17 -257 -1z m222 -150 c30 -15 81 -70 81 -86 0
-5 -73 -9 -171 -9 l-171 0 20 33 c31 49 86 77 155 77 32 0 71 -7 86 -15z"/>
<path fill="#5268E7" d="M5628 20355 c-20 -13 -38 -30 -41 -37 -3 -7 -6 2 -6 20 l-1 32 -75 0
-75 0 0 -335 0 -335 90 0 90 0 0 216 c-1 206 0 219 22 263 23 45 24 46 69 45
l46 -2 23 64 c12 35 25 64 29 64 3 0 69 -146 145 -325 l139 -325 57 0 57 0
137 321 c75 176 140 327 143 335 5 13 -9 14 -86 12 l-92 -3 -77 -177 c-42 -98
-79 -178 -82 -178 -3 0 -38 78 -79 173 -41 94 -77 175 -80 178 -3 4 -76 9
-161 13 -154 6 -155 6 -192 -19z"/>
<path fill="#5268E7" d="M7073 20362 c-106 -38 -185 -116 -219 -216 -23 -68 -16 -195 15 -254
33 -65 96 -128 156 -157 93 -46 269 -49 367 -7 45 20 128 86 128 103 0 12
-116 89 -134 89 -8 0 -18 -5 -22 -11 -15 -24 -90 -49 -152 -49 -125 0 -196 68
-194 187 2 69 51 138 115 162 71 27 179 8 232 -40 20 -18 22 -17 93 22 63 35
71 42 62 58 -14 28 -66 69 -124 99 -44 23 -65 26 -161 29 -88 3 -121 0 -162
-15z"/>
<path fill="#5268E7" d="M7857 20365 c-48 -18 -118 -68 -144 -104 -58 -77 -68 -111 -68 -221
0 -87 4 -113 22 -152 27 -59 95 -127 154 -156 90 -44 261 -44 352 -2 45 21
127 91 127 108 0 5 -32 23 -72 40 l-72 32 -40 -27 c-36 -25 -50 -28 -122 -28
-72 0 -84 3 -116 27 -19 15 -42 42 -51 60 l-16 33 267 5 267 5 -3 60 c-8 162
-91 280 -228 321 -59 18 -207 17 -257 -1z m222 -150 c30 -15 81 -70 81 -86 0
-5 -73 -9 -171 -9 l-171 0 20 33 c31 49 86 77 155 77 32 0 71 -7 86 -15z"/>
<path fill="#5268E7" d="M8555 20366 c-38 -17 -90 -72 -104 -109 -16 -41 -13 -87 8 -132 25
-54 61 -86 156 -136 118 -62 133 -79 99 -113 -30 -31 -103 -15 -176 36 -15 11
-24 7 -59 -27 -72 -70 -72 -88 -5 -134 58 -39 104 -52 187 -52 169 0 269 116
228 264 -15 53 -67 101 -168 151 -100 51 -120 68 -101 91 23 27 76 18 118 -20
l38 -34 58 58 57 58 -26 31 c-14 17 -49 42 -77 56 -42 21 -66 26 -127 26 -42
-1 -89 -7 -106 -14z"/>
<path fill="#5268E7" d="M6550 20035 l0 -335 90 0 90 0 0 335 0 335 -90 0 -90 0 0 -335z"/>
<path fill="#5268E7" d="M15820 19950 l0 -130 -45 0 -45 0 0 -75 0 -75 45 0 45 0 0 -260 0
-260 90 0 90 0 0 260 0 260 45 0 45 0 0 75 0 75 -45 0 -45 0 0 130 0 130 -90
0 -90 0 0 -130z"/>
<path fill="#5268E7" d="M16980 19615 l0 -465 90 0 90 0 0 465 0 465 -90 0 -90 0 0 -465z"/>
<path fill="#5268E7" d="M20100 19615 l0 -465 90 0 90 0 0 465 0 465 -90 0 -90 0 0 -465z"/>
<path fill="#5268E7" d="M20440 19950 l0 -130 -45 0 -45 0 0 -75 0 -75 45 0 45 0 0 -260 0
-260 90 0 90 0 0 260 0 260 45 0 45 0 0 75 0 75 -45 0 -45 0 0 130 0 130 -90
0 -90 0 0 -130z"/>
<path fill="#5268E7" d="M20790 19615 l0 -465 90 0 90 0 0 200 c0 222 5 247 59 293 66 55 159
27 175 -54 3 -18 6 -123 6 -235 l0 -204 90 0 90 0 0 243 c0 276 -8 321 -62
374 -46 45 -96 63 -174 63 -54 0 -78 -6 -125 -30 l-59 -30 0 155 0 155 -90 0
-90 0 0 -465z"/>
<path fill="#5268E7" d="M13220 20049 c0 -6 -34 -207 -75 -445 -41 -238 -75 -438 -75 -444 0
-6 34 -10 88 -10 l87 0 44 258 c24 141 47 263 50 269 4 7 47 -109 96 -258 l90
-270 79 3 79 3 93 275 c51 151 93 271 93 265 1 -5 21 -127 46 -270 25 -143 45
-263 45 -267 0 -5 41 -8 91 -8 81 0 90 2 85 18 -2 9 -37 214 -78 455 l-73 438
-89 -3 -89 -3 -98 -290 c-54 -159 -100 -294 -102 -300 -2 -5 -49 125 -104 290
l-100 300 -91 3 c-65 2 -92 -1 -92 -9z"/>
<path fill="#5268E7" d="M17660 19605 l0 -455 90 0 90 0 0 195 0 195 145 0 145 0 0 -195 0
-195 90 0 90 0 0 455 0 455 -90 0 -90 0 0 -170 0 -170 -145 0 -145 0 0 170 0
170 -90 0 -90 0 0 -455z"/>
<path fill="#5268E7" d="M14427 19815 c-48 -18 -118 -68 -144 -104 -58 -77 -68 -111 -68 -221
0 -87 4 -113 22 -152 27 -60 95 -127 158 -159 45 -22 63 -24 175 -24 111 0
130 3 172 24 46 22 128 93 128 109 0 5 -32 23 -72 40 l-72 32 -40 -27 c-36
-25 -50 -28 -122 -28 -72 0 -84 3 -116 27 -19 15 -42 42 -51 60 l-16 33 267 5
267 5 -3 60 c-8 162 -91 280 -228 321 -59 18 -207 17 -257 -1z m222 -150 c30
-15 81 -70 81 -86 0 -5 -73 -9 -171 -9 l-171 0 20 33 c31 49 86 77 155 77 32
0 71 -7 86 -15z"/>
<path fill="#5268E7" d="M15286 19801 l-56 -30 0 25 c0 24 -1 24 -90 24 l-90 0 0 -335 0 -335
90 0 90 0 0 200 c0 222 5 247 59 293 65 54 159 25 175 -54 3 -18 6 -123 6
-235 l0 -204 90 0 90 0 0 235 c0 266 -8 320 -53 372 -46 52 -98 73 -183 73
-61 0 -81 -5 -128 -29z"/>
<path fill="#5268E7" d="M16325 19806 c-65 -31 -121 -88 -154 -156 -23 -48 -26 -67 -26 -160
0 -95 3 -111 28 -162 34 -70 110 -140 174 -162 54 -19 165 -21 214 -5 19 7 49
23 67 36 l32 24 0 -35 0 -36 90 0 90 0 0 335 0 335 -90 0 -90 0 0 -32 c0 -29
-1 -30 -18 -15 -67 61 -224 77 -317 33z m244 -151 c124 -63 129 -243 11 -323
-29 -20 -45 -23 -95 -20 -110 7 -171 78 -163 193 4 69 30 114 82 146 38 23
125 25 165 4z"/>
<path fill="#5268E7" d="M18677 19815 c-48 -18 -118 -68 -144 -104 -58 -77 -68 -111 -68 -221
0 -87 4 -113 22 -152 27 -60 95 -127 158 -159 45 -22 63 -24 175 -24 111 0
130 3 172 24 46 22 128 93 128 109 0 5 -32 23 -72 40 l-72 32 -40 -27 c-36
-25 -50 -28 -122 -28 -72 0 -84 3 -116 27 -19 15 -42 42 -51 60 l-16 33 267 5
267 5 -3 60 c-8 162 -91 280 -228 321 -59 18 -207 17 -257 -1z m222 -150 c30
-15 81 -70 81 -86 0 -5 -73 -9 -171 -9 l-171 0 20 33 c31 49 86 77 155 77 32
0 71 -7 86 -15z"/>
<path fill="#5268E7" d="M19445 19806 c-65 -31 -121 -88 -154 -156 -23 -48 -26 -67 -26 -160
0 -95 3 -111 28 -162 34 -70 110 -140 174 -162 54 -19 165 -21 214 -5 19 7 49
23 67 36 l32 24 0 -35 0 -36 90 0 90 0 0 335 0 335 -90 0 -90 0 0 -32 c0 -29
-1 -30 -18 -15 -67 61 -224 77 -317 33z m244 -151 c124 -63 129 -243 11 -323
-29 -20 -45 -23 -95 -20 -110 7 -171 78 -163 193 4 69 30 114 82 146 38 23
125 25 165 4z"/>
<path fill="#5268E7" d="M8845 19031 c-45 -27 -83 -77 -91 -117 -24 -129 57 -235 180 -235
110 0 186 76 186 186 0 75 -37 137 -102 171 -39 21 -136 18 -173 -5z"/>
<path fill="#5268E7" d="M11340 18230 l0 -790 145 0 145 0 0 790 0 790 -145 0 -145 0 0 -790z"/>
<path fill="#5268E7" d="M9360 18790 l0 -210 -70 0 -70 0 0 -125 0 -125 70 0 70 0 0 -445 0
-445 150 0 150 0 0 445 0 445 80 0 80 0 0 125 0 125 -80 0 -80 0 0 210 0 210
-150 0 -150 0 0 -210z"/>
<path fill="#5268E7" d="M3710 18210 l0 -770 150 0 150 0 0 335 0 335 255 0 255 0 0 -335 0
-335 150 0 150 0 0 770 0 770 -150 0 -150 0 0 -290 0 -290 -255 0 -255 0 0
290 0 290 -150 0 -150 0 0 -770z"/>
<path fill="#5268E7" d="M20274 18646 c-29 -29 -34 -41 -34 -80 0 -88 46 -137 129 -138 80 0
131 49 131 127 0 81 -48 125 -136 125 -50 0 -59 -3 -90 -34z"/>
<path fill="#5268E7" d="M14560 18105 l0 -555 105 0 105 0 0 248 c0 278 5 299 74 360 31 27
45 32 85 32 34 0 56 -6 76 -22 52 -41 57 -70 63 -355 l5 -263 99 0 99 0 -3
328 c-3 315 -4 329 -25 368 -46 86 -131 133 -239 134 -78 0 -138 -17 -196 -56
l-38 -24 0 180 0 180 -105 0 -105 0 0 -555z"/>
<path fill="#5268E7" d="M13740 18095 l0 -545 105 0 105 0 0 234 0 234 108 4 c122 4 173 22
240 82 60 54 86 123 86 226 1 72 -4 93 -26 140 -31 65 -41 77 -88 112 -61 46
-133 58 -342 58 l-188 0 0 -545z m404 306 c33 -31 42 -80 22 -118 -19 -37 -50
-50 -143 -58 l-73 -6 0 106 0 107 84 -3 c73 -4 88 -7 110 -28z"/>
<path fill="#5268E7" d="M5510 18596 c-73 -21 -119 -43 -185 -91 -129 -92 -214 -223 -240
-370 -18 -100 -18 -140 0 -240 38 -213 214 -406 421 -460 77 -20 241 -20 319
0 152 39 302 157 373 292 93 178 93 398 0 576 -68 130 -226 253 -374 292 -71
18 -250 19 -314 1z m285 -280 c62 -29 117 -86 147 -151 19 -42 23 -67 23 -150
0 -89 -3 -106 -28 -157 -93 -189 -343 -229 -483 -76 -146 159 -97 446 91 534
71 33 180 33 250 0z"/>
<path fill="#5268E7" d="M6671 18594 c-87 -31 -158 -91 -199 -169 -22 -42 -26 -63 -26 -135
-1 -74 3 -92 27 -138 50 -95 125 -156 303 -245 152 -76 190 -135 123 -191 -59
-50 -178 -26 -280 55 -22 17 -43 29 -47 27 -13 -5 -172 -180 -172 -189 0 -4
22 -30 50 -58 101 -101 244 -146 415 -130 107 10 180 42 246 108 77 78 102
145 97 261 -8 163 -73 238 -318 365 -128 66 -156 85 -165 109 -8 25 -6 31 18
52 54 46 133 29 222 -49 l48 -43 86 89 c47 49 86 95 86 103 0 7 -17 31 -39 54
-93 99 -194 140 -338 140 -57 -1 -110 -7 -137 -16z"/>
<path fill="#5268E7" d="M7908 18591 c-58 -19 -146 -69 -168 -97 -22 -25 -30 -15 -30 36 l0
50 -145 0 -145 0 0 -770 0 -770 145 0 145 0 0 256 0 256 38 -30 c91 -72 185
-103 310 -103 238 0 438 154 515 396 18 59 22 92 21 205 0 119 -3 145 -27 217
-51 153 -176 290 -314 344 -82 32 -263 37 -345 10z m219 -275 c114 -53 175
-158 176 -301 1 -67 -4 -90 -27 -140 -54 -120 -148 -185 -267 -185 -85 0 -147
22 -203 71 -120 106 -142 324 -47 456 62 86 135 122 246 122 53 1 82 -5 122
-23z"/>
<path fill="#5268E7" d="M10305 18596 c-180 -59 -326 -220 -370 -408 -22 -92 -19 -258 5 -352
26 -104 62 -167 144 -254 90 -95 196 -150 307 -160 151 -14 260 14 362 91 l47
37 0 -55 0 -55 150 0 150 0 0 570 0 570 -150 0 -150 0 0 -51 0 -51 -39 31
c-21 17 -70 46 -108 63 -63 31 -76 33 -188 35 -79 2 -134 -2 -160 -11z m343
-287 c69 -34 105 -71 138 -144 76 -166 13 -369 -138 -444 -51 -26 -73 -31
-133 -31 -165 0 -289 122 -303 297 -12 150 71 294 194 338 22 8 71 14 110 15
60 0 81 -5 132 -31z"/>
<path fill="#5268E7" d="M12061 18594 c-87 -31 -158 -91 -199 -169 -22 -42 -26 -63 -26 -135
-1 -74 3 -92 27 -138 50 -95 125 -156 303 -245 152 -76 190 -135 123 -191 -59
-50 -178 -26 -280 55 -22 17 -43 29 -47 27 -13 -5 -172 -180 -172 -189 0 -4
22 -30 50 -58 101 -101 244 -146 415 -130 107 10 180 42 246 108 77 78 102
145 97 261 -8 163 -73 238 -318 365 -128 66 -156 85 -165 109 -8 25 -6 31 18
52 54 46 133 29 222 -49 l48 -43 86 89 c47 49 86 95 86 103 0 7 -17 31 -39 54
-93 99 -194 140 -338 140 -57 -1 -110 -7 -137 -16z"/>
<path fill="#5268E7" d="M8790 18010 l0 -570 145 0 145 0 0 570 0 570 -145 0 -145 0 0 -570z"/>
<path fill="#5268E7" d="M15679 18366 c-122 -43 -221 -161 -250 -296 -16 -76 -7 -213 20 -283
41 -104 126 -190 229 -230 48 -19 176 -23 232 -7 20 5 57 23 83 40 l47 30 0
-35 0 -35 110 0 110 0 0 405 0 405 -109 0 -110 0 -3 -30 -3 -30 -38 25 c-21
14 -56 33 -79 41 -50 17 -190 18 -239 0z m278 -208 c84 -55 120 -204 74 -303
-22 -47 -74 -99 -114 -114 -45 -17 -124 -13 -165 8 -80 41 -117 107 -117 211
0 105 37 170 120 215 47 25 152 17 202 -17z"/>
<path fill="#5268E7" d="M16665 18366 c-17 -7 -43 -28 -58 -45 l-27 -33 0 36 0 36 -90 0 -90
0 0 -405 0 -405 105 0 105 0 0 245 c0 267 8 329 48 376 24 29 30 31 72 26 l46
-6 32 86 c18 48 30 89 27 92 -13 13 -141 11 -170 -3z"/>
<path fill="#5268E7" d="M17255 18364 c-22 -8 -57 -28 -77 -45 l-38 -30 0 36 0 35 -110 0
-110 0 0 -405 0 -405 109 0 110 0 3 258 c3 252 3 258 28 300 31 55 75 82 132
82 56 0 89 -24 114 -82 15 -37 18 -82 22 -300 l4 -258 103 0 104 0 3 258 c3
252 3 258 28 300 31 55 75 82 133 82 56 0 102 -34 117 -88 5 -21 10 -150 10
-294 l0 -258 111 0 112 0 -6 308 c-3 191 -10 323 -17 349 -16 55 -78 125 -135
152 -34 16 -64 21 -128 21 -73 0 -91 -4 -145 -30 -33 -17 -74 -46 -89 -64
l-29 -32 -39 44 c-54 62 -102 82 -200 81 -44 0 -98 -7 -120 -15z"/>
<path fill="#5268E7" d="M18559 18366 c-122 -43 -221 -161 -250 -296 -16 -76 -7 -213 20 -283
41 -104 126 -190 229 -230 48 -19 176 -23 232 -7 20 5 57 23 83 40 l47 30 0
-35 0 -35 110 0 110 0 0 405 0 405 -109 0 -110 0 -3 -30 -3 -30 -38 25 c-21
14 -56 33 -79 41 -50 17 -190 18 -239 0z m278 -208 c84 -55 120 -204 74 -303
-22 -47 -74 -99 -114 -114 -45 -17 -124 -13 -165 8 -80 41 -117 107 -117 211
0 105 37 170 120 215 47 25 152 17 202 -17z"/>
<path fill="#5268E7" d="M19607 18370 c-97 -25 -212 -110 -261 -194 -67 -114 -75 -279 -19
-396 44 -95 100 -153 191 -197 74 -37 80 -38 201 -41 109 -3 135 -1 190 18 69
23 129 60 174 108 l29 30 -76 51 c-76 52 -99 60 -112 40 -3 -6 -30 -22 -58
-35 -69 -32 -180 -34 -243 -3 -132 64 -166 249 -65 361 51 57 101 78 188 78
55 0 81 -5 121 -25 28 -15 57 -32 63 -40 13 -15 38 -5 149 58 l43 25 -42 46
c-27 29 -71 60 -118 83 -72 36 -78 37 -196 40 -66 1 -138 -2 -159 -7z"/>
<path fill="#5268E7" d="M20878 18361 c-137 -55 -229 -163 -259 -303 -16 -73 -6 -201 21 -271
31 -82 120 -175 202 -213 60 -27 70 -29 198 -29 131 0 137 1 202 32 60 28 158
111 158 132 0 5 -39 26 -87 49 -86 40 -88 40 -108 22 -62 -58 -199 -79 -273
-41 -59 30 -112 97 -112 142 0 5 126 9 314 9 365 0 334 -12 316 122 -20 155
-101 271 -230 332 -59 28 -75 31 -180 33 -94 3 -124 0 -162 -16z m281 -194
c37 -25 81 -78 81 -99 0 -5 -92 -8 -205 -8 -113 0 -205 2 -205 5 0 14 30 62
52 82 42 39 88 53 164 51 58 -3 78 -8 113 -31z"/>
<path fill="#5268E7" d="M21702 18354 c-113 -57 -163 -196 -108 -302 27 -51 99 -111 198 -163
111 -58 137 -86 120 -124 -22 -48 -118 -46 -189 4 -24 17 -47 31 -51 31 -4 0
-37 -30 -72 -66 l-65 -65 48 -44 c65 -60 136 -85 241 -85 133 0 210 37 263
128 24 40 28 58 28 122 0 64 -4 82 -27 122 -33 54 -92 100 -204 156 -112 56
-130 75 -98 106 26 26 86 20 132 -13 22 -16 43 -35 47 -41 8 -13 135 106 135
126 0 19 -71 83 -119 106 -35 18 -67 24 -136 26 -81 3 -95 1 -143 -24z"/>
<path fill="#5268E7" d="M20260 17955 l0 -405 105 0 105 0 0 405 0 405 -105 0 -105 0 0 -405z"/>
<path fill="#5268E7" d="M11494 16936 c-29 -29 -34 -41 -34 -80 0 -88 46 -137 129 -138 80 0
131 49 131 127 0 81 -48 125 -136 125 -50 0 -59 -3 -90 -34z"/>
<path fill="#5268E7" d="M15250 16800 l0 -150 -50 0 -50 0 0 -90 0 -90 50 0 50 0 0 -315 0
-315 105 0 105 0 0 315 0 315 60 0 60 0 0 90 0 90 -60 0 -60 0 0 150 0 150
-105 0 -105 0 0 -150z"/>
<path fill="#5268E7" d="M18740 16395 l0 -555 105 0 105 0 2 176 3 177 163 -177 163 -176 125
0 c81 0 124 4 124 11 0 6 -84 100 -186 210 -102 109 -184 203 -182 208 1 5 71
85 153 177 83 92 156 176 163 186 13 17 7 18 -120 18 l-133 -1 -135 -153 -135
-153 -3 303 -2 304 -105 0 -105 0 0 -555z"/>
<path fill="#5268E7" d="M10280 16926 c0 -2 -40 -239 -90 -527 -49 -287 -90 -530 -90 -540 0
-17 9 -19 103 -19 l102 0 54 318 c30 174 57 320 60 324 4 4 55 -139 114 -317
l109 -325 93 0 93 0 113 332 113 332 56 -329 56 -330 102 -3 c101 -3 102 -2
101 20 0 13 -39 257 -87 543 l-88 520 -106 3 -106 3 -123 -368 -122 -368 -122
365 -122 365 -106 3 c-59 1 -107 1 -107 -2z"/>
<path fill="#5268E7" d="M12100 16661 c-186 -57 -294 -252 -262 -472 15 -101 57 -183 129
-249 70 -64 142 -91 244 -91 90 0 143 12 190 44 19 13 39 26 45 29 7 5 8 -10
3 -49 -8 -62 -32 -93 -91 -124 -72 -37 -253 -17 -282 30 -7 11 -246 17 -246 6
0 -3 11 -27 24 -53 33 -64 99 -125 171 -159 58 -27 66 -28 215 -28 150 0 157
1 218 29 80 37 154 116 179 189 15 45 18 106 21 470 l3 417 -100 0 -101 0 0
-35 0 -36 -45 31 c-25 17 -63 37 -86 45 -44 16 -185 19 -229 6z m255 -204 c21
-12 53 -41 69 -65 53 -76 48 -212 -11 -283 -38 -45 -93 -69 -158 -69 -149 0
-247 140 -204 293 12 45 72 115 114 133 49 22 144 17 190 -9z"/>
<path fill="#5268E7" d="M13075 16656 c-17 -7 -43 -28 -58 -45 l-27 -33 0 36 0 36 -90 0 -90
0 0 -405 0 -405 105 0 105 0 0 245 c0 267 8 329 48 376 24 29 30 31 72 26 l46
-6 32 86 c18 48 30 89 27 92 -13 13 -141 11 -170 -3z"/>
<path fill="#5268E7" d="M13559 16656 c-122 -43 -221 -161 -250 -296 -16 -76 -7 -213 20 -283
59 -151 192 -247 346 -248 89 -1 136 12 198 51 l47 30 0 -35 0 -35 110 0 110
0 0 405 0 405 -109 0 -110 0 -3 -30 -3 -30 -38 25 c-21 14 -56 33 -79 41 -50
17 -190 18 -239 0z m278 -208 c84 -55 120 -204 74 -303 -22 -47 -74 -99 -114
-114 -45 -17 -124 -13 -165 8 -80 41 -117 107 -117 211 0 105 37 170 120 215
47 25 152 17 202 -17z"/>
<path fill="#5268E7" d="M14656 16655 c-21 -7 -55 -25 -75 -39 l-36 -26 -3 30 -3 30 -105 0
-104 0 0 -405 0 -405 105 0 105 0 0 238 c0 143 5 253 11 277 7 24 29 57 54 82
39 39 47 43 92 43 36 0 58 -6 78 -22 50 -39 55 -67 62 -353 l6 -265 99 0 98 0
0 308 c0 339 -4 366 -60 434 -48 58 -119 88 -209 88 -42 -1 -93 -7 -115 -15z"/>
<path fill="#5268E7" d="M17530 16650 c-114 -42 -223 -158 -254 -271 -20 -71 -20 -190 0 -260
44 -152 182 -270 336 -287 289 -33 503 167 486 451 -10 154 -95 280 -235 349
-61 30 -76 33 -173 36 -85 2 -115 -1 -160 -18z m233 -183 c44 -19 103 -87 116
-134 25 -89 8 -180 -45 -242 -43 -49 -89 -71 -153 -71 -68 0 -108 18 -153 68
-81 90 -79 242 5 331 18 18 46 39 62 47 39 17 127 18 168 1z"/>
<path fill="#5268E7" d="M18475 16656 c-17 -7 -43 -28 -58 -45 l-27 -33 0 36 0 36 -90 0 -90
0 0 -405 0 -405 105 0 105 0 0 245 c0 267 8 329 48 376 24 29 30 31 72 26 l46
-6 32 86 c18 48 30 89 27 92 -13 13 -141 11 -170 -3z"/>
<path fill="#5268E7" d="M19838 16651 c-137 -55 -229 -163 -259 -303 -16 -73 -6 -201 21 -271
31 -81 120 -175 200 -211 115 -52 291 -51 405 2 57 27 155 110 155 131 0 5
-39 26 -87 49 -86 40 -88 40 -108 22 -62 -58 -199 -79 -273 -41 -59 30 -112
97 -112 142 0 5 126 9 314 9 365 0 334 -12 316 122 -20 155 -101 271 -230 332
-59 28 -75 31 -180 33 -94 3 -124 0 -162 -16z m281 -194 c37 -25 81 -78 81
-99 0 -5 -92 -8 -205 -8 -113 0 -205 2 -205 5 0 14 30 62 52 82 42 39 88 53
164 51 58 -3 78 -8 113 -31z"/>
<path fill="#5268E7" d="M20785 16656 c-17 -7 -43 -28 -58 -45 l-27 -33 0 36 0 36 -90 0 -90
0 0 -405 0 -405 105 0 105 0 0 245 c0 267 8 329 48 376 24 29 30 31 72 26 l46
-6 32 86 c18 48 30 89 27 92 -13 13 -141 11 -170 -3z"/>
<path fill="#5268E7" d="M21142 16644 c-113 -57 -163 -196 -108 -302 27 -51 99 -111 198 -163
111 -58 137 -86 120 -124 -22 -48 -118 -46 -189 4 -24 17 -47 31 -51 31 -4 0
-37 -30 -72 -66 l-65 -65 48 -44 c65 -60 139 -86 241 -86 131 0 210 39 263
129 24 40 28 58 28 122 0 64 -4 82 -27 122 -33 54 -92 100 -204 156 -112 56
-130 75 -98 106 26 26 86 20 132 -13 22 -16 43 -35 47 -41 8 -13 135 106 135
126 0 19 -71 83 -119 106 -35 18 -67 24 -136 26 -81 3 -95 1 -143 -24z"/>
<path fill="#5268E7" d="M11480 16245 l0 -405 105 0 105 0 0 405 0 405 -105 0 -105 0 0 -405z"/>
<path fill="#5268E7" d="M16012 16636 c2 -7 66 -189 143 -404 l140 -392 66 0 66 0 86 223 c66
172 87 217 94 202 4 -11 42 -110 83 -220 l76 -200 68 0 68 0 139 385 c77 212
142 393 145 403 5 15 -4 17 -99 17 l-104 0 -74 -210 c-41 -115 -76 -210 -79
-210 -3 0 -40 95 -84 210 l-79 210 -66 0 -67 0 -78 -207 c-43 -115 -81 -211
-85 -215 -3 -4 -40 89 -81 207 l-75 215 -103 0 c-82 0 -103 -3 -100 -14z"/>
<path fill="#5268E7" d="M16897 15429 c-74 -39 -115 -149 -87 -233 15 -45 62 -101 102 -122
17 -9 54 -15 84 -15 149 0 238 149 169 287 -35 71 -90 104 -170 104 -40 -1
-73 -7 -98 -21z"/>
<path fill="#5268E7" d="M14330 14600 l0 -820 155 0 155 0 0 820 0 820 -155 0 -155 0 0 -820z"/>
<path fill="#5268E7" d="M16310 14600 l0 -820 155 0 155 0 0 820 0 820 -155 0 -155 0 0 -820z"/>
<path fill="#5268E7" d="M11480 14580 l0 -800 155 0 155 0 0 350 0 350 260 0 260 0 0 -350 0
-350 160 0 160 0 0 800 0 800 -160 0 -160 0 0 -300 0 -300 -260 0 -260 0 0
300 0 300 -155 0 -155 0 0 -800z"/>
<path fill="#5268E7" d="M5135 15010 c-119 -38 -241 -153 -287 -270 -30 -77 -36 -226 -13
-306 50 -173 177 -298 341 -334 68 -16 220 -13 276 4 175 52 308 234 308 418
l0 48 -230 0 -230 0 0 -90 0 -90 126 0 127 0 -25 -32 c-14 -18 -50 -46 -79
-61 -50 -27 -60 -29 -144 -25 -67 3 -101 10 -132 26 -63 33 -111 79 -141 136
-22 43 -27 64 -27 131 0 92 20 139 82 200 61 60 107 78 205 83 77 4 92 2 143
-22 31 -14 75 -40 96 -57 l40 -31 62 58 c34 32 64 59 66 61 9 6 -46 56 -103
94 -86 58 -166 79 -295 78 -75 0 -123 -6 -166 -19z"/>
<path fill="#5268E7" d="M13330 14974 c-99 -26 -180 -74 -261 -154 -123 -122 -179 -262 -179
-450 0 -186 50 -311 175 -436 128 -129 249 -175 461 -175 205 1 328 46 452
168 41 40 72 78 70 84 -4 12 -222 118 -243 119 -6 0 -33 -17 -61 -38 -74 -56
-146 -75 -252 -70 -106 5 -169 34 -230 103 -34 39 -72 116 -72 147 0 4 212 8
471 8 l472 0 -5 113 c-11 244 -120 427 -315 530 -39 20 -99 43 -134 52 -82 19
-275 19 -349 -1z m303 -260 c56 -19 141 -92 167 -145 11 -21 20 -41 20 -44 0
-3 -140 -5 -311 -5 l-310 0 28 51 c34 63 90 113 157 138 64 25 184 27 249 5z"/>
<path fill="#5268E7" d="M15415 14977 c-62 -21 -141 -64 -180 -98 l-35 -31 0 56 0 56 -155 0
-155 0 0 -800 0 -800 155 0 155 0 0 266 0 266 23 -16 c120 -89 199 -117 328
-117 47 0 108 5 135 12 137 33 287 153 356 285 48 93 67 161 75 269 18 278
-103 507 -325 618 -84 41 -85 41 -211 44 -85 2 -139 -2 -166 -10z m223 -298
c111 -55 172 -159 173 -293 1 -84 -6 -115 -36 -176 -31 -60 -89 -118 -150
-146 -77 -37 -182 -34 -263 6 -68 34 -116 83 -144 146 -80 183 -15 389 147
466 49 23 73 28 136 28 65 0 85 -5 137 -31z"/>
<path fill="#5268E7" d="M17894 14967 c-34 -13 -88 -42 -120 -65 l-59 -42 -3 50 -3 50 -155 0
-154 0 0 -590 0 -590 154 0 155 0 3 358 3 357 28 60 c50 107 115 155 212 155
85 0 135 -34 172 -115 16 -36 18 -80 21 -427 l3 -388 155 0 154 0 0 378 c-1
458 -7 541 -50 628 -36 74 -100 135 -180 173 -47 22 -71 26 -165 28 -95 3
-118 0 -171 -20z"/>
<path fill="#5268E7" d="M19120 14974 c-99 -26 -180 -74 -261 -154 -123 -122 -179 -262 -179
-450 0 -186 50 -311 175 -436 128 -129 249 -175 461 -175 205 1 328 46 452
168 41 40 72 78 70 84 -4 12 -222 118 -243 119 -6 0 -33 -17 -61 -38 -74 -56
-146 -75 -252 -70 -106 5 -169 34 -230 103 -34 39 -72 116 -72 147 0 4 212 8
471 8 l472 0 -5 113 c-11 244 -120 427 -315 530 -39 20 -99 43 -134 52 -82 19
-275 19 -349 -1z m303 -260 c56 -19 141 -92 167 -145 11 -21 20 -41 20 -44 0
-3 -140 -5 -311 -5 l-310 0 28 51 c34 63 90 113 157 138 64 25 184 27 249 5z"/>
<path fill="#5268E7" d="M16840 14370 l0 -590 155 0 155 0 0 590 0 590 -155 0 -155 0 0 -590z"/>
<path fill="#5268E7" d="M6048 14755 c-20 -13 -38 -30 -41 -37 -3 -7 -6 2 -6 20 l-1 32 -75 0
-75 0 0 -335 0 -335 90 0 90 0 0 216 c-1 206 0 219 22 263 23 45 24 46 69 45
l45 -2 27 71 c31 83 28 87 -53 87 -43 0 -64 -6 -92 -25z"/>
<path fill="#5268E7" d="M6500 14771 c-82 -26 -168 -99 -208 -176 -24 -45 -27 -61 -27 -155 0
-95 3 -110 27 -155 45 -85 136 -158 223 -179 60 -15 170 -7 231 15 80 30 163
113 192 192 63 168 -8 353 -165 432 -50 26 -70 30 -153 32 -52 1 -106 -1 -120
-6z m200 -173 c61 -42 75 -71 75 -157 0 -70 -3 -81 -28 -114 -37 -49 -75 -67
-140 -67 -177 0 -238 236 -88 337 47 32 135 32 181 1z"/>
<path fill="#5268E7" d="M7293 14762 c-106 -38 -185 -116 -219 -216 -23 -68 -16 -195 15 -254
33 -65 96 -128 156 -157 93 -46 269 -49 367 -7 45 20 128 86 128 103 0 12
-116 89 -134 89 -8 0 -18 -5 -22 -11 -15 -24 -90 -49 -152 -49 -125 0 -196 68
-194 187 2 69 51 138 115 162 71 27 179 8 232 -40 20 -18 22 -17 93 22 63 35
71 42 62 58 -14 28 -66 69 -124 99 -44 23 -65 26 -161 29 -88 3 -121 0 -162
-15z"/>
<path fill="#5268E7" d="M8077 14765 c-48 -18 -118 -68 -144 -104 -58 -77 -68 -111 -68 -221
0 -87 4 -113 22 -152 27 -59 95 -127 154 -156 90 -44 261 -44 352 -2 45 21
127 91 127 108 0 5 -32 23 -72 40 l-72 32 -40 -27 c-36 -25 -50 -28 -122 -28
-72 0 -84 3 -116 27 -19 15 -42 42 -51 60 l-16 33 267 5 267 5 -3 60 c-8 162
-91 280 -228 321 -59 18 -207 17 -257 -1z m222 -150 c30 -15 81 -70 81 -86 0
-5 -73 -9 -171 -9 l-171 0 20 33 c31 49 86 77 155 77 32 0 71 -7 86 -15z"/>
<path fill="#5268E7" d="M8848 14756 c-20 -14 -38 -31 -41 -38 -3 -7 -6 2 -6 20 l-1 32 -75 0
-75 0 0 -335 0 -335 90 0 90 0 0 216 c-1 206 0 219 22 263 23 45 24 46 69 45
l46 -2 23 65 c12 35 26 61 31 56 10 -11 239 -566 239 -581 0 -6 -18 -51 -41
-99 -23 -49 -52 -112 -65 -140 l-24 -53 93 0 93 0 205 442 c112 242 206 445
207 450 2 4 -38 8 -90 8 l-93 0 -89 -196 c-49 -107 -92 -191 -96 -187 -4 4
-42 92 -85 196 l-78 187 -67 0 c-37 0 -107 3 -156 6 -84 5 -91 4 -126 -20z"/>
<path fill="#5268E7" d="M6460 13400 l0 -130 -45 0 -45 0 0 -75 0 -75 45 0 45 0 0 -260 0
-260 90 0 90 0 0 260 0 260 45 0 45 0 0 75 0 75 -45 0 -45 0 0 130 0 130 -90
0 -90 0 0 -130z"/>
<path fill="#5268E7" d="M5975 13266 c-38 -17 -90 -72 -104 -109 -16 -41 -13 -87 8 -132 25
-54 61 -86 156 -136 118 -62 133 -79 99 -113 -30 -31 -101 -16 -177 37 -16 10
-24 5 -67 -40 -28 -28 -50 -57 -50 -63 0 -17 53 -65 97 -86 26 -12 67 -20 126
-22 78 -4 93 -1 140 22 96 47 135 135 106 239 -15 53 -67 101 -168 151 -100
51 -120 68 -101 91 23 27 76 18 118 -20 l38 -34 58 58 57 58 -26 31 c-14 17
-49 42 -77 56 -42 21 -66 26 -127 26 -42 -1 -89 -7 -106 -14z"/>
<path fill="#5268E7" d="M7020 13271 c-82 -26 -168 -99 -208 -176 -24 -45 -27 -61 -27 -155 0
-95 3 -110 27 -155 32 -61 97 -125 158 -156 35 -18 66 -24 140 -27 127 -5 191
18 271 97 165 165 121 441 -88 546 -50 26 -70 30 -153 32 -52 1 -106 -1 -120
-6z m200 -173 c61 -42 75 -71 75 -157 0 -70 -3 -81 -28 -114 -37 -49 -75 -67
-140 -67 -177 0 -238 236 -88 337 47 32 135 32 181 1z"/>
<path fill="#5268E7" d="M7768 13255 c-20 -13 -38 -30 -41 -37 -3 -7 -6 2 -6 20 l-1 32 -75 0
-75 0 0 -335 0 -335 90 0 90 0 0 216 c-1 206 0 219 22 263 23 45 24 46 69 45
l45 -2 27 71 c31 83 28 87 -53 87 -43 0 -64 -6 -92 -25z"/>
<path fill="#5268E7" d="M8197 13265 c-48 -18 -118 -68 -144 -104 -58 -77 -68 -111 -68 -221
0 -87 4 -113 22 -152 27 -60 95 -127 158 -159 45 -22 63 -24 175 -24 111 0
130 3 172 24 46 22 128 93 128 109 0 5 -32 23 -72 40 l-72 32 -40 -27 c-36
-25 -50 -28 -122 -28 -72 0 -84 3 -116 27 -19 15 -42 42 -51 60 l-16 33 267 5
267 5 -3 60 c-8 162 -91 280 -228 321 -59 18 -207 17 -257 -1z m222 -150 c30
-15 81 -70 81 -86 0 -5 -73 -9 -171 -9 l-171 0 20 33 c31 49 86 77 155 77 32
0 71 -7 86 -15z"/>
<path fill="#5268E7" d="M8895 13266 c-38 -17 -90 -72 -104 -109 -16 -41 -13 -87 8 -132 25
-54 61 -86 156 -136 118 -62 133 -79 99 -113 -30 -31 -101 -16 -177 37 -16 10
-24 5 -67 -40 -28 -28 -50 -57 -50 -63 0 -17 53 -65 97 -86 26 -12 67 -20 126
-22 78 -4 93 -1 140 22 96 47 135 135 106 239 -15 53 -67 101 -168 151 -100
51 -120 68 -101 91 23 27 76 18 118 -20 l38 -34 58 58 57 58 -26 31 c-14 17
-49 42 -77 56 -42 21 -66 26 -127 26 -42 -1 -89 -7 -106 -14z"/>
<path fill="#5268E7" d="M17258 13083 c-37 -23 -48 -53 -48 -133 0 -68 -1 -70 -25 -70 -24 0
-25 -3 -25 -55 0 -52 1 -55 25 -55 l25 0 0 -210 0 -210 70 0 70 0 0 210 0 210
40 0 40 0 0 55 0 55 -40 0 -40 0 0 44 c0 53 17 70 60 61 l30 -7 0 55 c0 53 -1
55 -31 61 -56 11 -123 6 -151 -11z"/>
<path fill="#5268E7" d="M17538 13083 c-37 -23 -48 -53 -48 -133 0 -68 -1 -70 -25 -70 -24 0
-25 -3 -25 -55 0 -52 1 -55 25 -55 l25 0 0 -210 0 -210 70 0 70 0 0 210 0 210
40 0 40 0 0 55 0 55 -40 0 -40 0 0 44 c0 53 17 70 60 61 l30 -7 0 55 c0 53 -1
55 -31 61 -56 11 -123 6 -151 -11z"/>
<path fill="#5268E7" d="M17775 13075 c-28 -27 -32 -63 -10 -104 16 -33 33 -41 81 -41 75 0
111 88 59 144 -33 36 -95 37 -130 1z"/>
<path fill="#5268E7" d="M11075 13077 c-72 -24 -120 -54 -168 -106 -76 -81 -92 -125 -92 -256
0 -104 2 -114 32 -176 39 -79 102 -140 181 -177 51 -24 69 -27 167 -27 100 0
115 3 166 28 109 53 187 170 197 293 l5 64 -187 0 -186 0 0 -65 0 -65 100 0
c55 0 100 -3 100 -6 0 -21 -45 -73 -82 -94 -57 -33 -154 -34 -213 -3 -155 81
-190 278 -70 398 42 43 116 75 170 75 44 0 126 -32 171 -66 l47 -36 48 48 49
48 -33 34 c-17 18 -60 47 -95 64 -56 28 -75 32 -165 35 -67 2 -116 -2 -142
-10z"/>
<path fill="#5268E7" d="M16020 12985 l0 -105 -35 0 -35 0 0 -55 0 -55 35 0 35 0 0 -210 0
-210 70 0 70 0 0 210 0 210 40 0 40 0 0 55 0 55 -40 0 -40 0 0 105 0 105 -70
0 -70 0 0 -105z"/>
<path fill="#5268E7" d="M11816 12875 c-54 -19 -106 -63 -141 -120 -40 -64 -48 -178 -18 -246
47 -104 125 -160 238 -167 177 -11 305 103 305 274 0 108 -53 194 -152 243
-50 25 -73 31 -127 31 -36 -1 -83 -7 -105 -15z m184 -134 c78 -55 78 -195 0
-251 -85 -60 -200 -11 -216 92 -19 112 54 196 156 182 19 -3 46 -13 60 -23z"/>
<path fill="#5268E7" d="M13000 12869 c-98 -44 -150 -123 -158 -237 -6 -87 13 -146 66 -204
53 -59 103 -81 198 -86 103 -6 165 14 225 70 l44 41 -64 28 -63 29 -28 -24
c-77 -64 -213 -26 -235 67 l-7 27 212 0 212 0 -4 63 c-7 105 -58 179 -153 223
-67 32 -179 33 -245 3z m180 -105 c34 -14 80 -58 80 -78 0 -3 -61 -6 -135 -6
-76 0 -135 4 -135 9 0 20 53 71 83 80 47 13 62 13 107 -5z"/>
<path fill="#5268E7" d="M13633 12870 c-27 -16 -33 -17 -33 -5 0 12 -14 15 -65 15 l-65 0 0
-265 0 -265 69 0 69 0 4 178 c5 219 20 258 89 245 22 -4 27 1 43 46 10 28 15
55 11 61 -11 17 -88 11 -122 -10z"/>
<path fill="#5268E7" d="M14041 12879 c-13 -5 -36 -18 -52 -30 l-29 -20 0 25 c0 25 -2 26 -70
26 l-70 0 0 -265 0 -265 69 0 68 0 5 158 c5 182 18 225 75 248 44 19 81 8 104
-30 17 -27 19 -52 19 -203 l0 -173 75 0 75 0 0 163 c0 192 10 222 77 246 37
13 44 13 67 -3 15 -9 31 -28 36 -42 6 -14 10 -102 10 -195 l0 -169 71 0 70 0
-3 219 c-3 204 -5 222 -24 247 -36 49 -70 67 -133 72 -70 5 -121 -10 -165 -49
l-33 -28 -24 26 c-13 14 -38 32 -56 39 -37 16 -126 17 -162 3z"/>
<path fill="#5268E7" d="M14900 12869 c-98 -44 -150 -123 -158 -237 -6 -87 13 -146 66 -204
53 -59 103 -81 198 -86 103 -6 165 14 225 70 l44 41 -64 28 -63 29 -28 -24
c-77 -64 -213 -26 -235 67 l-7 27 212 0 212 0 -4 63 c-7 105 -58 179 -153 223
-67 32 -179 33 -245 3z m180 -105 c34 -14 80 -58 80 -78 0 -3 -61 -6 -135 -6
-76 0 -135 4 -135 9 0 20 53 71 83 80 47 13 62 13 107 -5z"/>
<path fill="#5268E7" d="M15610 12874 c-19 -8 -42 -22 -52 -31 -17 -15 -18 -14 -18 10 0 27
-1 27 -70 27 l-70 0 0 -265 0 -265 70 0 70 0 0 103 c1 56 5 135 9 176 8 63 13
78 40 104 38 39 90 42 124 9 21 -21 22 -32 25 -207 l3 -185 70 0 70 0 -3 218
c-3 209 -4 218 -26 250 -48 66 -159 92 -242 56z"/>
<path fill="#5268E7" d="M16736 12875 c-54 -19 -106 -63 -141 -120 -40 -64 -48 -178 -18 -246
47 -104 125 -160 238 -167 177 -11 305 103 305 274 0 108 -53 194 -152 243
-50 25 -73 31 -127 31 -36 -1 -83 -7 -105 -15z m184 -134 c78 -55 78 -195 0
-251 -85 -60 -200 -11 -216 92 -19 112 54 196 156 182 19 -3 46 -13 60 -23z"/>
<path fill="#5268E7" d="M18175 12870 c-58 -23 -125 -84 -152 -138 -13 -27 -18 -60 -18 -122
0 -75 3 -91 27 -132 36 -61 91 -105 152 -123 57 -17 165 -19 218 -5 47 13 132
70 136 91 2 10 -15 28 -47 48 l-50 32 -42 -28 c-52 -34 -136 -38 -186 -9 -62
38 -88 120 -59 189 40 93 170 125 247 60 l30 -26 60 28 c32 16 59 32 59 36 0
15 -63 70 -104 91 -60 32 -202 36 -271 8z"/>
<path fill="#5268E7" d="M18800 12869 c-98 -44 -150 -123 -158 -237 -6 -87 13 -146 66 -204
53 -59 103 -81 198 -86 103 -6 165 14 225 70 l44 41 -64 28 -63 29 -28 -24
c-77 -64 -213 -26 -235 67 l-7 27 212 0 212 0 -4 63 c-7 105 -58 179 -153 223
-67 32 -179 33 -245 3z m180 -105 c34 -14 80 -58 80 -78 0 -3 -61 -6 -135 -6
-76 0 -135 4 -135 9 0 20 53 71 83 80 47 13 62 13 107 -5z"/>
<path fill="#5268E7" d="M19433 12870 c-27 -16 -33 -17 -33 -5 0 12 -14 15 -65 15 l-65 0 0
-265 0 -265 69 0 69 0 4 178 c5 219 20 258 89 245 22 -4 27 1 43 46 10 28 15
55 11 61 -11 17 -88 11 -122 -10z"/>
<path fill="#5268E7" d="M19695 12876 c-67 -30 -107 -105 -91 -170 10 -42 65 -95 130 -128 73
-36 96 -55 96 -79 0 -25 -36 -42 -68 -34 -15 4 -42 18 -61 32 l-33 26 -46 -46
-46 -46 24 -26 c85 -91 281 -86 339 8 41 69 35 151 -16 199 -16 15 -63 45
-105 68 -54 29 -78 47 -78 60 0 40 57 33 108 -13 l23 -21 45 45 46 46 -33 33
c-19 18 -48 39 -66 46 -41 18 -129 17 -168 0z"/>
<path fill="#5268E7" d="M12254 12863 c3 -10 53 -128 110 -263 l104 -245 50 -3 49 -3 112 260
c61 143 111 262 111 266 0 3 -33 5 -72 3 l-73 -3 -60 -142 c-33 -79 -62 -143
-65 -143 -3 0 -32 64 -65 143 l-61 142 -73 3 c-66 3 -72 1 -67 -15z"/>
<path fill="#5268E7" d="M17770 12615 l0 -265 70 0 70 0 0 265 0 265 -70 0 -70 0 0 -265z"/>
<path fill="#5268E7" d="M13129 11721 c-59 -59 -30 -162 51 -180 80 -18 140 28 140 106 0 36
-6 50 -29 74 -25 25 -37 29 -81 29 -44 0 -56 -4 -81 -29z"/>
<path fill="#5268E7" d="M8488 11721 c-270 -88 -400 -397 -278 -659 54 -115 178 -220 298
-252 72 -19 211 -14 283 10 l63 21 33 -38 c18 -21 32 -41 33 -45 0 -5 52 -8
115 -8 l116 0 -76 95 c-41 52 -75 99 -75 104 0 6 14 30 30 53 17 24 39 68 49
98 83 237 -24 498 -246 603 -62 29 -78 32 -178 34 -86 2 -122 -1 -167 -16z
m270 -187 c64 -32 125 -100 146 -161 24 -69 21 -168 -7 -226 l-22 -49 -34 46
-35 46 -108 0 c-59 0 -108 -3 -108 -6 0 -3 32 -47 72 -96 82 -104 81 -108 -27
-108 -112 0 -207 57 -257 155 -29 56 -36 167 -14 233 22 66 87 139 151 168 72
34 172 33 243 -2z"/>
<path fill="#5268E7" d="M12790 11610 l0 -130 -45 0 -45 0 0 -75 0 -75 45 0 45 0 0 -260 0
-260 90 0 90 0 0 260 0 260 45 0 45 0 0 75 0 75 -45 0 -45 0 0 130 0 130 -90
0 -90 0 0 -130z"/>
<path fill="#5268E7" d="M10145 11466 c-65 -31 -121 -88 -154 -156 -23 -48 -26 -67 -26 -160
0 -95 3 -111 28 -162 35 -71 111 -141 177 -163 94 -31 211 -18 278 32 l32 24
0 -35 0 -36 90 0 90 0 0 335 0 335 -90 0 -90 0 0 -32 c0 -29 -1 -30 -18 -15
-67 61 -224 77 -317 33z m244 -151 c124 -63 129 -243 11 -323 -29 -20 -45 -23
-95 -20 -110 7 -171 78 -163 193 4 69 30 114 82 146 38 23 125 25 165 4z"/>
<path fill="#5268E7" d="M10978 11465 c-20 -13 -38 -30 -41 -37 -3 -7 -6 2 -6 20 l-1 32 -75
0 -75 0 0 -335 0 -335 90 0 90 0 0 216 c-1 206 0 219 22 263 23 45 24 46 69
45 l45 -2 27 71 c31 83 28 87 -53 87 -43 0 -64 -6 -92 -25z"/>
<path fill="#5268E7" d="M11397 11475 c-48 -18 -118 -68 -144 -104 -58 -77 -68 -111 -68 -221
0 -87 4 -113 22 -152 27 -59 95 -127 154 -156 90 -44 261 -44 352 -2 45 21
127 91 127 108 0 5 -32 23 -72 40 l-72 32 -40 -27 c-36 -25 -50 -28 -122 -28
-72 0 -84 3 -116 27 -19 15 -42 42 -51 60 l-16 33 267 5 267 5 -3 60 c-8 162
-91 280 -228 321 -59 18 -207 17 -257 -1z m222 -150 c30 -15 81 -70 81 -86 0
-5 -73 -9 -171 -9 l-171 0 20 33 c31 49 86 77 155 77 32 0 71 -7 86 -15z"/>
<path fill="#5268E7" d="M12256 11461 l-56 -30 0 25 c0 24 -1 24 -90 24 l-90 0 0 -335 0 -335
90 0 90 0 0 200 c0 222 5 247 59 293 65 54 159 25 175 -54 3 -18 6 -123 6
-235 l0 -204 90 0 90 0 0 235 c0 266 -8 320 -53 372 -46 52 -98 73 -183 73
-61 0 -81 -5 -128 -29z"/>
<path fill="#5268E7" d="M13676 11461 l-56 -30 0 25 c0 24 -1 24 -90 24 l-90 0 0 -335 0 -335
90 0 90 0 0 200 c0 222 5 247 59 293 65 54 159 25 175 -54 3 -18 6 -123 6
-235 l0 -204 90 0 90 0 0 235 c0 266 -8 320 -53 372 -46 52 -98 73 -183 73
-61 0 -81 -5 -128 -29z"/>
<path fill="#5268E7" d="M14377 11475 c-48 -18 -118 -68 -144 -104 -58 -77 -68 -111 -68 -221
0 -87 4 -113 22 -152 27 -59 95 -127 154 -156 90 -44 261 -44 352 -2 45 21
127 91 127 108 0 5 -32 23 -72 40 l-72 32 -40 -27 c-36 -25 -50 -28 -122 -28
-72 0 -84 3 -116 27 -19 15 -42 42 -51 60 l-16 33 267 5 267 5 -3 60 c-8 162
-91 280 -228 321 -59 18 -207 17 -257 -1z m222 -150 c30 -15 81 -70 81 -86 0
-5 -73 -9 -171 -9 l-171 0 20 33 c31 49 86 77 155 77 32 0 71 -7 86 -15z"/>
<path fill="#5268E7" d="M9242 11248 c3 -219 5 -236 27 -286 28 -63 93 -123 151 -141 53 -16
177 -16 232 1 55 16 141 100 159 154 8 25 14 124 16 272 l5 232 -91 0 -91 0 0
-221 0 -221 -34 -34 c-28 -28 -41 -34 -78 -34 -24 0 -54 7 -67 16 -45 32 -51
68 -51 289 l0 205 -91 0 -91 0 4 -232z"/>
<path fill="#5268E7" d="M13120 11145 l0 -335 90 0 90 0 0 335 0 335 -90 0 -90 0 0 -335z"/>
<path fill="#5268E7" d="M13010 10110 l0 -130 -45 0 -45 0 0 -75 0 -75 45 0 45 0 0 -260 0
-260 90 0 90 0 0 260 0 260 45 0 45 0 0 75 0 75 -45 0 -45 0 0 130 0 130 -90
0 -90 0 0 -130z"/>
<path fill="#5268E7" d="M10843 9972 c-106 -38 -185 -116 -219 -216 -23 -68 -16 -195 15 -254
34 -66 96 -128 160 -159 53 -26 64 -28 186 -28 112 0 136 3 177 22 46 22 128
88 128 104 0 12 -116 89 -134 89 -8 0 -18 -5 -22 -11 -15 -24 -90 -49 -152
-49 -125 0 -196 68 -194 187 2 69 51 138 115 162 71 27 179 8 232 -40 20 -18
22 -17 93 22 63 35 71 42 62 58 -14 28 -66 69 -124 99 -44 23 -65 26 -161 29
-88 3 -121 0 -162 -15z"/>
<path fill="#5268E7" d="M11627 9975 c-48 -18 -118 -68 -144 -104 -58 -77 -68 -111 -68 -221
0 -87 4 -113 22 -152 27 -60 95 -127 158 -159 45 -22 63 -24 175 -24 111 0
130 3 172 24 46 22 128 93 128 109 0 5 -32 23 -72 40 l-72 32 -40 -27 c-36
-25 -50 -28 -122 -28 -72 0 -84 3 -116 27 -19 15 -42 42 -51 60 l-16 33 267 5
267 5 -3 60 c-8 162 -91 280 -228 321 -59 18 -207 17 -257 -1z m222 -150 c30
-15 81 -70 81 -86 0 -5 -73 -9 -171 -9 l-171 0 20 33 c31 49 86 77 155 77 32
0 71 -7 86 -15z"/>
<path fill="#5268E7" d="M12476 9961 l-56 -30 0 25 c0 24 -1 24 -90 24 l-90 0 0 -335 0 -335
90 0 90 0 0 200 c0 222 5 247 59 293 65 54 159 25 175 -54 3 -18 6 -123 6
-235 l0 -204 90 0 90 0 0 235 c0 266 -8 320 -53 372 -46 52 -98 73 -183 73
-61 0 -81 -5 -128 -29z"/>
<path fill="#5268E7" d="M13547 9975 c-48 -18 -118 -68 -144 -104 -58 -77 -68 -111 -68 -221
0 -87 4 -113 22 -152 27 -60 95 -127 158 -159 45 -22 63 -24 175 -24 111 0
130 3 172 24 46 22 128 93 128 109 0 5 -32 23 -72 40 l-72 32 -40 -27 c-36
-25 -50 -28 -122 -28 -72 0 -84 3 -116 27 -19 15 -42 42 -51 60 l-16 33 267 5
267 5 -3 60 c-8 162 -91 280 -228 321 -59 18 -207 17 -257 -1z m222 -150 c30
-15 81 -70 81 -86 0 -5 -73 -9 -171 -9 l-171 0 20 33 c31 49 86 77 155 77 32
0 71 -7 86 -15z"/>
<path fill="#5268E7" d="M14318 9965 c-20 -13 -38 -30 -41 -37 -3 -7 -6 2 -6 20 l-1 32 -75 0
-75 0 0 -335 0 -335 90 0 90 0 0 216 c-1 206 0 219 22 263 23 45 24 46 69 45
l45 -2 27 71 c31 83 28 87 -53 87 -43 0 -64 -6 -92 -25z"/>
<path fill="#5268E7" d="M14645 9976 c-38 -17 -90 -72 -104 -109 -16 -41 -13 -87 8 -132 25
-54 61 -86 156 -136 118 -62 133 -79 99 -113 -30 -31 -101 -16 -177 37 -16 10
-24 5 -67 -40 -28 -28 -50 -57 -50 -63 0 -17 53 -65 97 -86 26 -12 67 -20 126
-22 78 -4 93 -1 140 22 96 47 135 135 106 239 -15 53 -67 101 -168 151 -100
51 -120 68 -101 91 23 27 76 18 118 -20 l38 -34 58 58 57 58 -26 31 c-14 17
-49 42 -77 56 -42 21 -66 26 -127 26 -42 -1 -89 -7 -106 -14z"/>
</g>
</svg>
