<?xml version="1.0" standalone="no"?>
<!DOCTYPE svg PUBLIC "-//W3C//DTD SVG 20010904//EN"
 "http://www.w3.org/TR/2001/REC-SVG-20010904/DTD/svg10.dtd">
<svg version="1.0" xmlns="http://www.w3.org/2000/svg"
 width="986.000000pt" height="969.000000pt" viewBox="0 0 986.000000 969.000000"
 preserveAspectRatio="xMidYMid meet">
<metadata>
Created by potrace 1.16, written by Peter Selinger 2001-2019
</metadata>
<g transform="translate(0.000000,969.000000) scale(0.100000,-0.100000)"
fill="#5268E7" stroke="none">
<path d="M5560 9135 l0 -295 54 0 c33 0 56 5 58 12 3 9 12 9 36 -1 20 -8 58
-12 102 -9 82 4 110 22 155 93 27 44 30 57 30 129 -1 109 -25 156 -107 206
-40 24 -122 27 -175 5 -19 -8 -37 -15 -39 -15 -2 0 -4 38 -4 85 l0 85 -55 0
-55 0 0 -295z m261 15 c24 -13 49 -61 49 -96 0 -33 -59 -94 -91 -94 -13 0 -38
9 -56 20 -51 31 -58 115 -13 160 22 22 79 27 111 10z"/>
<path d="M4720 9130 l0 -290 135 0 135 0 0 65 0 65 -79 0 -79 0 5 225 6 225
-62 0 -61 0 0 -290z"/>
<path d="M5105 9249 c-25 -23 -53 -59 -61 -78 -38 -90 -5 -246 63 -298 30 -23
48 -28 109 -31 51 -3 82 0 103 11 26 13 31 13 31 1 0 -10 15 -14 60 -14 l60 0
0 221 0 221 -77 -2 c-43 0 -115 2 -159 6 l-82 6 -47 -43z m212 -112 c39 -38
31 -121 -15 -157 -33 -27 -83 -22 -118 11 -34 32 -34 116 -1 146 12 12 31 23
42 25 26 5 75 -8 92 -25z"/>
<path d="M6099 9268 c-37 -32 -49 -60 -49 -111 0 -55 21 -83 101 -138 32 -22
59 -44 59 -49 0 -14 -31 -12 -60 5 -37 21 -53 18 -90 -14 -47 -40 -45 -56 8
-91 39 -26 54 -30 114 -30 115 0 158 39 158 143 0 64 -15 84 -103 140 -31 20
-57 39 -57 41 0 7 40 -6 46 -15 19 -31 105 24 103 65 0 12 -14 32 -32 46 -25
20 -45 25 -101 28 -63 3 -74 1 -97 -20z"/>
<path d="M2000 8275 l0 -355 103 5 c245 13 277 20 341 77 24 20 54 59 67 85
21 43 24 62 24 183 0 130 -1 137 -28 185 -38 66 -81 110 -133 134 -43 21 -90
27 -271 36 l-103 5 0 -355z m300 162 c58 -29 81 -70 88 -157 4 -61 2 -74 -22
-114 -33 -57 -63 -72 -148 -78 l-68 -4 0 193 0 192 53 -5 c28 -3 72 -16 97
-27z"/>
<path d="M3830 8530 l0 -90 -30 0 -30 0 0 -60 0 -60 30 0 30 0 0 -195 0 -195
70 0 70 0 2 193 3 192 37 3 36 3 4 60 3 59 -42 0 -43 0 0 90 0 90 -70 0 -70 0
0 -90z"/>
<path d="M5082 8450 c-63 -10 -103 -53 -110 -119 -8 -91 11 -120 131 -198 37
-24 67 -48 67 -53 0 -18 -55 -10 -100 14 l-44 23 -38 -41 c-51 -55 -48 -81 16
-120 96 -60 238 -42 286 36 14 24 20 50 20 95 0 55 -3 66 -31 97 -17 20 -49
45 -72 56 -23 12 -53 30 -67 40 l-25 20 25 -1 c14 0 38 -10 53 -23 l29 -23 44
47 c24 26 44 54 44 63 0 9 -15 27 -32 40 -58 43 -123 58 -196 47z"/>
<path d="M2749 8431 c-53 -29 -114 -103 -129 -156 -16 -56 -9 -169 13 -211 20
-39 81 -100 121 -122 22 -12 55 -17 116 -17 112 0 166 26 221 105 34 48 40 64
45 130 8 91 -5 143 -47 196 -53 68 -99 88 -209 91 -79 3 -101 0 -131 -16z
m181 -136 c34 -17 60 -62 60 -100 0 -71 -53 -125 -122 -125 -91 0 -142 118
-81 190 42 51 90 62 143 35z"/>
<path d="M3328 8415 c-131 -82 -164 -261 -74 -392 51 -74 105 -97 230 -98 96
0 104 2 164 34 53 29 62 38 62 62 0 18 -10 36 -30 52 -44 37 -64 41 -109 17
-90 -45 -201 -7 -217 75 -8 46 25 108 68 126 44 19 119 17 148 -4 14 -9 35
-17 47 -17 31 0 113 52 113 72 0 19 -58 67 -112 91 -26 12 -63 17 -135 17 -96
0 -100 -1 -155 -35z"/>
<path d="M4199 8419 c-93 -67 -121 -123 -118 -232 3 -94 21 -143 72 -195 121
-123 360 -81 430 77 29 67 29 181 -2 243 -27 57 -86 110 -140 126 -21 7 -74
12 -118 12 -74 0 -83 -2 -124 -31z m213 -135 c80 -72 32 -214 -72 -214 -30 0
-48 8 -76 32 -35 31 -36 33 -32 91 4 53 9 64 38 90 29 25 39 29 77 24 24 -2
53 -13 65 -23z"/>
<path d="M4802 8434 c-12 -8 -22 -10 -22 -5 0 7 -25 11 -60 11 l-60 0 0 -255
0 -255 70 0 70 0 0 73 c1 125 12 271 21 289 5 9 25 20 44 24 19 3 38 11 43 18
8 9 32 94 32 110 0 14 -117 5 -138 -10z"/>
<path d="M7310 7570 l0 -250 50 0 50 0 0 95 0 94 38 6 c20 4 49 9 65 11 15 3
39 21 54 41 22 28 27 45 27 97 1 53 -3 68 -26 99 -30 38 -26 37 -195 51 l-63
6 0 -250z"/>
<path d="M6700 7565 l0 -245 135 0 135 0 0 55 0 55 -80 0 -80 0 0 50 0 50 80
0 80 0 0 55 0 55 -80 0 -80 0 0 30 0 30 80 0 80 0 0 55 0 55 -135 0 -135 0 0
-245z"/>
<path d="M7725 7672 c-71 -44 -100 -191 -54 -272 37 -66 119 -98 193 -76 26 8
48 10 52 5 3 -5 27 -9 55 -9 l49 0 0 181 0 180 -57 0 c-32 0 -92 2 -133 5 -62
4 -80 2 -105 -14z m159 -113 c50 -39 18 -129 -45 -129 -37 0 -79 40 -79 75 0
33 41 75 73 75 13 0 36 -9 51 -21z"/>
<path d="M8117 7679 c-23 -13 -47 -62 -47 -94 0 -42 28 -79 88 -119 57 -38 55
-44 -9 -24 -36 10 -41 9 -64 -12 -59 -56 -8 -110 103 -110 59 0 66 2 98 34 29
29 34 41 34 81 0 42 -5 52 -36 81 l-35 34 31 26 c42 36 38 72 -10 96 -38 20
-125 23 -153 7z"/>
<path d="M8405 7678 c-34 -18 -45 -40 -45 -89 0 -57 30 -98 94 -131 49 -25 34
-36 -19 -14 -35 15 -37 15 -61 -11 -64 -69 17 -132 141 -109 58 11 85 45 85
107 0 44 -4 55 -33 84 l-33 33 33 31 c48 44 43 69 -20 96 -42 17 -113 19 -142
3z"/>
<path d="M2736 7654 c-20 -19 -20 -82 -2 -107 18 -23 64 -28 99 -11 24 13 27
20 27 62 0 27 -5 53 -12 60 -18 18 -94 15 -112 -4z"/>
<path d="M4375 7657 c-14 -11 -17 -23 -13 -61 7 -57 15 -67 61 -71 54 -5 77
17 77 74 0 26 -5 52 -12 59 -16 16 -90 15 -113 -1z"/>
<path d="M4792 7658 c-7 -7 -12 -31 -12 -54 0 -54 37 -89 84 -80 38 8 55 32
56 82 0 52 -13 64 -70 64 -25 0 -51 -5 -58 -12z"/>
<path d="M1421 7631 c-37 -35 -51 -69 -51 -125 0 -52 25 -86 136 -192 41 -38
74 -75 74 -82 0 -18 -38 -34 -63 -26 -12 4 -34 20 -49 36 -26 28 -28 28 -57
14 -68 -35 -78 -74 -34 -127 36 -42 79 -59 153 -59 72 0 119 17 148 55 18 22
22 41 22 96 0 37 -4 79 -10 93 -9 24 -68 85 -159 163 -20 18 -31 35 -27 41 11
18 30 14 71 -14 34 -23 41 -24 63 -12 14 7 36 27 50 45 29 39 25 46 -46 93
-40 26 -54 30 -118 30 -65 0 -75 -3 -103 -29z"/>
<path d="M4580 7613 c0 -65 -9 -91 -31 -98 -16 -5 -19 -16 -19 -61 0 -51 1
-54 25 -54 l25 0 0 -165 0 -165 44 0 c24 0 51 -3 60 -6 14 -5 16 13 16 165 l0
171 30 0 c30 0 30 1 30 55 0 54 0 55 -30 55 l-30 0 0 75 0 75 -60 0 -60 0 0
-47z"/>
<path d="M7040 7500 l0 -50 85 0 85 0 0 50 0 50 -85 0 -85 0 0 -50z"/>
<path d="M1885 7505 c-44 -24 -86 -66 -101 -102 -19 -43 -18 -186 0 -222 19
-37 89 -99 121 -107 13 -3 63 -4 109 -3 77 4 88 7 123 35 52 42 55 69 9 91
-31 14 -43 15 -87 5 -77 -18 -116 -15 -141 11 l-23 22 159 9 158 9 -4 62 c-4
72 -34 126 -94 172 -33 25 -47 28 -118 31 -60 2 -89 -1 -111 -13z"/>
<path d="M2456 7513 c-3 -4 -45 -6 -91 -4 l-85 2 0 -221 0 -220 60 0 60 0 0
135 c0 133 0 134 27 160 33 29 78 33 92 7 5 -10 12 -74 16 -142 9 -177 4 -166
70 -162 l55 4 0 169 c0 192 -8 226 -62 259 -32 20 -126 28 -142 13z"/>
<path d="M3014 7491 c-70 -41 -104 -107 -104 -200 0 -55 5 -75 30 -118 17 -29
47 -64 67 -78 33 -22 48 -25 125 -25 82 0 89 2 129 33 64 49 89 104 89 197 0
68 -3 81 -30 121 -47 70 -90 93 -179 97 -69 3 -81 0 -127 -27z m155 -106 c27
-13 61 -68 61 -97 0 -25 -40 -79 -67 -89 -59 -22 -123 24 -123 88 0 47 22 80
64 99 39 17 32 17 65 -1z"/>
<path d="M3537 7513 c-5 -4 -37 -6 -73 -5 l-64 3 0 -220 0 -221 59 0 58 0 7
53 c3 28 6 86 6 128 0 115 7 138 44 147 33 9 56 43 59 90 2 25 -1 27 -43 30
-25 2 -49 -1 -53 -5z"/>
<path d="M4015 7509 c-16 -4 -47 -23 -69 -40 -107 -89 -102 -283 10 -362 77
-54 225 -54 307 -1 48 32 49 61 2 92 -40 25 -60 27 -95 7 -50 -29 -136 -10
-160 34 -20 39 -12 91 20 123 32 32 42 33 175 13 30 -4 48 -1 73 14 17 12 32
26 32 32 0 21 -70 78 -108 89 -44 12 -145 12 -187 -1z"/>
<path d="M5454 7506 c-39 -17 -102 -80 -115 -113 -5 -13 -9 -59 -9 -101 1
-161 65 -222 232 -222 74 0 88 3 123 27 68 45 74 74 20 100 -29 14 -42 15 -86
5 -72 -17 -113 -15 -132 6 -10 10 -17 21 -17 24 0 4 68 9 150 13 l150 8 0 51
c0 54 -28 129 -59 157 -55 51 -191 75 -257 45z"/>
<path d="M6006 7513 c-4 -4 -43 -6 -86 -4 l-80 2 0 -220 0 -221 60 0 60 0 0
48 c1 110 13 228 26 250 19 30 78 31 94 1 6 -11 14 -68 16 -127 3 -59 7 -122
10 -139 5 -33 5 -33 64 -33 l58 0 -4 153 c-3 83 -7 171 -10 193 -5 45 -31 76
-77 93 -32 12 -120 15 -131 4z"/>
<path d="M2730 7290 l0 -220 60 0 60 0 0 220 0 220 -60 0 -60 0 0 -220z"/>
<path d="M4370 7290 l0 -220 60 0 60 0 0 220 0 220 -60 0 -60 0 0 -220z"/>
<path d="M4790 7284 c0 -202 2 -225 16 -220 9 3 36 6 60 6 l44 0 0 220 0 220
-60 0 -60 0 0 -226z"/>
<path d="M4970 7456 l0 -53 56 -6 c31 -3 59 -8 62 -12 6 -5 -56 -127 -115
-225 -56 -93 -60 -90 142 -90 l175 0 0 54 c0 52 -1 54 -31 60 -17 3 -49 6 -70
6 -25 0 -39 5 -39 13 0 7 25 56 56 108 69 116 94 168 87 186 -4 10 -40 13
-164 13 l-159 0 0 -54z"/>
<path d="M7150 6819 c-50 -11 -70 -41 -70 -106 0 -46 4 -58 26 -78 58 -54 155
-19 170 60 16 85 -42 142 -126 124z"/>
<path d="M8042 6813 c-21 -8 -42 -60 -42 -103 0 -88 100 -132 168 -75 17 14
33 38 37 54 7 34 -20 108 -46 121 -18 10 -94 12 -117 3z"/>
<path d="M6830 6390 l0 -420 80 0 80 0 0 420 0 420 -80 0 -80 0 0 -420z"/>
<path d="M6237 6786 c-91 -33 -185 -118 -233 -214 -28 -55 -29 -63 -29 -192 0
-133 1 -137 33 -202 22 -46 51 -83 89 -118 32 -27 61 -50 65 -50 5 0 26 -11
48 -25 37 -24 48 -25 177 -25 127 0 142 2 193 26 30 14 79 44 107 66 65 49 67
72 16 128 -58 65 -65 66 -125 21 -70 -52 -99 -62 -183 -63 -89 -1 -144 21
-191 75 -70 82 -80 192 -27 289 47 87 106 119 218 120 80 0 130 -17 188 -63
49 -39 68 -35 132 31 l50 51 -50 45 c-27 25 -81 61 -120 80 -68 33 -72 34
-195 34 -79 -1 -139 -6 -163 -14z"/>
<path d="M2810 6380 l0 -410 80 0 80 0 0 180 0 180 120 0 120 0 0 85 0 85
-120 0 -120 0 0 60 0 60 120 0 120 0 0 85 0 85 -200 0 -200 0 0 -410z"/>
<path d="M5515 6593 c-11 -3 -32 -14 -47 -25 -24 -16 -28 -17 -28 -4 0 13 -13
16 -70 16 l-70 0 0 -305 0 -305 80 0 80 0 1 108 c1 122 6 207 15 271 7 51 41
91 78 91 31 0 50 27 68 93 11 41 10 49 -2 57 -16 10 -71 11 -105 3z"/>
<path d="M9093 6590 c-36 -12 -90 -62 -104 -97 -5 -13 -9 -50 -9 -82 0 -79 24
-112 138 -186 97 -63 112 -88 55 -93 -21 -2 -45 6 -72 22 -22 14 -46 26 -52
26 -17 0 -78 -70 -85 -98 -9 -34 19 -67 81 -97 50 -25 63 -27 140 -23 76 4 89
8 122 35 55 44 74 82 75 152 1 102 -24 133 -181 224 -30 18 -55 37 -55 42 -2
21 47 16 83 -9 20 -14 43 -26 49 -26 18 0 92 82 92 101 0 25 -38 68 -80 89
-45 23 -152 33 -197 20z"/>
<path d="M3458 6570 c-50 -27 -120 -97 -143 -145 -26 -56 -32 -185 -11 -257
19 -65 77 -136 144 -175 41 -24 60 -28 148 -31 86 -4 108 -1 147 16 59 26 137
91 137 113 0 19 -45 50 -102 70 -35 12 -39 11 -63 -11 -31 -29 -127 -40 -175
-20 -29 12 -70 53 -70 71 0 4 101 9 224 11 123 2 227 5 230 8 13 13 -16 169
-41 218 -28 56 -90 113 -147 137 -55 23 -231 20 -278 -5z"/>
<path d="M4782 6575 c-52 -23 -137 -116 -156 -171 -24 -72 -22 -216 5 -270 27
-57 89 -117 152 -148 42 -22 65 -26 132 -26 105 0 168 20 228 71 63 54 60 74
-14 113 l-56 29 -53 -26 c-61 -31 -125 -35 -170 -12 -29 15 -70 60 -70 77 0 7
83 9 225 7 l225 -4 0 72 c0 101 -27 168 -91 228 -27 25 -65 53 -84 61 -46 19
-228 19 -273 -1z"/>
<path d="M7585 6570 c-47 -24 -55 -25 -55 -5 0 12 -15 15 -75 15 l-75 0 0
-305 0 -305 75 0 c71 0 75 1 75 23 1 12 5 97 9 189 8 147 11 170 30 197 27 37
84 57 123 42 36 -14 47 -73 50 -281 l3 -165 87 -3 87 -3 -5 203 c-9 306 -17
343 -94 396 -45 30 -176 32 -235 2z"/>
<path d="M8433 6559 c-119 -69 -170 -168 -160 -310 6 -91 26 -139 83 -196 69
-69 114 -86 229 -91 125 -5 193 17 263 84 l46 45 -29 23 c-17 13 -49 35 -73
47 -35 20 -45 22 -60 11 -85 -62 -211 -54 -261 17 -43 60 -34 145 19 196 27
26 39 30 104 33 59 3 81 0 114 -17 54 -28 66 -27 124 10 63 41 64 67 6 110
-81 60 -112 69 -238 69 -110 0 -117 -2 -167 -31z"/>
<path d="M3960 6561 c0 -11 52 -143 116 -293 64 -150 118 -279 121 -286 4 -9
24 -12 66 -10 l60 3 52 125 c28 69 82 196 118 283 37 87 67 167 67 178 0 17
-8 19 -82 19 l-83 0 -64 -150 c-35 -83 -67 -150 -70 -150 -3 0 -19 33 -35 73
-16 39 -46 107 -65 150 l-36 77 -82 0 c-76 0 -83 -2 -83 -19z"/>
<path d="M7100 6275 l0 -305 80 0 80 0 0 305 0 305 -80 0 -80 0 0 -305z"/>
<path d="M8020 6275 l0 -305 80 0 80 0 0 305 0 305 -80 0 -80 0 0 -305z"/>
<path d="M355 5920 c-22 -23 -29 -41 -33 -82 -4 -59 5 -75 109 -183 30 -31 54
-61 54 -68 0 -23 -36 -18 -72 9 l-36 27 -36 -19 c-54 -29 -53 -60 3 -112 43
-40 49 -42 106 -42 106 0 142 34 154 145 l6 60 -87 85 c-64 62 -83 86 -70 88
9 2 31 -7 48 -19 l31 -22 41 43 42 43 -45 38 c-43 37 -48 39 -116 39 -65 0
-72 -2 -99 -30z"/>
<path d="M765 5820 c-72 -23 -115 -91 -115 -183 0 -96 51 -160 139 -177 66
-12 126 -4 169 24 67 44 47 94 -36 88 -101 -8 -122 -6 -139 11 -16 16 -10 17
115 17 l133 0 -7 53 c-14 111 -69 166 -172 173 -31 2 -70 -1 -87 -6z"/>
<path d="M2329 5821 c-87 -18 -129 -79 -129 -186 0 -107 40 -156 142 -175 133
-26 270 58 176 106 -28 15 -41 15 -89 5 -57 -11 -99 -5 -114 18 -4 8 35 11
124 11 l131 0 0 46 c0 63 -40 135 -87 158 -43 20 -105 27 -154 17z"/>
<path d="M2680 5823 c-8 -3 -27 -17 -42 -31 -22 -20 -28 -35 -28 -68 0 -50 23
-82 86 -119 54 -32 51 -44 -7 -25 -40 14 -42 13 -65 -14 -44 -50 -25 -86 58
-106 62 -16 106 -7 146 29 26 24 32 37 32 71 0 50 -20 91 -54 109 l-25 14 32
21 c22 15 33 31 35 52 3 27 -2 33 -35 49 -39 19 -108 28 -133 18z"/>
<path d="M1060 5640 l0 -180 50 0 50 0 1 53 c1 64 7 145 14 173 2 11 23 32 46
47 l41 27 14 -38 c9 -20 36 -86 63 -147 l47 -110 40 -3 40 -3 34 73 c18 40 39
89 47 108 25 62 44 105 53 122 6 10 10 27 10 38 0 18 -7 20 -53 20 l-54 0 -37
-82 -37 -83 -22 50 c-12 28 -30 65 -40 83 l-18 32 -144 0 -145 0 0 -180z"/>
<path d="M1640 5640 l0 -180 50 0 50 0 0 180 0 180 -50 0 -50 0 0 -180z"/>
<path d="M1859 5797 c-53 -35 -71 -79 -67 -169 3 -86 20 -118 79 -153 51 -30
181 -28 232 4 29 18 37 29 37 52 0 24 -7 33 -35 46 -27 13 -40 14 -57 6 -64
-31 -119 -20 -143 28 -14 26 -14 32 0 59 18 34 49 45 103 35 66 -12 101 -9
122 10 30 27 25 51 -17 80 -34 22 -48 25 -129 25 -78 0 -96 -3 -125 -23z"/>
<path d="M5071 5622 c-19 -89 -71 -403 -71 -428 0 -24 2 -25 53 -22 l52 3 18
105 c10 58 21 108 25 112 4 4 25 -44 46 -107 l39 -115 44 0 c44 0 44 1 67 53
13 28 34 84 46 122 13 39 25 66 27 60 1 -5 11 -59 21 -120 l19 -110 51 -3 c51
-3 52 -3 52 26 0 16 -4 53 -10 83 -5 30 -21 126 -35 214 -14 87 -27 160 -28
161 -1 1 -26 4 -55 5 l-54 4 -34 -105 c-42 -130 -55 -160 -63 -160 -4 0 -27
59 -50 130 l-43 130 -38 0 c-21 0 -45 3 -53 6 -11 4 -18 -7 -26 -44z"/>
<path d="M6416 5611 c-5 -47 -11 -61 -26 -66 -16 -5 -20 -15 -20 -56 0 -46 2
-49 25 -49 l25 0 0 -135 0 -135 50 0 50 0 0 135 0 135 25 0 c23 0 25 4 25 44
0 33 -5 47 -22 58 -16 11 -22 27 -26 71 l-4 57 -48 0 -47 0 -7 -59z"/>
<path d="M7020 5420 l0 -250 50 0 50 0 0 250 0 250 -50 0 -50 0 0 -250z"/>
<path d="M8630 5420 l0 -250 50 0 50 0 0 250 0 250 -50 0 -50 0 0 -250z"/>
<path d="M8800 5609 c0 -52 -3 -62 -20 -66 -17 -4 -20 -14 -20 -54 0 -45 2
-49 23 -49 l24 0 -5 -135 -5 -135 57 0 56 0 1 88 c1 119 7 165 24 178 23 17
19 90 -5 114 -15 15 -20 33 -20 70 l0 50 -55 0 -55 0 0 -61z"/>
<path d="M8990 5420 l0 -250 49 0 49 0 6 83 c4 45 7 100 9 122 2 33 6 41 30
49 47 17 58 -5 64 -138 l6 -116 49 0 49 0 -3 161 -3 161 -29 25 c-27 22 -36
25 -97 21 l-67 -4 -6 29 c-3 16 -6 47 -6 68 l0 39 -50 0 -50 0 0 -250z"/>
<path d="M7370 5415 l0 -245 50 0 50 0 0 100 0 100 70 0 70 0 0 -100 0 -100
56 0 55 0 -2 183 c-2 100 -5 210 -7 245 l-4 62 -49 0 -49 0 0 -90 0 -90 -70 0
-70 0 0 90 0 90 -50 0 -50 0 0 -245z"/>
<path d="M5670 5518 c-58 -40 -74 -71 -78 -152 -5 -91 11 -125 76 -167 43 -28
53 -30 118 -27 57 3 79 9 112 31 53 35 55 61 7 84 -30 14 -41 15 -68 5 -36
-13 -76 -15 -101 -6 -39 15 -8 24 82 24 144 0 145 1 140 70 -5 68 -41 124 -94
146 -54 23 -155 18 -194 -8z"/>
<path d="M6020 5355 l0 -183 53 -4 c28 -2 53 -4 53 -4 1 1 5 53 8 116 8 147
28 180 82 138 7 -5 15 -59 19 -129 l7 -120 51 3 51 3 -3 140 c-1 77 -5 150 -8
162 -3 13 -19 31 -37 42 -27 17 -50 20 -154 20 l-122 -1 0 -183z"/>
<path d="M6669 5523 c-62 -43 -79 -79 -79 -169 0 -86 25 -135 82 -162 36 -17
63 -20 166 -21 l122 0 0 184 0 183 -134 1 c-107 0 -138 -3 -157 -16z m160
-119 c25 -32 26 -46 6 -84 -39 -76 -163 -21 -134 59 21 57 92 71 128 25z"/>
<path d="M7875 5525 c-16 -7 -41 -25 -55 -40 -22 -24 -25 -36 -28 -123 l-3
-97 46 -45 46 -45 87 0 c74 0 93 4 125 23 49 31 50 63 3 86 -39 18 -62 20 -71
6 -7 -11 -74 -14 -99 -4 -30 11 -5 24 47 24 29 0 82 3 120 7 62 5 67 8 67 30
0 79 -46 161 -104 182 -37 15 -144 12 -181 -4z"/>
<path d="M8267 5520 c-50 -39 -67 -81 -67 -162 0 -85 19 -125 78 -164 29 -20
45 -22 162 -22 l130 0 0 184 0 184 -55 0 c-31 0 -55 -4 -55 -10 0 -7 -6 -7
-19 0 -11 5 -49 10 -84 10 -49 0 -70 -5 -90 -20z m176 -123 c23 -29 18 -61
-13 -95 -26 -28 -59 -28 -94 -1 -31 24 -35 72 -8 106 31 39 82 35 115 -10z"/>
<path d="M2796 5107 c-39 -51 -33 -129 13 -164 9 -7 38 -13 64 -13 69 0 97 30
97 104 0 48 -3 57 -31 80 -23 19 -42 26 -74 26 -38 0 -47 -5 -69 -33z"/>
<path d="M4110 4705 l0 -415 80 0 80 0 0 415 0 415 -80 0 -80 0 0 -415z"/>
<path d="M3090 5005 l0 -105 -46 0 c-43 0 -46 -2 -40 -22 3 -13 6 -46 6 -75
l0 -52 38 -3 37 -3 3 -227 2 -228 80 0 80 0 0 230 0 230 40 0 40 0 0 75 0 75
-40 0 -40 0 0 105 0 105 -80 0 -80 0 0 -105z"/>
<path d="M170 4695 l0 -405 80 0 80 0 0 170 0 170 130 0 130 0 0 -170 0 -170
80 0 80 0 0 405 0 405 -80 0 -80 0 0 -150 0 -150 -130 0 -130 0 0 150 0 150
-80 0 -80 0 0 -405z"/>
<path d="M8716 4928 c-24 -34 -21 -94 6 -112 30 -21 92 -21 109 1 22 26 18 99
-6 117 -31 24 -91 20 -109 -6z"/>
<path d="M5770 4645 l0 -295 60 0 60 0 1 68 c1 139 13 213 38 233 13 11 32 19
42 19 36 0 48 -39 55 -183 l7 -137 63 0 64 0 -5 43 c-2 23 -7 107 -10 186 -3
78 -10 151 -15 161 -22 41 -158 68 -209 40 -16 -8 -19 -3 -25 43 -3 29 -6 67
-6 85 l0 32 -60 0 -60 0 0 -295z"/>
<path d="M5350 4641 l0 -291 55 0 55 0 0 120 0 120 64 0 c74 0 121 25 148 80
39 77 8 208 -57 239 -17 8 -76 16 -147 19 l-118 5 0 -292z"/>
<path d="M1075 4898 c-49 -18 -122 -76 -153 -123 -55 -84 -66 -223 -24 -317
28 -64 109 -142 167 -161 60 -21 165 -22 232 -2 64 19 136 82 170 148 37 74
43 191 14 269 -31 80 -98 152 -167 177 -61 23 -186 28 -239 9z m212 -200 l41
-43 -7 -69 c-7 -62 -11 -72 -44 -102 -33 -30 -43 -34 -93 -34 -50 0 -60 4 -89
33 -62 62 -66 149 -8 216 34 40 36 41 97 41 60 0 63 -1 103 -42z"/>
<path d="M1652 4880 c-56 -40 -75 -86 -70 -162 6 -86 23 -103 203 -215 76 -47
0 -71 -86 -27 l-53 27 -43 -49 c-52 -60 -54 -83 -8 -118 56 -43 98 -56 182
-56 62 0 86 5 118 23 50 28 81 74 90 133 16 110 -18 164 -158 243 -42 25 -76
50 -74 55 6 18 61 6 88 -20 14 -13 30 -24 36 -24 6 0 30 21 52 46 58 66 56 92
-11 135 -47 31 -61 34 -138 37 -82 4 -87 3 -128 -28z"/>
<path d="M2293 4885 c-51 -23 -53 -23 -53 -4 0 17 -7 19 -74 19 -68 0 -74 -2
-79 -22 -3 -13 -6 -197 -7 -410 l-1 -388 81 0 80 0 0 124 0 125 55 -25 c43
-20 72 -26 125 -26 111 0 198 53 251 152 21 40 24 58 24 171 0 118 -1 128 -26
165 -40 60 -110 123 -149 134 -65 18 -170 11 -227 -15z m171 -163 c85 -50 86
-202 2 -253 -50 -30 -82 -33 -129 -10 -84 40 -113 148 -62 224 14 20 27 37 28
37 1 0 20 7 42 15 44 16 75 13 119 -13z"/>
<path d="M3519 4882 c-54 -35 -96 -83 -122 -141 -16 -37 -18 -61 -15 -160 3
-87 8 -124 22 -150 25 -47 92 -110 140 -132 56 -26 160 -25 228 1 63 24 58 23
58 5 0 -12 16 -15 80 -15 l80 0 0 305 0 305 -80 0 c-64 0 -80 -3 -80 -15 0
-19 1 -19 -51 5 -33 14 -66 20 -130 20 -76 0 -90 -3 -130 -28z m257 -173 c63
-58 71 -132 24 -197 -51 -71 -112 -86 -182 -45 -106 61 -87 241 28 272 42 11
101 -3 130 -30z"/>
<path d="M4438 4885 c-20 -13 -46 -41 -58 -60 -19 -31 -22 -46 -18 -99 3 -37
13 -75 24 -91 10 -16 63 -57 117 -92 54 -35 97 -70 94 -76 -7 -22 -64 -19
-118 8 l-54 26 -47 -53 c-27 -29 -48 -58 -48 -64 0 -17 58 -64 105 -85 45 -21
148 -25 207 -9 48 14 97 55 114 97 16 37 18 120 5 155 -15 39 -73 93 -143 131
-36 21 -72 44 -78 52 -22 26 42 18 80 -10 19 -14 39 -25 46 -25 7 0 29 22 49
50 49 66 45 93 -19 137 -45 31 -53 33 -135 33 -75 0 -91 -3 -123 -25z"/>
<path d="M2790 4595 l0 -305 80 0 80 0 0 305 0 305 -80 0 -80 0 0 -305z"/>
<path d="M7852 4789 c-60 -11 -96 -41 -126 -101 -61 -123 -17 -282 92 -330 46
-21 130 -26 158 -10 9 5 49 7 90 4 l74 -5 0 217 0 217 -72 -2 c-40 -1 -93 3
-118 9 -25 7 -47 11 -50 11 -3 -1 -24 -5 -48 -10z m120 -139 c38 -29 52 -72
39 -113 -19 -56 -48 -73 -119 -69 -27 2 -62 55 -62 95 0 34 24 82 47 96 28 16
68 13 95 -9z"/>
<path d="M8387 4790 c-59 -10 -108 -42 -143 -92 -21 -29 -28 -54 -32 -108 -6
-88 14 -145 67 -193 53 -48 98 -60 193 -55 67 4 85 9 121 34 54 38 58 65 16
94 -29 21 -35 22 -81 11 -85 -19 -126 -15 -159 18 -49 50 -35 122 31 156 38
20 66 19 119 -5 l44 -20 43 25 c24 14 44 30 44 36 0 68 -140 121 -263 99z"/>
<path d="M9482 4789 c-76 -16 -117 -94 -87 -166 18 -42 43 -67 116 -114 27
-17 47 -35 44 -39 -5 -8 -60 5 -106 24 -19 8 -79 -55 -79 -84 0 -24 52 -56
114 -70 97 -22 184 29 193 112 10 85 -14 124 -110 178 -67 37 -68 50 -3 25 44
-17 45 -17 75 5 40 28 42 70 4 99 -38 30 -104 43 -161 30z"/>
<path d="M6330 4783 c-53 -20 -105 -102 -116 -180 -14 -110 27 -198 115 -243
37 -20 52 -22 114 -16 40 3 105 6 145 6 l72 -1 0 216 0 216 -77 0 c-43 0 -114
2 -158 4 -44 2 -87 2 -95 -2z m142 -123 c39 -11 58 -44 58 -102 0 -45 -48 -88
-97 -88 -96 0 -126 141 -40 184 38 19 33 18 79 6z"/>
<path d="M6847 4783 c-4 -3 -34 -5 -67 -4 l-60 2 0 -215 0 -216 59 0 58 0 8
143 c7 149 14 177 43 177 33 0 52 24 58 73 l7 47 -50 0 c-27 0 -53 -3 -56 -7z"/>
<path d="M7146 4783 c-4 -4 -40 -6 -81 -4 l-75 2 0 -215 0 -216 59 0 58 0 7
123 c8 142 17 171 58 188 26 11 32 10 51 -9 18 -19 21 -35 24 -139 6 -170 3
-163 68 -163 65 0 63 -5 67 151 4 117 18 154 64 165 51 13 62 -23 63 -213 l1
-103 66 0 67 0 -5 179 c-6 193 -9 206 -65 242 -39 26 -131 25 -183 -1 l-39
-20 -33 20 c-24 15 -51 20 -99 20 -36 0 -69 -3 -73 -7z"/>
<path d="M8988 4765 c-129 -88 -129 -307 -1 -395 51 -35 182 -41 239 -11 57
30 86 58 82 78 -2 10 -22 28 -46 41 -38 21 -45 22 -65 10 -64 -42 -118 -38
-161 11 l-19 21 149 0 c82 0 155 4 163 9 21 14 8 113 -22 164 -14 23 -40 53
-59 67 -29 22 -45 25 -128 28 -88 3 -98 1 -132 -23z"/>
<path d="M8710 4565 l0 -215 60 0 60 0 0 215 0 215 -60 0 -60 0 0 -215z"/>
<path d="M4192 4050 c-41 -38 -23 -128 26 -131 73 -5 92 10 92 72 0 38 -4 51
-22 63 -31 22 -70 20 -96 -4z"/>
<path d="M6130 3980 l0 -80 -30 0 c-30 0 -30 -1 -30 -55 0 -54 0 -55 30 -55
l30 0 0 -165 0 -165 55 0 55 0 0 165 0 165 35 0 35 0 0 55 0 55 -35 0 -35 0 0
80 0 80 -55 0 -55 0 0 -80z"/>
<path d="M7930 3760 l0 -300 59 0 c67 0 71 5 71 99 l0 53 71 -76 71 -76 64 0
c98 0 98 20 -5 130 -29 30 -60 67 -71 81 l-19 26 37 44 c20 24 54 62 74 84 60
63 53 75 -39 74 l-78 0 -50 -61 -50 -60 -6 28 c-4 16 -7 80 -8 142 l-1 112
-60 0 -60 0 0 -300z"/>
<path d="M3916 4034 c-9 -21 -106 -308 -106 -311 0 -2 -4 -3 -8 -3 -4 0 -32
72 -62 160 l-55 161 -65 -3 -65 -3 -44 -262 c-24 -146 -41 -273 -37 -287 6
-24 11 -26 60 -26 l54 0 11 63 c6 34 16 97 23 140 6 42 15 77 18 77 8 0 24
-42 71 -182 l32 -98 38 0 c20 0 44 -2 51 -5 17 -7 32 24 87 185 22 64 42 108
45 100 3 -8 15 -67 26 -130 28 -161 22 -150 86 -150 l54 0 0 43 c0 53 -77 518
-88 529 -4 4 -32 10 -63 14 -49 6 -57 4 -63 -12z"/>
<path d="M7364 3914 c-5 -1 -26 -5 -47 -9 -43 -7 -109 -60 -135 -109 -11 -22
-16 -56 -16 -116 0 -75 3 -90 25 -125 40 -61 109 -95 195 -95 111 0 180 49
214 154 32 98 -18 227 -105 274 -28 15 -110 31 -131 26z m89 -165 c71 -77 -10
-202 -101 -155 -87 45 -83 149 8 185 34 13 60 5 93 -30z"/>
<path d="M4460 3888 c-60 -41 -94 -99 -98 -172 -6 -86 17 -151 69 -202 39 -38
42 -39 118 -42 47 -3 87 1 100 7 30 17 27 -5 -4 -25 -22 -14 -39 -16 -103 -9
-42 4 -99 8 -127 9 -69 1 -70 -19 -6 -86 l50 -53 92 -4 c109 -4 156 8 197 51
42 42 49 89 56 336 l6 202 -59 0 c-39 0 -61 -4 -64 -12 -3 -10 -8 -10 -21 1
-10 9 -48 16 -94 19 -68 3 -81 1 -112 -20z m160 -113 c68 -35 79 -98 26 -151
-37 -37 -62 -42 -106 -19 -58 30 -69 104 -22 147 43 40 61 44 102 23z"/>
<path d="M4996 3903 c-4 -5 -34 -6 -67 -5 l-59 4 0 -221 0 -221 55 0 c65 0 63
-7 68 165 4 133 14 165 53 165 19 0 28 8 40 35 7 19 14 46 14 60 0 23 -3 25
-48 25 -27 0 -52 -3 -56 -7z"/>
<path d="M5201 3874 c-58 -50 -81 -102 -81 -187 0 -105 34 -168 113 -208 44
-23 143 -27 178 -8 17 9 24 9 27 0 2 -6 27 -11 63 -11 l59 0 0 221 0 221 -77
-1 c-43 -1 -114 1 -158 5 l-80 6 -44 -38z m196 -110 c44 -28 46 -115 4 -157
-25 -25 -86 -25 -120 1 -20 15 -27 29 -29 65 -4 57 10 85 51 102 34 15 58 12
94 -11z"/>
<path d="M5812 3902 c-7 -5 -47 -7 -88 -4 l-74 5 0 -221 0 -220 58 -4 c31 -2
58 -4 58 -3 1 0 4 61 8 135 7 153 19 183 74 188 43 4 52 -22 59 -173 3 -66 10
-126 16 -132 5 -8 32 -13 63 -13 l53 0 -6 178 c-3 112 -10 186 -18 202 -25 49
-52 64 -123 68 -37 1 -73 -1 -80 -6z"/>
<path d="M7787 3903 c-4 -3 -36 -5 -72 -4 l-65 2 0 -220 0 -221 60 0 c33 0 60
1 60 3 0 1 3 61 6 132 7 141 21 195 52 195 28 0 53 33 59 79 l6 41 -50 0 c-27
0 -53 -3 -56 -7z"/>
<path d="M8475 3896 c-34 -15 -92 -76 -106 -113 -12 -33 -11 -165 2 -200 14
-38 56 -81 103 -105 33 -17 54 -20 127 -16 76 4 91 7 124 32 61 47 59 77 -8
103 -33 14 -41 14 -71 -1 -19 -9 -48 -16 -66 -16 -33 0 -90 25 -90 39 0 13 80
21 203 21 l109 0 -4 68 c-7 129 -88 202 -222 202 -39 -1 -85 -7 -101 -14z"/>
<path d="M8987 3904 c-4 -4 -36 -6 -72 -5 l-65 2 0 -221 0 -220 55 0 55 0 1
33 c1 97 18 256 28 275 7 14 21 22 37 22 19 0 28 8 40 35 7 19 14 46 14 60 0
23 -4 25 -43 25 -24 0 -47 -3 -50 -6z"/>
<path d="M9163 3900 c-58 -24 -83 -134 -43 -190 11 -15 49 -47 85 -71 63 -42
64 -44 36 -47 -17 -2 -44 4 -62 13 l-32 17 -39 -39 c-46 -47 -44 -63 17 -98
33 -20 55 -25 110 -25 110 0 146 33 159 146 l6 51 -49 41 c-27 23 -53 42 -58
42 -4 0 -19 10 -33 21 l-25 21 25 -7 c14 -4 34 -9 45 -12 29 -7 77 43 73 75
-5 42 -50 66 -126 69 -37 2 -77 -2 -89 -7z"/>
<path d="M4180 3680 l0 -220 60 0 60 0 0 220 0 220 -60 0 -60 0 0 -220z"/>
<path d="M6520 3883 c0 -10 23 -83 51 -163 28 -80 57 -167 66 -195 20 -67 25
-71 72 -67 l40 4 37 94 c20 52 39 92 44 89 4 -2 22 -43 41 -90 l33 -86 45 3
45 3 32 85 c63 165 114 312 114 326 0 11 -15 14 -60 14 l-61 0 -20 -47 c-11
-27 -26 -67 -32 -90 -6 -24 -14 -43 -18 -43 -4 0 -22 39 -41 88 l-34 87 -43 0
-44 0 -29 -70 c-56 -135 -47 -127 -70 -65 -10 30 -26 74 -34 98 l-16 42 -59 0
c-50 0 -59 -3 -59 -17z"/>
<path d="M5650 2841 l0 -441 85 0 85 0 0 435 0 435 -69 0 c-38 0 -76 3 -85 6
-14 6 -16 -37 -16 -435z"/>
<path d="M6955 3254 c-20 -22 -25 -37 -25 -81 0 -47 4 -59 29 -84 24 -23 38
-29 73 -29 99 1 144 108 77 185 -28 31 -36 35 -81 35 -40 0 -53 -5 -73 -26z"/>
<path d="M6670 2835 l0 -435 85 0 85 0 0 435 0 435 -85 0 -85 0 0 -435z"/>
<path d="M4180 2820 l0 -420 85 0 85 0 0 180 0 180 130 0 130 0 0 -180 0 -180
85 0 85 0 0 420 0 420 -85 0 -85 0 0 -155 0 -155 -130 0 -130 0 0 155 0 155
-85 0 -85 0 0 -420z"/>
<path d="M839 3018 c-80 -66 -94 -95 -94 -204 0 -83 2 -94 30 -139 17 -26 50
-62 73 -79 40 -28 52 -31 132 -34 105 -5 139 8 199 73 39 42 52 76 66 164 l7
44 -32 -7 c-18 -3 -76 -6 -130 -6 l-98 0 -5 -57 c-2 -32 -3 -59 -2 -61 1 -1
19 -5 40 -7 52 -7 54 -12 10 -21 -86 -16 -154 22 -173 99 -13 51 2 91 47 130
45 37 124 38 181 2 22 -14 43 -25 47 -25 12 0 83 70 83 81 0 5 -25 26 -57 46
-55 37 -59 38 -163 41 l-107 4 -54 -44z"/>
<path d="M5101 3028 c-44 -12 -141 -110 -169 -170 -17 -37 -22 -66 -22 -131 0
-113 20 -173 76 -237 71 -78 108 -93 241 -98 102 -4 117 -2 160 19 57 28 133
95 133 118 0 10 -25 28 -63 47 l-62 31 -48 -25 c-61 -32 -142 -40 -185 -18
-28 14 -79 73 -71 81 2 2 111 6 242 10 l238 8 -7 46 c-24 174 -71 250 -191
310 -35 17 -59 21 -140 20 -54 0 -113 -5 -132 -11z"/>
<path d="M6153 3014 c-42 -24 -43 -24 -43 -4 0 19 -6 20 -85 20 l-85 0 0 -425
0 -425 85 0 85 0 0 129 0 129 58 -24 c74 -31 174 -33 236 -5 60 28 124 93 153
158 23 50 25 64 21 161 -4 121 -25 181 -85 239 -59 58 -101 73 -205 72 -80 0
-99 -4 -135 -25z m200 -177 c44 -33 61 -83 52 -145 -6 -38 -15 -55 -52 -91
-44 -42 -48 -43 -98 -39 -147 12 -199 199 -78 283 50 35 124 32 176 -8z"/>
<path d="M7462 3020 c-39 -24 -52 -25 -52 -5 0 12 -16 15 -85 15 l-85 0 0
-321 c0 -289 2 -321 16 -315 9 3 46 6 84 6 l67 0 5 189 c5 201 9 221 62 263
47 38 121 13 130 -45 7 -46 15 -207 16 -314 l0 -93 89 0 90 0 -5 193 c-8 347
-11 361 -81 414 -33 25 -46 28 -127 31 -78 3 -96 0 -124 -18z"/>
<path d="M8074 3019 c-54 -26 -129 -106 -156 -165 -17 -40 -20 -62 -16 -153 3
-93 6 -111 30 -152 30 -51 90 -109 140 -135 41 -22 214 -31 275 -15 50 14 153
95 153 120 0 24 -26 46 -78 66 -42 17 -43 17 -101 -9 -62 -28 -128 -34 -164
-15 -31 16 -77 60 -77 74 0 12 222 25 407 25 40 0 73 3 73 6 0 43 -28 162 -49
209 -29 64 -90 123 -155 150 -56 23 -230 19 -282 -6z"/>
<path d="M6950 2715 l0 -315 85 0 85 0 0 315 0 315 -85 0 -85 0 0 -315z"/>
<path d="M1276 2923 c-3 -4 -6 -89 -6 -191 0 -164 2 -183 16 -178 9 3 33 6 55
6 l39 0 0 88 c0 135 7 162 45 178 35 14 45 30 45 74 l0 29 -94 0 c-52 0 -97
-3 -100 -6z"/>
<path d="M1564 2905 c-54 -32 -74 -75 -74 -160 0 -93 27 -137 104 -169 78 -32
176 -9 230 55 27 32 43 116 31 169 -8 37 -56 95 -96 116 -47 24 -147 18 -195
-11z m158 -102 c40 -35 26 -103 -25 -122 -53 -20 -117 41 -98 91 21 54 78 69
123 31z"/>
<path d="M1972 2900 c-55 -40 -72 -75 -72 -152 0 -110 62 -176 174 -185 93 -8
186 31 186 78 0 18 -71 64 -82 54 -3 -3 -27 -9 -54 -14 -81 -15 -134 25 -110
84 24 56 76 76 131 49 57 -27 123 2 111 49 -11 45 -62 67 -158 67 -78 0 -88
-2 -126 -30z"/>
<path d="M2371 2894 c-48 -42 -65 -88 -59 -158 6 -68 30 -116 75 -146 31 -21
48 -25 113 -25 67 0 82 4 118 28 25 16 42 35 42 46 0 29 -46 54 -84 46 -81
-16 -105 -17 -128 -1 l-22 16 34 1 c19 1 42 2 50 3 8 2 53 3 99 4 l84 2 -7 51
c-9 68 -39 125 -79 149 -25 16 -50 20 -114 20 -81 0 -84 -1 -122 -36z"/>
<path d="M2720 2745 l0 -185 49 0 48 0 7 116 c9 136 10 140 41 148 14 4 31 18
38 33 l14 27 8 -25 c4 -13 18 -46 30 -74 13 -27 33 -78 45 -113 l23 -63 -27
-67 c-14 -37 -26 -73 -26 -80 0 -8 18 -12 55 -12 l54 0 37 78 c117 246 175
382 167 394 -2 5 -27 8 -54 8 l-50 0 -40 -85 c-22 -47 -43 -85 -45 -85 -4 0
-15 25 -67 143 l-12 27 -147 0 -148 0 0 -185z"/>
<path d="M1589 2250 c-1 -22 -3 -44 -4 -50 -1 -5 -3 -17 -4 -25 0 -8 -10 -15
-21 -15 -17 0 -20 -7 -20 -50 0 -47 2 -50 25 -50 l25 0 0 -135 0 -135 50 0 50
0 0 135 0 135 25 0 c23 0 25 3 25 49 0 44 -3 50 -22 53 -15 2 -23 10 -24 23 0
11 -1 39 -2 63 l-2 42 -50 0 -50 0 -1 -40z"/>
<path d="M1311 2131 c-25 -24 -31 -37 -31 -71 0 -36 6 -48 38 -79 20 -20 51
-47 67 -60 29 -21 29 -22 5 -16 -70 19 -88 18 -105 -9 -24 -36 -13 -70 29 -90
38 -18 111 -21 150 -6 32 12 66 65 66 103 0 36 -25 83 -51 98 -21 11 -21 11
10 43 17 18 31 42 31 54 0 35 -54 62 -121 62 -49 0 -61 -4 -88 -29z"/>
<path d="M1845 2141 c-16 -10 -41 -31 -55 -45 -23 -25 -25 -35 -25 -120 0 -83
2 -95 25 -123 55 -70 192 -85 265 -29 115 88 90 284 -42 324 -60 18 -133 15
-168 -7z m145 -111 c42 -42 11 -130 -46 -130 -37 0 -60 15 -73 49 -10 24 -10
34 3 59 9 17 21 32 28 35 29 12 69 6 88 -13z"/>
<path d="M2160 1974 l0 -185 53 3 52 3 5 118 c4 102 8 121 24 133 11 8 26 14
33 14 15 0 33 40 33 75 0 23 -1 24 -100 24 l-100 0 0 -185z"/>
<path d="M2446 2134 c-49 -33 -66 -76 -66 -164 0 -94 19 -128 94 -167 46 -24
172 -14 214 16 45 34 43 67 -5 87 -28 12 -42 13 -60 5 -28 -13 -92 -14 -111
-2 -22 13 11 21 91 21 40 0 89 3 110 6 35 6 37 9 37 44 0 20 -12 60 -27 90
-36 70 -73 90 -168 90 -59 0 -76 -4 -109 -26z"/>
<path d="M2816 2131 c-58 -60 -33 -137 65 -202 48 -32 40 -38 -19 -13 -37 15
-37 15 -59 -13 -54 -67 -5 -116 111 -111 60 3 71 7 92 31 19 22 24 40 24 82 0
50 -2 55 -42 89 -35 30 -38 36 -20 36 27 0 66 53 57 80 -10 31 -57 50 -123 50
-51 0 -62 -3 -86 -29z"/>
<path d="M3989 2061 c-54 -11 -101 -43 -127 -87 -20 -34 -22 -51 -20 -124 3
-76 6 -89 31 -122 43 -56 104 -81 181 -76 50 3 71 10 100 31 42 33 71 85 80
145 l5 42 -107 0 -108 0 4 -40 c5 -44 9 -49 46 -52 36 -3 33 -16 -6 -26 -40
-11 -73 0 -110 36 -22 20 -28 35 -28 68 0 80 69 126 146 97 74 -29 100 -28
120 2 22 34 12 52 -47 82 -51 25 -109 33 -160 24z"/>
<path d="M7157 2052 c-10 -10 -17 -30 -17 -43 0 -14 -7 -34 -15 -45 -17 -22
-20 -81 -5 -86 6 -2 14 -50 17 -111 l6 -107 39 0 38 0 0 110 0 110 30 0 30 0
0 -110 0 -110 40 0 40 0 0 110 0 110 25 0 c21 0 25 5 25 30 0 19 -7 33 -20 40
-26 14 -25 27 1 35 16 5 20 14 17 43 -3 35 -5 37 -40 40 -53 4 -74 -11 -87
-62 -10 -40 -31 -63 -45 -49 -13 14 -5 33 14 33 15 0 20 7 20 28 0 15 -5 33
-12 40 -19 19 -82 15 -101 -6z"/>
<path d="M6516 2010 c-4 -27 -11 -52 -16 -55 -13 -8 -13 -72 0 -77 6 -2 14
-50 17 -111 l6 -107 44 0 43 0 0 63 c1 89 9 140 26 153 19 15 18 64 -2 78 -16
12 -22 32 -23 79 -1 25 -4 27 -45 27 l-43 0 -7 -50z"/>
<path d="M4343 1950 c-12 -5 -36 -28 -53 -51 -41 -58 -42 -117 0 -182 34 -53
54 -61 142 -55 55 4 64 8 94 41 30 32 34 43 34 92 0 64 -16 102 -60 139 -26
21 -41 26 -83 25 -29 0 -62 -4 -74 -9z"/>
<path d="M4955 1941 c-59 -36 -70 -57 -70 -130 0 -82 15 -113 65 -136 77 -35
219 -4 220 46 0 28 -51 42 -99 28 -33 -10 -46 -10 -69 1 l-27 14 45 7 c25 4
71 8 103 8 l57 1 0 38 c0 53 -29 104 -70 124 -46 23 -117 23 -155 -1z"/>
<path d="M5210 1808 l0 -148 40 0 c22 0 40 1 41 3 0 1 2 38 5 82 6 108 10 120
39 133 20 9 25 19 25 46 l0 35 -75 -2 -75 -2 0 -147z"/>
<path d="M5390 1808 l0 -148 40 0 c39 0 40 1 41 38 0 57 10 125 20 145 6 9 20
17 34 17 23 0 24 -3 30 -100 l8 -100 43 0 44 0 1 43 c2 113 20 167 55 167 17
0 30 -65 33 -162 l1 -48 40 0 40 0 0 125 c0 120 -1 127 -25 150 -28 29 -93 34
-136 11 -20 -10 -31 -11 -45 -2 -11 6 -64 11 -121 11 l-103 0 0 -147z"/>
<path d="M5944 1950 c-64 -26 -102 -138 -71 -213 23 -53 68 -77 147 -77 58 0
70 4 100 28 21 18 31 34 28 44 -8 21 -56 29 -93 16 -22 -7 -38 -6 -60 3 l-30
12 45 8 c25 4 69 8 98 8 l52 1 0 40 c0 86 -57 140 -145 139 -27 0 -59 -4 -71
-9z"/>
<path d="M6200 1805 l0 -150 44 3 44 4 7 85 c5 66 12 90 28 106 19 19 21 19
34 2 7 -11 14 -31 14 -47 1 -15 3 -32 4 -38 1 -5 3 -32 4 -60 l1 -50 40 0 40
0 0 124 0 124 -31 26 c-29 25 -36 26 -130 24 l-99 -3 0 -150z"/>
<path d="M6867 1942 c-57 -35 -83 -135 -53 -207 23 -55 68 -77 148 -73 58 3
72 8 97 32 78 74 54 203 -46 255 -33 17 -114 13 -146 -7z"/>
<path d="M7615 1941 c-54 -37 -65 -60 -65 -138 0 -68 2 -74 34 -107 33 -35 35
-36 111 -36 89 0 135 19 135 57 0 34 -44 59 -76 44 -44 -20 -89 -14 -104 13
-17 33 -5 74 25 88 19 9 35 8 66 -2 35 -12 45 -12 68 1 63 36 8 92 -97 97 -54
2 -73 -1 -97 -17z"/>
<path d="M7938 1942 c-38 -23 -58 -70 -58 -137 0 -64 17 -104 56 -130 21 -13
43 -16 106 -13 69 3 82 6 99 27 26 32 24 50 -8 62 -20 8 -40 8 -71 0 -33 -9
-48 -8 -65 1 -20 12 -18 13 28 19 28 4 74 8 104 8 l54 1 -7 47 c-7 52 -45 109
-83 124 -39 15 -125 10 -155 -9z"/>
<path d="M8213 1953 c-10 -3 -13 -43 -13 -149 l0 -144 39 0 c35 0 39 3 45 31
3 17 6 51 6 74 0 72 10 99 41 117 22 13 29 24 29 48 l0 30 -67 -1 c-38 0 -74
-3 -80 -6z"/>
<path d="M8397 1932 c-19 -20 -27 -39 -27 -65 0 -32 6 -41 51 -77 28 -22 44
-40 35 -40 -8 0 -18 5 -21 10 -11 17 -41 11 -63 -13 -29 -31 -28 -39 9 -66 60
-44 166 -25 189 34 12 31 -5 92 -30 107 -18 12 -18 12 1 36 28 37 25 69 -11
87 -48 25 -102 20 -133 -13z"/>
<path d="M4583 1920 c4 -17 28 -81 54 -143 45 -106 50 -112 79 -115 17 -2 35
3 41 10 13 15 113 253 113 268 0 5 -22 10 -49 10 l-49 0 -22 -60 c-13 -34 -24
-59 -26 -57 -3 2 -17 28 -32 58 -26 52 -29 54 -71 57 l-44 3 6 -31z"/>
<path d="M7430 1805 l0 -145 40 0 40 0 0 145 0 145 -40 0 -40 0 0 -145z"/>
<path d="M4860 1319 c0 -56 -13 -89 -35 -89 -11 0 -15 -12 -15 -45 0 -41 2
-45 25 -45 l25 0 0 -135 0 -135 50 0 50 0 0 135 0 135 25 -6 c24 -6 25 -4 25
39 0 36 -5 48 -23 60 -13 8 -24 24 -24 34 0 10 0 37 -1 61 l-2 42 -50 0 -50 0
0 -51z"/>
<path d="M2593 1339 c-50 -24 -99 -86 -114 -144 -6 -22 -9 -69 -7 -105 4 -80
43 -150 107 -195 40 -28 48 -30 145 -31 58 0 111 -6 124 -13 13 -7 50 -11 88
-9 l66 3 -40 50 -39 49 20 46 c24 54 28 166 9 222 -15 43 -89 124 -127 138
-15 6 -63 10 -108 10 -63 0 -92 -5 -124 -21z m189 -110 c38 -17 61 -59 66
-117 4 -51 3 -55 -14 -47 -11 5 -47 11 -81 13 -74 4 -80 -7 -37 -64 l26 -34
-26 0 c-14 0 -43 7 -64 16 -34 13 -41 22 -56 67 -16 46 -16 56 -3 92 25 71
118 108 189 74z"/>
<path d="M3495 1227 c-16 -8 -45 -31 -62 -52 -31 -36 -33 -43 -33 -114 0 -89
18 -135 68 -168 30 -20 45 -22 168 -22 l134 1 0 179 0 180 -67 -1 c-38 0 -93
2 -123 5 -36 3 -65 1 -85 -8z m143 -129 c40 -38 19 -100 -41 -121 -27 -10 -65
9 -82 43 -19 37 -13 62 23 90 30 25 65 20 100 -12z"/>
<path d="M3820 1053 l0 -183 50 0 50 0 1 58 c1 140 12 188 46 204 35 17 58 61
44 85 -8 15 -24 18 -100 18 l-91 0 0 -182z"/>
<path d="M4123 1225 c-17 -8 -44 -31 -60 -51 -24 -33 -28 -47 -31 -118 -2 -68
0 -86 17 -114 34 -54 75 -72 164 -72 65 0 83 4 117 25 45 29 51 56 18 79 -18
13 -39 15 -103 10 -67 -6 -83 -4 -94 10 -12 15 -2 16 119 16 l133 0 -6 61 c-6
67 -33 116 -79 144 -39 23 -154 29 -195 10z"/>
<path d="M4606 1233 c-4 -4 -38 -6 -76 -5 l-70 3 0 -181 0 -180 49 0 48 0 7
61 c3 34 6 83 6 108 0 50 6 63 34 78 36 20 54 5 60 -51 9 -85 16 -160 16 -178
0 -15 9 -18 55 -18 l55 0 -6 128 c-7 164 -16 198 -65 223 -38 19 -99 26 -113
12z"/>
<path d="M5331 1232 c-7 -5 -42 -7 -77 -4 l-64 5 0 -182 0 -182 53 3 52 3 5
108 c5 99 7 110 29 128 51 42 67 16 76 -126 l7 -116 52 3 c41 2 51 6 50 21 0
9 -1 78 -2 151 l-2 135 -35 27 c-38 29 -118 43 -144 26z"/>
<path d="M5675 1229 c-73 -27 -105 -85 -105 -192 0 -120 52 -167 185 -167 63
0 82 4 115 25 45 29 49 46 19 76 -18 18 -28 20 -68 14 -61 -11 -111 -9 -124 4
-6 6 -7 11 -1 11 60 2 240 13 243 16 3 2 -1 32 -7 66 -13 70 -34 104 -81 131
-37 23 -134 31 -176 16z"/>
<path d="M3017 1223 c-7 -13 12 -236 23 -275 17 -59 50 -78 137 -78 132 0 155
33 161 228 l4 132 -51 0 -51 0 -1 -57 c-2 -141 -12 -189 -41 -196 -48 -13 -56
4 -63 133 l-8 120 -53 0 c-29 0 -55 -3 -57 -7z"/>
<path d="M5030 1050 l0 -180 50 0 50 0 0 180 0 180 -50 0 -50 0 0 -180z"/>
<path d="M4965 516 c-6 -51 -11 -65 -26 -69 -15 -4 -19 -14 -19 -46 0 -37 2
-41 25 -41 l25 0 0 -135 0 -135 50 0 50 0 0 135 0 135 25 0 c23 0 25 4 25 43
0 37 -4 46 -25 55 -14 7 -24 19 -23 29 0 10 0 35 0 56 l-2 37 -49 0 -49 0 -7
-64z"/>
<path d="M4282 449 c-47 -9 -91 -40 -116 -81 -24 -39 -22 -163 3 -204 47 -77
207 -100 285 -41 44 34 45 52 4 73 -25 13 -38 14 -68 5 -49 -14 -93 -14 -108
1 -22 22 -12 28 52 28 34 0 91 3 125 6 68 8 71 13 51 86 -27 96 -120 148 -228
127z"/>
<path d="M3817 433 c-15 -8 -40 -33 -55 -56 -22 -35 -27 -53 -27 -108 0 -57 4
-71 29 -103 45 -59 80 -76 162 -76 122 0 205 63 139 106 -24 15 -33 16 -90 5
-54 -11 -67 -11 -93 3 -50 26 -57 81 -16 122 26 27 37 28 144 9 27 -5 42 -2
60 13 22 18 23 22 11 45 -8 15 -29 33 -46 42 -43 20 -179 19 -218 -2z"/>
<path d="M4570 270 l0 -178 55 -4 55 -3 1 95 c2 128 8 152 41 164 46 16 55 -1
63 -134 l7 -120 53 0 52 0 -5 153 -5 152 -30 27 c-29 27 -32 27 -158 27 l-129
0 0 -179z"/>
<path d="M5225 438 c-64 -38 -85 -80 -85 -176 0 -83 23 -125 83 -152 89 -41
247 -11 255 48 5 32 -57 58 -101 43 -38 -14 -83 -14 -108 -1 -41 22 -16 30 97
30 63 0 124 4 134 10 17 9 17 14 6 64 -26 111 -71 146 -186 146 -41 0 -84 -6
-95 -12z"/>
<path d="M5540 270 l0 -178 51 -4 c28 -1 52 -1 54 2 2 3 5 48 6 100 3 122 12
156 42 164 24 6 47 43 47 76 0 17 -9 19 -100 19 l-100 0 0 -179z"/>
<path d="M5803 440 c-30 -12 -43 -41 -43 -94 0 -44 2 -47 65 -97 36 -28 64
-54 61 -56 -3 -3 -28 1 -55 8 -47 12 -52 11 -66 -7 -41 -53 15 -104 114 -104
47 0 57 4 87 34 27 27 34 42 34 72 0 48 -35 94 -89 119 -23 10 -41 22 -41 27
0 11 7 10 42 -8 32 -16 32 -16 60 15 36 41 35 57 -4 81 -35 21 -124 27 -165
10z"/>
</g>
</svg>
